<?xml version="1.0" encoding="UTF-8"?>
<svg id="Camada_2" data-name="Camada 2" xmlns="http://www.w3.org/2000/svg" xmlns:xlink="http://www.w3.org/1999/xlink" viewBox="0 0 243.53 159.69">
  <defs>
    <style>
      .cls-1 {
        clip-path: url(#clippath-11);
      }

      .cls-2 {
        clip-path: url(#clippath-16);
      }

      .cls-3 {
        fill: url(#Gradiente_sem_nome_17-8);
      }

      .cls-4 {
        fill: url(#Gradiente_sem_nome_17-13);
      }

      .cls-5 {
        clip-path: url(#clippath-2);
      }

      .cls-6 {
        clip-path: url(#clippath-13);
      }

      .cls-7 {
        fill: url(#Gradiente_sem_nome_17-3);
      }

      .cls-8 {
        fill: url(#Gradiente_sem_nome_17-9);
      }

      .cls-9 {
        clip-path: url(#clippath-15);
      }

      .cls-10 {
        clip-path: url(#clippath-6);
      }

      .cls-11 {
        clip-path: url(#clippath-7);
      }

      .cls-12 {
        clip-path: url(#clippath-1);
      }

      .cls-13 {
        clip-path: url(#clippath-4);
      }

      .cls-14 {
        fill: url(#Gradiente_sem_nome_17-7);
      }

      .cls-15 {
        fill: url(#Gradiente_sem_nome_17-2);
      }

      .cls-16 {
        fill: url(#Gradiente_sem_nome_17-6);
      }

      .cls-17 {
        clip-path: url(#clippath-12);
      }

      .cls-18 {
        fill: url(#Gradiente_sem_nome_17-5);
      }

      .cls-19 {
        fill: url(#Gradiente_sem_nome_17-11);
      }

      .cls-20 {
        fill: url(#Gradiente_sem_nome_17-10);
      }

      .cls-21 {
        fill: url(#Gradiente_sem_nome_8);
      }

      .cls-22 {
        clip-path: url(#clippath-9);
      }

      .cls-23 {
        fill: url(#Gradiente_sem_nome_17);
      }

      .cls-24 {
        clip-path: url(#clippath);
      }

      .cls-25 {
        fill: url(#Gradiente_sem_nome_8-3);
      }

      .cls-26 {
        fill: none;
      }

      .cls-27 {
        clip-path: url(#clippath-3);
      }

      .cls-28 {
        clip-path: url(#clippath-8);
      }

      .cls-29 {
        clip-path: url(#clippath-14);
      }

      .cls-30 {
        clip-path: url(#clippath-5);
      }

      .cls-31 {
        fill: url(#Gradiente_sem_nome_17-4);
      }

      .cls-32 {
        fill: url(#Gradiente_sem_nome_17-12);
      }

      .cls-33 {
        clip-path: url(#clippath-10);
      }

      .cls-34 {
        fill: url(#Gradiente_sem_nome_8-4);
      }

      .cls-35 {
        fill: url(#Gradiente_sem_nome_8-2);
      }
    </style>
    <clipPath id="clippath">
      <path class="cls-26" d="m0,137.41c0,11.6,9.12,20.94,21.81,20.94,11.31,0,19.91-7.5,19.91-19.85v-3.46h-15.88c-2.41,0-4.37,1.96-4.37,4.37v3.7h10.79c-1.44,3.87-4.96,6.23-10.33,6.23-7.85,0-12.69-5.02-12.69-11.89s5.08-12.12,11.89-12.12c2.97,0,5.54.88,7.44,2.23,1.82,1.29,4.21,1.48,6.14.37l4.13-2.37c-3.4-5.42-9.92-9.23-17.66-9.23-11.89,0-21.17,9.35-21.17,21.06"/>
    </clipPath>
    <linearGradient id="Gradiente_sem_nome_17" data-name="Gradiente sem nome 17" x1="-780.36" y1="832.55" x2="-779.89" y2="832.55" gradientTransform="translate(69588.17 74379.71) scale(89.17 -89.17)" gradientUnits="userSpaceOnUse">
      <stop offset="0" stop-color="#a0cc0d"/>
      <stop offset="1" stop-color="#0d5c8c"/>
    </linearGradient>
    <clipPath id="clippath-1">
      <path class="cls-26" d="m53.83,143.13c0-4.1,2.88-6.81,6.64-6.81s6.64,2.71,6.64,6.81-2.88,6.81-6.64,6.81-6.64-2.71-6.64-6.81m-8.65,0c0,8.6,6.81,15.23,15.29,15.23s15.29-6.64,15.29-15.23-6.81-15.23-15.29-15.23-15.29,6.64-15.29,15.23"/>
    </clipPath>
    <linearGradient id="Gradiente_sem_nome_17-2" data-name="Gradiente sem nome 17" x1="-780.69" y1="833.77" x2="-780.23" y2="833.77" gradientTransform="translate(51078.95 54646.17) scale(65.37 -65.37)" xlink:href="#Gradiente_sem_nome_17"/>
    <clipPath id="clippath-2">
      <path class="cls-26" d="m84.87,122.48c-1.47.44-2.47,1.79-2.47,3.32v2.9h-4.62v5.07c0,1.79,1.45,3.24,3.24,3.24h1.38v10.21c0,8.08,3.29,11.48,14.6,10.33v-5.25c0-1.38-1.1-2.49-2.48-2.54-2.24-.08-3.46-.67-3.46-2.54v-10.21h5.94v-5.32c0-1.65-1.34-2.99-2.99-2.99h-2.95v-8.08l-6.18,1.85Z"/>
    </clipPath>
    <linearGradient id="Gradiente_sem_nome_17-3" data-name="Gradiente sem nome 17" x1="-781.06" y1="836.17" x2="-780.59" y2="836.17" gradientTransform="translate(32157.73 34483.18) scale(41.07 -41.07)" xlink:href="#Gradiente_sem_nome_17"/>
    <clipPath id="clippath-3">
      <path class="cls-26" d="m108.53,143.13c0-4.33,2.88-7.04,6.87-7.04s6.87,2.71,6.87,7.04-2.88,7.04-6.87,7.04-6.87-2.71-6.87-7.04m-8.65,0c0,8.6,6.23,15.23,13.79,15.23,3.87,0,6.69-1.33,8.6-3.52v2.71h3.69c2.74,0,4.97-2.22,4.97-4.97v-23.88h-5.94c-1.5,0-2.71,1.21-2.71,2.71-1.9-2.19-4.73-3.52-8.6-3.52-7.56,0-13.79,6.64-13.79,15.23"/>
    </clipPath>
    <linearGradient id="Gradiente_sem_nome_17-4" data-name="Gradiente sem nome 17" x1="-781.65" y1="833.7" x2="-781.18" y2="833.7" gradientTransform="translate(51967.5 55465.07) scale(66.36 -66.36)" xlink:href="#Gradiente_sem_nome_17"/>
    <clipPath id="clippath-4">
      <path class="cls-26" d="m0,137.41c0,11.6,9.12,20.94,21.81,20.94,11.31,0,19.91-7.5,19.91-19.85v-3.46h-15.88c-2.41,0-4.37,1.96-4.37,4.37v3.7h10.79c-1.44,3.87-4.96,6.23-10.33,6.23-7.85,0-12.69-5.02-12.69-11.89s5.08-12.12,11.89-12.12c2.97,0,5.54.88,7.44,2.23,1.82,1.29,4.21,1.48,6.14.37l4.13-2.37c-3.4-5.42-9.92-9.23-17.66-9.23-11.89,0-21.17,9.35-21.17,21.06"/>
    </clipPath>
    <linearGradient id="Gradiente_sem_nome_8" data-name="Gradiente sem nome 8" x1="-781.81" y1="828.71" x2="-781.34" y2="828.71" gradientTransform="translate(-252277.45 -267422.03) rotate(-180) scale(322.86 -322.86)" gradientUnits="userSpaceOnUse">
      <stop offset="0" stop-color="#a0cc0d"/>
      <stop offset=".29" stop-color="#75ab31"/>
      <stop offset=".92" stop-color="#0d5c8c"/>
      <stop offset="1" stop-color="#0d5c8c"/>
    </linearGradient>
    <clipPath id="clippath-5">
      <path class="cls-26" d="m53.83,143.13c0-4.1,2.88-6.81,6.64-6.81s6.64,2.71,6.64,6.81-2.88,6.81-6.64,6.81-6.64-2.71-6.64-6.81m-8.65,0c0,8.6,6.81,15.23,15.29,15.23s15.29-6.64,15.29-15.23-6.81-15.23-15.29-15.23-15.29,6.64-15.29,15.23"/>
    </clipPath>
    <linearGradient id="Gradiente_sem_nome_8-2" data-name="Gradiente sem nome 8" x1="-781.81" y1="828.78" x2="-781.34" y2="828.78" gradientTransform="translate(-252270.56 -267439.33) rotate(-180) scale(322.86 -322.86)" xlink:href="#Gradiente_sem_nome_8"/>
    <clipPath id="clippath-6">
      <path class="cls-26" d="m84.87,122.48c-1.47.44-2.47,1.79-2.47,3.32v2.9h-4.62v5.07c0,1.79,1.45,3.24,3.24,3.24h1.38v10.21c0,8.08,3.29,11.48,14.6,10.33v-5.25c0-1.38-1.1-2.49-2.48-2.54-2.24-.08-3.46-.67-3.46-2.54v-10.21h5.94v-5.32c0-1.65-1.34-2.99-2.99-2.99h-2.95v-8.08l-6.18,1.85Z"/>
    </clipPath>
    <linearGradient id="Gradiente_sem_nome_8-3" data-name="Gradiente sem nome 8" x1="-781.81" y1="828.81" x2="-781.34" y2="828.81" gradientTransform="translate(-252269.27 -267451.84) rotate(180) scale(322.86 -322.86)" xlink:href="#Gradiente_sem_nome_8"/>
    <clipPath id="clippath-7">
      <path class="cls-26" d="m108.53,143.13c0-4.33,2.88-7.04,6.87-7.04s6.87,2.71,6.87,7.04-2.88,7.04-6.87,7.04-6.87-2.71-6.87-7.04m-8.65,0c0,8.6,6.23,15.23,13.79,15.23,3.87,0,6.69-1.33,8.6-3.52v2.71h3.69c2.74,0,4.97-2.22,4.97-4.97v-23.88h-5.94c-1.5,0-2.71,1.21-2.71,2.71-1.9-2.19-4.73-3.52-8.6-3.52-7.56,0-13.79,6.64-13.79,15.23"/>
    </clipPath>
    <linearGradient id="Gradiente_sem_nome_8-4" data-name="Gradiente sem nome 8" x1="-781.81" y1="828.86" x2="-781.34" y2="828.86" gradientTransform="translate(-252264.63 -267464.18) rotate(180) scale(322.86 -322.86)" xlink:href="#Gradiente_sem_nome_8"/>
    <clipPath id="clippath-8">
      <path class="cls-26" d="m197.76,118.65l-10.34,3.73,1.48,5.21c.4,1.4,1.86,2.22,3.26,1.84l4.47-1.22v26.99c0,1.67,1.35,3.02,3.02,3.02h6.02v-39.55h-7.91Z"/>
    </clipPath>
    <linearGradient id="Gradiente_sem_nome_17-5" data-name="Gradiente sem nome 17" x1="-784.23" y1="836.52" x2="-783.76" y2="836.52" gradientTransform="translate(30783.18 32774.02) scale(39.01 -39.01)" xlink:href="#Gradiente_sem_nome_17"/>
    <clipPath id="clippath-9">
      <path class="cls-26" d="m220.36,138.42c0-7.63,2.32-11.75,7.06-11.75s7.06,4.12,7.06,11.75-2.32,11.75-7.06,11.75-7.06-4.12-7.06-11.75m-9.04,0c0,12.2,5.88,20.57,16.1,20.57s16.1-8.36,16.1-20.57-5.88-20.57-16.1-20.57-16.1,8.36-16.1,20.57"/>
    </clipPath>
    <linearGradient id="Gradiente_sem_nome_17-6" data-name="Gradiente sem nome 17" x1="-783.49" y1="833.47" x2="-783.02" y2="833.47" gradientTransform="translate(54152.89 57521.49) scale(68.85 -68.85)" xlink:href="#Gradiente_sem_nome_17"/>
    <clipPath id="clippath-10">
      <path class="cls-26" d="m197.76,118.65l-10.34,3.73,1.48,5.21c.4,1.4,1.86,2.22,3.26,1.84l4.47-1.22v26.99c0,1.67,1.35,3.02,3.02,3.02h6.02v-39.55h-7.91Z"/>
    </clipPath>
    <linearGradient id="Gradiente_sem_nome_17-7" data-name="Gradiente sem nome 17" x1="-782.45" y1="831.78" x2="-781.99" y2="831.78" gradientTransform="translate(94035.63 99902.29) scale(119.94 -119.94)" xlink:href="#Gradiente_sem_nome_17"/>
    <clipPath id="clippath-11">
      <path class="cls-26" d="m220.36,138.42c0-7.63,2.32-11.75,7.06-11.75s7.06,4.12,7.06,11.75-2.32,11.75-7.06,11.75-7.06-4.12-7.06-11.75m-9.04,0c0,12.2,5.88,20.57,16.1,20.57s16.1-8.36,16.1-20.57-5.88-20.57-16.1-20.57-16.1,8.36-16.1,20.57"/>
    </clipPath>
    <linearGradient id="Gradiente_sem_nome_17-8" data-name="Gradiente sem nome 17" x1="-782.45" y1="831.78" x2="-781.99" y2="831.78" gradientTransform="translate(94035.63 99902.29) scale(119.94 -119.94)" xlink:href="#Gradiente_sem_nome_17"/>
    <clipPath id="clippath-12">
      <path class="cls-26" d="m164.22,150.66c-2.3-.41-4.46-1.55-6.12-3.19-.02-.02-.03-.03-.05-.05-.87-.88-1.6-1.88-2.15-2.98-.84-1.67-1.26-3.54-1.23-5.41,0-.52.05-1.03.13-1.55.33-2.21,1.33-4.32,2.8-5.98l.45-.48,4.14-4.15,4.1-4.1,3.97,3.97,4.5,4.5c.1.1.19.21.29.32,2.45,2.8,3.37,6.63,2.61,10.14-.12.55-.28,1.09-.48,1.62-.9,2.36-2.56,4.41-4.69,5.75-1.85,1.16-4.04,1.77-6.22,1.77-.69,0-1.37-.06-2.05-.18m-18.8-12.5c0,11.89,9.4,21,21,21,3.4,0,6.63-.81,9.46-2.19l1.2,1.26c1.75,1.84,4.64,1.96,6.54.28l3.23-2.87-4.04-4.27c2.88-3.58,4.62-8.13,4.62-13.21,0-11.89-9.4-21-21-21s-21,9.12-21,21"/>
    </clipPath>
    <linearGradient id="Gradiente_sem_nome_17-9" data-name="Gradiente sem nome 17" x1="-782.21" y1="832.54" x2="-781.74" y2="832.54" gradientTransform="translate(70382.33 74894.91) scale(89.79 -89.79)" xlink:href="#Gradiente_sem_nome_17"/>
    <clipPath id="clippath-13">
      <path class="cls-26" d="m164.22,150.66c-2.3-.41-4.46-1.55-6.12-3.19-.02-.02-.03-.03-.05-.05-.87-.88-1.6-1.88-2.15-2.98-.84-1.67-1.26-3.54-1.23-5.41,0-.52.05-1.03.13-1.55.33-2.21,1.33-4.32,2.8-5.98l.45-.48,4.14-4.15,4.1-4.1,3.97,3.97,4.5,4.5c.1.1.19.21.29.32,2.45,2.8,3.37,6.63,2.61,10.14-.12.55-.28,1.09-.48,1.62-.9,2.36-2.56,4.41-4.69,5.75-1.85,1.16-4.04,1.77-6.22,1.77-.69,0-1.37-.06-2.05-.18m-18.8-12.5c0,11.89,9.4,21,21,21,3.4,0,6.63-.81,9.46-2.19l1.2,1.26c1.75,1.84,4.64,1.96,6.54.28l3.23-2.87-4.04-4.27c2.88-3.58,4.62-8.13,4.62-13.21,0-11.89-9.4-21-21-21s-21,9.12-21,21"/>
    </clipPath>
    <linearGradient id="Gradiente_sem_nome_17-10" data-name="Gradiente sem nome 17" x1="-782.21" y1="832.54" x2="-781.74" y2="832.54" gradientTransform="translate(70382.33 74894.91) scale(89.79 -89.79)" xlink:href="#Gradiente_sem_nome_17"/>
    <clipPath id="clippath-14">
      <path class="cls-26" d="m173.78,136.73h-.03c-.78.02-1.4.66-1.38,1.44,0,.23.03,5.66-4.95,7.3-.71.23-1.18.95-1.02,1.68.15.67.74,1.1,1.38,1.1.14,0,.29-.02.43-.07,5.67-1.81,7.05-7.39,6.98-10.08-.02-.76-.64-1.37-1.4-1.37h-.01"/>
    </clipPath>
    <linearGradient id="Gradiente_sem_nome_17-11" data-name="Gradiente sem nome 17" x1="-785.77" y1="844.26" x2="-785.3" y2="844.26" gradientTransform="translate(14993.07 16072.8) scale(18.87 -18.87)" xlink:href="#Gradiente_sem_nome_17"/>
    <clipPath id="clippath-15">
      <path class="cls-26" d="m173.78,136.73h-.03c-.78.02-1.4.66-1.38,1.44,0,.23.03,5.66-4.95,7.3-.71.23-1.18.95-1.02,1.68.15.67.74,1.1,1.38,1.1.14,0,.29-.02.43-.07,5.67-1.81,7.05-7.39,6.98-10.08-.02-.76-.64-1.37-1.4-1.37h-.01"/>
    </clipPath>
    <linearGradient id="Gradiente_sem_nome_17-12" data-name="Gradiente sem nome 17" x1="-785.77" y1="844.26" x2="-785.3" y2="844.26" gradientTransform="translate(14993.07 16072.8) scale(18.87 -18.87)" xlink:href="#Gradiente_sem_nome_17"/>
    <clipPath id="clippath-16">
      <path class="cls-26" d="m105.75,64.39h0l-.03-.39c-.03-.34-.04-.68-.04-1.02s.01-.68.06-1.24c.07-.79.19-1.55.38-2.4.11-.44.23-.88.38-1.32l.18-.51c.3-.81.66-1.59,1.11-2.37,1.28-2.32,2.97-4.52,4.16-5.95l9.82-11.46,8.94,10.46s3.05,3.35,5.06,6.99c.43.75.8,1.54,1.09,2.32l.18.52c.16.47.28.92.41,1.46.18.77.29,1.55.37,2.53.03.34.04.69.04,1.02s-.01.68-.05,1.24c-.02.2-.04.39-.07.61l-.05.32c-.58,5.49-5.67,14.33-13.98,19.91l-1.86,1.26c-1.66-.95-3.22-2.02-4.63-3.18-6.1-5.01-10.78-12.38-11.36-17.91l-.04-.32h0c-.02-.19-.05-.38-.07-.59m-9.03-35.08c-.07.07-6.79,7.41-11.34,15.65-1.11,1.95-2.06,4-2.83,6.07-.19.49-.35.97-.47,1.37-.36,1.1-.69,2.22-.96,3.35l-.09.39c-.3,1.3-.46,2.63-.62,3.92l-.03.25c-.03.23-.06.46-.11.68-.07.34-.13.68-.16,1.02l-.05.67c-.06.86-.09,1.64-.1,2.37v.52c-.08,1.63-.01,4.28.73,7.64,1.44,6.54,6.04,18.13,20.6,22.35.53.15,1.05.25,1.54.34.2.04.41.08.61.12,2.25.48,4.2.71,5.97.71,7.72,0,14.13-3.21,18.14-5.9,8.09-5.44,14.68-14.4,16.51-22.43h.02s.08-.34.08-.34c.14-.6.25-1.27.37-2.1l.07-.41h-.02c.04-.32.07-.65.11-1.03.03-.37.04-.75.05-1.13h.01s0-.85,0-.85h0c-.01-.44-.04-.89-.08-1.47-.09-1.13-.27-2.22-.55-3.44-.15-.61-.32-1.24-.51-1.81l-.27-.78c-.42-1.14-.94-2.25-1.54-3.3-.03-.05-2.78-4.99-5.5-7.64l-.2-.22.04-.03-14.35-16.77-13.86,16.24c-.08.06-1.05,1.13-2.23,2.62l-.4.52c-1.41,1.83-2.59,3.6-3.51,5.26-.61,1.07-1.13,2.19-1.56,3.35l-.26.75c-.2.63-.38,1.24-.57,2.05-.25,1.1-.42,2.19-.53,3.56-.04.5-.06,1-.06,1.49h0v.07s0,.5,0,.5c.01.31.03.65.06,1.05l.02.43c.02.21.06.43.1.66,0,.02,0,.03.01.05h-.02s.04.37.04.37c.64,6.01,4.65,13.43,10.48,19.39,1.36,1.4,2.86,2.72,4.45,3.95-3.63.75-7.24.62-10.74-.4-10.87-3.15-14.62-11.34-15.87-17.64-.35-2.07-.52-3.94-.52-5.74,0-.82.05-1.64.09-2.4l.05-.59c.04-.5.11-1.01.19-1.53l.03-.28c.18-1.24.38-2.33.62-3.41.23-.93.5-1.89.82-2.85.11-.34.24-.71.38-1.09.63-1.71,1.44-3.42,2.39-5.11,4.17-7.55,10.4-14.36,10.48-14.44l19.92-23.29,20.91,24.44.13.13c1.85,2.16,6.22,7.5,9.36,13.19.94,1.64,1.74,3.35,2.38,5.08.14.39.27.76.4,1.15.31.92.58,1.87.79,2.77l.09.37c.36,1.59.62,3.22.76,4.86l.05.55c.04.67.09,1.55.09,2.44,0,10.9-5.08,21-13.93,27.72-1.3.99-2.53,1.81-3.75,2.52l-.2.12c-.13.08-.27.16-.42.23-.43.23-.92.47-1.44.73-.83.39-1.65.76-2.51,1.11-.28.11-.56.22-.85.33l-.27.1c-.32.12-.66.24-1,.35l-.15.05c-7.52,2.59-16.07,3.3-25.02,2.03-3.21-.44-6.23-1.07-9.24-1.91l-1.97-.55,1.67,1.19c6.9,4.91,14.98,7.61,23.39,7.8h.74s.95,0,.95,0c22.54-.51,40.88-19.26,40.88-41.81,0-.92-.04-1.86-.12-2.96l-.05-.6c-.16-1.98-.47-3.94-.91-5.85l-.1-.41c-.28-1.14-.6-2.26-.95-3.32-.15-.46-.31-.93-.49-1.4-.77-2.07-1.72-4.11-2.82-6.05-.05-.1-6.66-11.04-11.07-15.14l.11-.09L121.77,0l-25.06,29.31Z"/>
    </clipPath>
    <linearGradient id="Gradiente_sem_nome_17-13" data-name="Gradiente sem nome 17" x1="-781.49" y1="830.48" x2="-781.02" y2="830.48" gradientTransform="translate(139907.51 148647.77) scale(178.92 -178.92)" xlink:href="#Gradiente_sem_nome_17"/>
  </defs>
  <g id="Camada_1-2" data-name="Camada 1">
    <g>
      <g class="cls-24">
        <rect class="cls-23" x="0" y="116.35" width="41.72" height="42"/>
      </g>
      <g class="cls-12">
        <rect class="cls-15" x="45.18" y="127.89" width="30.58" height="30.46"/>
      </g>
      <g class="cls-5">
        <rect class="cls-7" x="77.78" y="120.62" width="19.21" height="38.08"/>
      </g>
      <g class="cls-27">
        <rect class="cls-31" x="99.88" y="127.89" width="31.04" height="30.46"/>
      </g>
      <g class="cls-13">
        <rect class="cls-21" x="-7.25" y="109.18" width="56.22" height="56.35" transform="translate(-59.99 24.37) rotate(-26.95)"/>
      </g>
      <g class="cls-30">
        <rect class="cls-35" x="39.93" y="122.62" width="41.07" height="41.02" transform="translate(-58.3 42.95) rotate(-26.95)"/>
      </g>
      <g class="cls-10">
        <rect class="cls-25" x="70.19" y="118.34" width="34.39" height="42.65" transform="translate(-53.81 54.77) rotate(-26.95)"/>
      </g>
      <g class="cls-11">
        <rect class="cls-34" x="94.66" y="122.51" width="41.48" height="41.22" transform="translate(-52.33 67.84) rotate(-26.95)"/>
      </g>
      <g class="cls-28">
        <rect class="cls-18" x="187.42" y="118.65" width="18.25" height="39.55"/>
      </g>
      <g class="cls-22">
        <rect class="cls-16" x="211.32" y="117.86" width="32.21" height="41.13"/>
      </g>
      <g class="cls-33">
        <rect class="cls-14" x="187.42" y="118.65" width="18.25" height="39.55"/>
      </g>
      <g class="cls-1">
        <rect class="cls-3" x="211.32" y="117.86" width="32.21" height="41.13"/>
      </g>
      <g class="cls-17">
        <rect class="cls-8" x="145.42" y="117.16" width="42" height="43.03"/>
      </g>
      <g class="cls-6">
        <rect class="cls-20" x="145.42" y="117.16" width="42" height="43.03"/>
      </g>
      <g class="cls-29">
        <rect class="cls-19" x="166.24" y="136.73" width="9.02" height="11.52"/>
      </g>
      <g class="cls-9">
        <rect class="cls-32" x="166.24" y="136.73" width="9.02" height="11.52"/>
      </g>
      <g class="cls-2">
        <rect class="cls-4" x="79.87" width="83.75" height="107.41"/>
      </g>
    </g>
  </g>
</svg>