<svg xmlns="http://www.w3.org/2000/svg" id="Camada_2" data-name="Camada 2" viewBox="0 0 383.3 346.14"><defs><style>      .cls-1 {        fill: #fff;      }    </style></defs><g id="Camada_1-2" data-name="Camada 1"><g><path class="cls-1" d="m383.3,120.8c-1.24,6.33-2.22,12.73-3.77,18.98-2.8,11.33-7.7,21.8-13.67,31.81-1.13,1.89-2.42,2.39-4.49,2.39-29.31-.06-58.63-.07-87.94.02-2.45,0-3.72-.7-4.9-2.91-12.07-22.65-24.26-45.23-36.46-67.81-3.47-6.43-9.63-9.15-15.15-5.98-2.68,1.54-5.05,4.47-6.42,7.32-14.19,29.52-28.14,59.16-42.17,88.76-.62,1.31-1.34,2.56-2.25,4.29-1.94-3.03-3.61-5.62-5.27-8.22-8.24-12.93-16.44-25.88-24.71-38.79-5.8-9.06-15.29-8.96-20.85.2-4.14,6.82-8.27,13.64-12.29,20.53-1.05,1.8-2.17,2.6-4.37,2.59-25.7-.08-51.39-.1-77.09.02-2.49.01-3.46-1.2-4.55-2.99C-20.49,109.43,7.73,37.78,66,10.91c42.14-19.43,81.56-12.02,118.1,15.09,2.49,1.85,4.86,3.87,6.96,5.55,8.15-5.49,15.77-11.38,24.05-16.1,72.02-41.06,152.08,6.96,165.98,75.67.84,4.14,1.47,8.31,2.2,12.47v17.22Z"></path><path class="cls-1" d="m36.77,196.4h4.66c21.45,0,42.9-.09,64.35.06,5.72.04,9.78-2.07,12.56-7.05,2.35-4.21,4.95-8.29,7.66-12.77,9.59,15.05,18.89,29.64,28.18,44.24.94,1.47,1.94,2.91,2.79,4.42,2.52,4.46,6.04,7.33,11.42,6.96,5.38-.37,8.31-3.83,10.42-8.44,4.21-9.17,8.59-18.25,12.9-27.37,10.02-21.15,20.04-42.3,30.35-64.05.89,1.51,1.57,2.59,2.18,3.72,9.39,17.43,18.87,34.82,28.11,52.34,2.96,5.61,7.1,8.06,13.47,8.01,25.19-.18,50.38-.07,75.57-.07,1.35,0,2.71,0,4.97,0-1.34,1.47-2.15,2.44-3.05,3.33-47.46,47.24-94.93,94.48-142.41,141.71-6.27,6.23-12.38,6.25-18.53.12-47.65-47.4-95.3-94.81-142.95-142.23-.75-.75-1.43-1.58-2.66-2.94Z"></path></g></g></svg>