<svg xmlns="http://www.w3.org/2000/svg" xmlns:xlink="http://www.w3.org/1999/xlink" id="Camada_2" data-name="Camada 2" viewBox="0 0 58.48 46.4"><defs><style>      .cls-1 {        fill: url(#Gradiente_sem_nome_7-3);      }      .cls-2, .cls-3 {        fill: #fff;      }      .cls-4 {        fill: url(#Gradiente_sem_nome_7-5);      }      .cls-5 {        fill: url(#Gradiente_sem_nome_7-6);      }      .cls-6 {        fill: #97c21e;      }      .cls-7 {        fill: url(#Gradiente_sem_nome_7-8);      }      .cls-3 {        stroke: #97c21e;        stroke-miterlimit: 10;        stroke-width: .5px;      }      .cls-8 {        fill: url(#Gradiente_sem_nome_7-7);      }      .cls-9 {        fill: url(#Gradiente_sem_nome_7-4);      }      .cls-10 {        fill: url(#Gradiente_sem_nome_7);      }      .cls-11 {        fill: #10618f;      }      .cls-12 {        fill: url(#Gradiente_sem_nome_7-2);      }    </style><linearGradient id="Gradiente_sem_nome_7" data-name="Gradiente sem nome 7" x1="22.97" y1="16.84" x2="35.51" y2="16.84" gradientUnits="userSpaceOnUse"><stop offset="0" stop-color="#a0c522"></stop><stop offset=".13" stop-color="#7ead3a"></stop><stop offset=".32" stop-color="#569058"></stop><stop offset=".51" stop-color="#367a6f"></stop><stop offset=".68" stop-color="#1f6a80"></stop><stop offset=".85" stop-color="#11608a"></stop><stop offset="1" stop-color="#0d5d8e"></stop></linearGradient><linearGradient id="Gradiente_sem_nome_7-2" data-name="Gradiente sem nome 7" x1="26.05" y1="15.45" x2="29" y2="15.45" xlink:href="#Gradiente_sem_nome_7"></linearGradient><linearGradient id="Gradiente_sem_nome_7-3" data-name="Gradiente sem nome 7" x1="29.41" y1="15.84" x2="31.25" y2="15.84" xlink:href="#Gradiente_sem_nome_7"></linearGradient><linearGradient id="Gradiente_sem_nome_7-4" data-name="Gradiente sem nome 7" x1="28.58" y1="16.84" x2="29.91" y2="16.84" xlink:href="#Gradiente_sem_nome_7"></linearGradient><linearGradient id="Gradiente_sem_nome_7-5" data-name="Gradiente sem nome 7" x1="29.05" y1="12.57" x2="29.43" y2="12.57" xlink:href="#Gradiente_sem_nome_7"></linearGradient><linearGradient id="Gradiente_sem_nome_7-6" data-name="Gradiente sem nome 7" x1="29.05" y1="21.11" x2="29.43" y2="21.11" xlink:href="#Gradiente_sem_nome_7"></linearGradient><linearGradient id="Gradiente_sem_nome_7-7" data-name="Gradiente sem nome 7" x1="33.03" y1="16.83" x2="33.99" y2="16.83" xlink:href="#Gradiente_sem_nome_7"></linearGradient><linearGradient id="Gradiente_sem_nome_7-8" data-name="Gradiente sem nome 7" x1="24.49" y1="16.83" x2="25.45" y2="16.83" xlink:href="#Gradiente_sem_nome_7"></linearGradient></defs><g id="Camada_1-2" data-name="Camada 1"><g><path class="cls-2" d="m25.59,0h25.5C55.17,0,58.48,3.31,58.48,7.39v15.5c0,12.98-10.54,23.51-23.51,23.51H6.43C2.88,46.4,0,43.52,0,39.97v-14.38C0,11.47,11.47,0,25.59,0Z"></path><g><path class="cls-11" d="m8.44,26.78v.34h-.47v1.41h-.43v-1.41h-.47v-.34h1.36Z"></path><path class="cls-11" d="m8.92,28.47c-.11-.06-.19-.14-.26-.25s-.09-.24-.09-.38.03-.27.09-.38c.06-.11.15-.19.26-.25.11-.06.23-.09.37-.09s.26.03.37.09c.11.06.2.14.26.25.06.11.09.24.09.38s-.03.27-.1.38c-.06.11-.15.19-.26.25-.11.06-.23.09-.37.09s-.26-.03-.37-.09Zm.58-.37c.06-.06.09-.15.09-.26s-.03-.2-.08-.26c-.06-.06-.12-.09-.21-.09s-.15.03-.21.09c-.06.06-.08.14-.08.26s.03.2.08.26c.05.06.12.09.2.09s.15-.03.21-.09Z"></path><path class="cls-11" d="m12.44,27.28c.1.11.15.25.15.44v.82h-.43v-.76c0-.09-.02-.16-.07-.21-.05-.05-.11-.07-.2-.07s-.15.02-.2.07c-.05.05-.07.12-.07.21v.76h-.43v-.76c0-.09-.02-.16-.07-.21-.05-.05-.11-.07-.2-.07s-.15.02-.2.07c-.05.05-.07.12-.07.21v.76h-.43v-1.4h.43v.17c.04-.06.1-.1.17-.14.07-.03.15-.05.24-.05.1,0,.2.02.28.07.08.04.15.11.19.19.05-.08.11-.14.2-.19.08-.05.17-.07.27-.07.17,0,.31.05.41.16Z"></path><path class="cls-11" d="m14.2,27.94h-.97c0,.09.03.15.08.2.05.05.11.07.18.07.11,0,.18-.04.22-.13h.46c-.02.09-.07.17-.13.25-.06.07-.14.13-.23.17-.09.04-.19.06-.31.06-.14,0-.26-.03-.37-.09-.11-.06-.19-.14-.25-.25-.06-.11-.09-.24-.09-.38s.03-.27.09-.38c.06-.11.14-.19.25-.25.11-.06.23-.09.37-.09s.25.03.36.08c.11.06.19.14.25.24.06.11.09.23.09.37,0,.04,0,.08,0,.12Zm-.43-.24c0-.07-.02-.13-.08-.17-.05-.04-.11-.06-.19-.06-.07,0-.13.02-.18.06-.05.04-.08.1-.09.18h.54Z"></path><path class="cls-11" d="m14.96,27.46c.05-.11.13-.19.22-.25.09-.06.2-.09.31-.09.1,0,.18.02.26.06s.13.09.17.16v-.2h.43v1.4h-.43v-.2c-.04.06-.1.12-.17.16s-.16.06-.26.06c-.11,0-.22-.03-.31-.09-.09-.06-.17-.14-.22-.25-.05-.11-.08-.24-.08-.38s.03-.27.08-.38Zm.88.13c-.06-.06-.13-.09-.22-.09s-.16.03-.22.09c-.06.06-.09.14-.09.25s.03.19.09.25.13.09.22.09.16-.03.22-.09c.06-.06.09-.15.09-.25s-.03-.19-.09-.25Z"></path><path class="cls-11" d="m17.26,27.18c.07-.04.16-.06.26-.06.12,0,.22.03.31.09.09.06.17.14.22.25.05.11.08.23.08.38s-.03.27-.08.38c-.05.11-.13.19-.22.25-.09.06-.2.09-.31.09-.1,0-.18-.02-.26-.06s-.13-.09-.17-.16v.86h-.43v-2.06h.43v.2c.04-.07.1-.12.17-.16Zm.35.4c-.06-.06-.13-.09-.22-.09s-.16.03-.22.09c-.06.06-.09.15-.09.25s.03.19.09.25c.06.06.13.09.22.09s.16-.03.22-.09.09-.15.09-.25-.03-.19-.09-.25Z"></path><path class="cls-11" d="m19.66,27.94h-.97c0,.09.03.15.08.2.05.05.11.07.18.07.11,0,.18-.04.22-.13h.46c-.02.09-.07.17-.13.25-.06.07-.14.13-.23.17-.09.04-.19.06-.31.06-.14,0-.26-.03-.37-.09-.11-.06-.19-.14-.25-.25-.06-.11-.09-.24-.09-.38s.03-.27.09-.38c.06-.11.14-.19.25-.25.11-.06.23-.09.37-.09s.25.03.36.08c.11.06.19.14.25.24.06.11.09.23.09.37,0,.04,0,.08,0,.12Zm-.43-.24c0-.07-.02-.13-.08-.17-.05-.04-.11-.06-.19-.06-.07,0-.13.02-.18.06-.05.04-.08.1-.09.18h.54Z"></path><path class="cls-11" d="m21.14,27.28c.1.11.15.25.15.44v.82h-.43v-.76c0-.09-.02-.17-.07-.22-.05-.05-.11-.08-.2-.08s-.15.03-.19.08c-.05.05-.07.12-.07.22v.76h-.43v-1.4h.43v.19c.04-.06.1-.11.18-.15s.16-.05.25-.05c.16,0,.29.05.39.16Z"></path><path class="cls-11" d="m21.58,27.46c.05-.11.13-.19.22-.25.09-.06.2-.09.31-.09.1,0,.18.02.26.06s.13.09.17.16v-.2h.43v1.4h-.43v-.2c-.04.06-.1.12-.17.16s-.16.06-.26.06c-.11,0-.22-.03-.31-.09-.09-.06-.17-.14-.22-.25-.05-.11-.08-.24-.08-.38s.03-.27.08-.38Zm.88.13c-.06-.06-.13-.09-.22-.09s-.16.03-.22.09c-.06.06-.09.14-.09.25s.03.19.09.25.13.09.22.09.16-.03.22-.09c.06-.06.09-.15.09-.25s-.03-.19-.09-.25Z"></path><path class="cls-11" d="m23.52,28.49c-.09-.04-.17-.1-.22-.17-.06-.07-.09-.15-.09-.24h.42s.03.09.07.12c.04.03.09.04.15.04.05,0,.09-.01.12-.03.03-.02.04-.05.04-.08,0-.04-.02-.07-.06-.09-.04-.02-.11-.04-.2-.06-.1-.02-.18-.05-.25-.07-.07-.03-.12-.07-.17-.12-.05-.06-.07-.13-.07-.23,0-.08.02-.15.07-.22.04-.07.11-.12.2-.16.08-.04.19-.06.31-.06.17,0,.31.04.41.13s.16.2.17.34h-.4s-.03-.09-.06-.12-.08-.04-.14-.04c-.05,0-.09,0-.11.03-.03.02-.04.05-.04.08,0,.04.02.07.06.09.04.02.11.04.2.06.1.03.19.05.25.08.07.03.12.07.17.12.05.06.08.13.08.23,0,.08-.02.15-.07.22s-.11.11-.2.15c-.09.04-.19.05-.3.05-.12,0-.23-.02-.33-.06Z"></path><path class="cls-11" d="m26.58,27.14v1.4h-.43v-.19c-.04.06-.1.11-.18.15-.07.04-.16.06-.25.06-.11,0-.2-.02-.28-.07-.08-.05-.15-.12-.19-.21s-.07-.2-.07-.32v-.82h.42v.76c0,.09.02.17.07.22.05.05.11.08.2.08s.15-.03.2-.08c.05-.05.07-.12.07-.22v-.76h.43Z"></path><path class="cls-11" d="m29.08,27.28c.1.11.15.25.15.44v.82h-.43v-.76c0-.09-.02-.16-.07-.21-.05-.05-.11-.07-.2-.07s-.15.02-.2.07c-.05.05-.07.12-.07.21v.76h-.43v-.76c0-.09-.02-.16-.07-.21-.05-.05-.11-.07-.2-.07s-.15.02-.2.07c-.05.05-.07.12-.07.21v.76h-.43v-1.4h.43v.17c.04-.06.1-.1.17-.14.07-.03.15-.05.24-.05.1,0,.2.02.28.07.08.04.15.11.19.19.05-.08.11-.14.2-.19.08-.05.17-.07.27-.07.17,0,.31.05.41.16Z"></path><path class="cls-11" d="m29.53,27.46c.05-.11.13-.19.22-.25.09-.06.2-.09.31-.09.1,0,.18.02.26.06s.13.09.17.16v-.2h.43v1.4h-.43v-.2c-.04.06-.1.12-.17.16s-.16.06-.26.06c-.11,0-.22-.03-.31-.09-.09-.06-.17-.14-.22-.25-.05-.11-.08-.24-.08-.38s.03-.27.08-.38Zm.88.13c-.06-.06-.13-.09-.22-.09s-.16.03-.22.09c-.06.06-.09.14-.09.25s.03.19.09.25.13.09.22.09.16-.03.22-.09c.06-.06.09-.15.09-.25s-.03-.19-.09-.25Z"></path><path class="cls-11" d="m32.39,28.13l.3-1h.46l-.5,1.4h-.53l-.5-1.4h.46l.3,1Z"></path><path class="cls-11" d="m34.64,27.94h-.97c0,.09.03.15.08.2.05.05.11.07.18.07.11,0,.18-.04.22-.13h.46c-.02.09-.07.17-.13.25-.06.07-.14.13-.23.17-.09.04-.19.06-.31.06-.14,0-.26-.03-.37-.09-.11-.06-.19-.14-.25-.25-.06-.11-.09-.24-.09-.38s.03-.27.09-.38c.06-.11.14-.19.25-.25.11-.06.23-.09.37-.09s.25.03.36.08c.11.06.19.14.25.24.06.11.09.23.09.37,0,.04,0,.08,0,.12Zm-.43-.24c0-.07-.02-.13-.08-.17-.05-.04-.11-.06-.19-.06-.07,0-.13.02-.18.06-.05.04-.08.1-.09.18h.54Z"></path><path class="cls-11" d="m35.27,28.18h.61v.35h-1.08v-.34l.58-.7h-.58v-.35h1.07v.34l-.59.7Z"></path><path class="cls-11" d="m37.24,27.18c.07-.04.16-.06.26-.06.12,0,.22.03.31.09.09.06.17.14.22.25.05.11.08.23.08.38s-.03.27-.08.38c-.05.11-.13.19-.22.25-.09.06-.2.09-.31.09-.1,0-.18-.02-.26-.06s-.13-.09-.17-.16v.86h-.43v-2.06h.43v.2c.04-.07.1-.12.17-.16Zm.35.4c-.06-.06-.13-.09-.22-.09s-.16.03-.22.09c-.06.06-.09.15-.09.25s.03.19.09.25c.06.06.13.09.22.09s.16-.03.22-.09.09-.15.09-.25-.03-.19-.09-.25Z"></path><path class="cls-11" d="m38.6,28.47c-.11-.06-.19-.14-.26-.25s-.09-.24-.09-.38.03-.27.09-.38c.06-.11.15-.19.26-.25.11-.06.23-.09.37-.09s.26.03.37.09c.11.06.2.14.26.25.06.11.09.24.09.38s-.03.27-.1.38c-.06.11-.15.19-.26.25-.11.06-.23.09-.37.09s-.26-.03-.37-.09Zm.58-.37c.06-.06.09-.15.09-.26s-.03-.2-.08-.26c-.06-.06-.12-.09-.21-.09s-.15.03-.21.09c-.06.06-.08.14-.08.26s.03.2.08.26c.05.06.12.09.2.09s.15-.03.21-.09Z"></path><path class="cls-11" d="m40.54,27.19c.08-.04.16-.07.25-.07v.45h-.12c-.11,0-.19.02-.24.07-.05.05-.08.13-.08.24v.65h-.43v-1.4h.43v.23c.05-.08.11-.14.19-.18Z"></path><path class="cls-11" d="m41.53,27.46c.05-.11.13-.19.22-.25.09-.06.2-.09.31-.09.09,0,.18.02.25.06.08.04.13.09.18.15v-.65h.43v1.85h-.43v-.2c-.04.07-.1.12-.17.16s-.16.06-.26.06c-.11,0-.22-.03-.31-.09-.09-.06-.17-.14-.22-.25-.05-.11-.08-.24-.08-.38s.03-.27.08-.38Zm.88.13c-.06-.06-.13-.09-.22-.09s-.16.03-.22.09c-.06.06-.09.14-.09.25s.03.19.09.25.13.09.22.09.16-.03.22-.09c.06-.06.09-.15.09-.25s-.03-.19-.09-.25Z"></path><path class="cls-11" d="m43.26,26.93s-.07-.1-.07-.16.02-.12.07-.17c.05-.04.11-.07.18-.07s.13.02.18.07c.05.04.07.1.07.17s-.02.12-.07.16c-.05.04-.11.07-.18.07s-.14-.02-.18-.07Zm.4.21v1.4h-.43v-1.4h.43Z"></path><path class="cls-11" d="m43.96,27.46c.05-.11.13-.19.22-.25.09-.06.2-.09.31-.09.1,0,.18.02.26.06s.13.09.17.16v-.2h.43v1.4h-.43v-.2c-.04.06-.1.12-.17.16s-.16.06-.26.06c-.11,0-.22-.03-.31-.09-.09-.06-.17-.14-.22-.25-.05-.11-.08-.24-.08-.38s.03-.27.08-.38Zm.88.13c-.06-.06-.13-.09-.22-.09s-.16.03-.22.09c-.06.06-.09.14-.09.25s.03.19.09.25.13.09.22.09.16-.03.22-.09c.06-.06.09-.15.09-.25s-.03-.19-.09-.25Z"></path><path class="cls-11" d="m47.5,27.94h-.97c0,.09.03.15.08.2.05.05.11.07.18.07.11,0,.18-.04.22-.13h.46c-.02.09-.07.17-.13.25-.06.07-.14.13-.23.17-.09.04-.19.06-.31.06-.14,0-.26-.03-.37-.09-.11-.06-.19-.14-.25-.25-.06-.11-.09-.24-.09-.38s.03-.27.09-.38c.06-.11.14-.19.25-.25.11-.06.23-.09.37-.09s.25.03.36.08c.11.06.19.14.25.24.06.11.09.23.09.37,0,.04,0,.08,0,.12Zm-.43-.24c0-.07-.02-.13-.08-.17-.05-.04-.11-.06-.19-.06-.07,0-.13.02-.18.06-.05.04-.08.1-.09.18h.54Z"></path><path class="cls-11" d="m7.8,31.63l.3-1h.46l-.5,1.4h-.53l-.5-1.4h.46l.3,1Z"></path><path class="cls-11" d="m9.01,31.97c-.11-.06-.19-.14-.26-.25s-.09-.24-.09-.38.03-.27.09-.38c.06-.11.15-.19.26-.25.11-.06.23-.09.37-.09s.26.03.37.09c.11.06.2.14.26.25.06.11.09.24.09.38s-.03.27-.1.38c-.06.11-.15.19-.26.25-.11.06-.23.09-.37.09s-.26-.03-.37-.09Zm.58-.37c.06-.06.09-.15.09-.26s-.03-.2-.08-.26c-.06-.06-.12-.09-.21-.09s-.15.03-.21.09c-.06.06-.08.14-.08.26s.03.2.08.26c.05.06.12.09.2.09s.15-.03.21-.09Z"></path><path class="cls-11" d="m10.34,30.96c.06-.11.14-.19.25-.25.11-.06.23-.09.36-.09.18,0,.32.05.44.14.12.09.19.22.23.39h-.46c-.04-.11-.11-.16-.22-.16-.08,0-.14.03-.19.09s-.07.15-.07.26.02.2.07.26.11.09.19.09c.11,0,.18-.05.22-.16h.46c-.04.16-.11.29-.23.38-.12.09-.26.14-.44.14-.14,0-.26-.03-.36-.09-.11-.06-.19-.14-.25-.25-.06-.11-.09-.24-.09-.38s.03-.27.09-.38Z"></path><path class="cls-11" d="m13.15,31.44h-.97c0,.09.03.15.08.2.05.05.11.07.18.07.11,0,.18-.04.22-.13h.46c-.02.09-.07.17-.13.25-.06.07-.14.13-.23.17-.09.04-.19.06-.31.06-.14,0-.26-.03-.37-.09-.11-.06-.19-.14-.25-.25-.06-.11-.09-.24-.09-.38s.03-.27.09-.38c.06-.11.14-.19.25-.25.11-.06.23-.09.37-.09s.25.03.36.08c.11.06.19.14.25.24.06.11.09.23.09.37,0,.04,0,.08,0,.12Zm-.69-1.11l-.39.21v-.29l.39-.2.39.2v.29l-.39-.21Zm.26.87c0-.07-.02-.13-.08-.17-.05-.04-.11-.06-.19-.06-.07,0-.13.02-.18.06-.05.04-.08.1-.09.18h.54Z"></path><path class="cls-11" d="m14.69,31.67v.36h-.22c-.16,0-.28-.04-.36-.11-.09-.08-.13-.2-.13-.37v-.55h-.17v-.36h.17v-.34h.43v.34h.28v.36h-.28v.56s0,.07.03.09c.02.02.05.03.1.03h.15Z"></path><path class="cls-11" d="m16.24,31.44h-.97c0,.09.03.15.08.2.05.05.11.07.18.07.11,0,.18-.04.22-.13h.46c-.02.09-.07.17-.13.25-.06.07-.14.13-.23.17-.09.04-.19.06-.31.06-.14,0-.26-.03-.37-.09-.11-.06-.19-.14-.25-.25-.06-.11-.09-.24-.09-.38s.03-.27.09-.38c.06-.11.14-.19.25-.25.11-.06.23-.09.37-.09s.25.03.36.08c.11.06.19.14.25.24.06.11.09.23.09.37,0,.04,0,.08,0,.12Zm-.43-.24c0-.07-.02-.13-.08-.17-.05-.04-.11-.06-.19-.06-.07,0-.13.02-.18.06-.05.04-.08.1-.09.18h.54Z"></path><path class="cls-11" d="m17.08,30.69c.08-.04.16-.07.25-.07v.45h-.12c-.11,0-.19.02-.24.07-.05.05-.08.13-.08.24v.65h-.43v-1.4h.43v.23c.05-.08.11-.14.19-.18Z"></path><path class="cls-11" d="m17.54,30.96c.05-.11.13-.19.22-.25.09-.06.2-.09.31-.09.1,0,.18.02.26.06s.13.09.17.16v-.2h.43v1.4h-.43v-.2c-.04.06-.1.12-.17.16s-.16.06-.26.06c-.11,0-.22-.03-.31-.09-.09-.06-.17-.14-.22-.25-.05-.11-.08-.24-.08-.38s.03-.27.08-.38Zm.88.13c-.06-.06-.13-.09-.22-.09s-.16.03-.22.09c-.06.06-.09.14-.09.25s.03.19.09.25.13.09.22.09.16-.03.22-.09c.06-.06.09-.15.09-.25s-.03-.19-.09-.25Zm.12-.79l-.6.25v-.29l.6-.29v.33Z"></path><path class="cls-11" d="m20.03,31.97c-.11-.06-.19-.14-.26-.25s-.09-.24-.09-.38.03-.27.09-.38c.06-.11.15-.19.26-.25.11-.06.23-.09.37-.09s.26.03.37.09c.11.06.2.14.26.25.06.11.09.24.09.38s-.03.27-.1.38c-.06.11-.15.19-.26.25-.11.06-.23.09-.37.09s-.26-.03-.37-.09Zm.58-.37c.06-.06.09-.15.09-.26s-.03-.2-.08-.26c-.06-.06-.12-.09-.21-.09s-.15.03-.21.09c-.06.06-.08.14-.08.26s.03.2.08.26c.05.06.12.09.2.09s.15-.03.21-.09Z"></path><path class="cls-11" d="m22.5,30.69c.08-.04.16-.07.25-.07v.45h-.12c-.11,0-.19.02-.24.07-.05.05-.08.13-.08.24v.65h-.43v-1.4h.43v.23c.05-.08.11-.14.19-.18Z"></path><path class="cls-11" d="m24.27,31.44h-.97c0,.09.03.15.08.2.05.05.11.07.18.07.11,0,.18-.04.22-.13h.46c-.02.09-.07.17-.13.25-.06.07-.14.13-.23.17-.09.04-.19.06-.31.06-.14,0-.26-.03-.37-.09-.11-.06-.19-.14-.25-.25-.06-.11-.09-.24-.09-.38s.03-.27.09-.38c.06-.11.14-.19.25-.25.11-.06.23-.09.37-.09s.25.03.36.08c.11.06.19.14.25.24.06.11.09.23.09.37,0,.04,0,.08,0,.12Zm-.43-.24c0-.07-.02-.13-.08-.17-.05-.04-.11-.06-.19-.06-.07,0-.13.02-.18.06-.05.04-.08.1-.09.18h.54Z"></path><path class="cls-11" d="m24.74,31.99c-.09-.04-.17-.1-.22-.17-.06-.07-.09-.15-.09-.24h.42s.03.09.07.12c.04.03.09.04.15.04.05,0,.09-.01.12-.03.03-.02.04-.05.04-.08,0-.04-.02-.07-.06-.09-.04-.02-.11-.04-.2-.06-.1-.02-.18-.05-.25-.07-.07-.03-.12-.07-.17-.12-.05-.06-.07-.13-.07-.23,0-.08.02-.15.07-.22.04-.07.11-.12.2-.16.08-.04.19-.06.31-.06.17,0,.31.04.41.13s.16.2.17.34h-.4s-.03-.09-.06-.12-.08-.04-.14-.04c-.05,0-.09,0-.11.03-.03.02-.04.05-.04.08,0,.04.02.07.06.09.04.02.11.04.2.06.1.03.19.05.25.08.07.03.12.07.17.12.05.06.08.13.08.23,0,.08-.02.15-.07.22s-.11.11-.2.15c-.09.04-.19.05-.3.05-.12,0-.23-.02-.33-.06Z"></path><path class="cls-11" d="m27.27,30.64v1.4h-.43v-.19c-.04.06-.1.11-.18.15-.07.04-.16.06-.25.06-.11,0-.2-.02-.28-.07-.08-.05-.15-.12-.19-.21s-.07-.2-.07-.32v-.82h.42v.76c0,.09.02.17.07.22.05.05.11.08.2.08s.15-.03.2-.08c.05-.05.07-.12.07-.22v-.76h.43Z"></path><path class="cls-11" d="m28.01,30.18v1.85h-.43v-1.85h.43Z"></path><path class="cls-11" d="m29.09,31.67v.36h-.22c-.16,0-.28-.04-.36-.11-.09-.08-.13-.2-.13-.37v-.55h-.17v-.36h.17v-.34h.43v.34h.28v.36h-.28v.56s0,.07.03.09c.02.02.05.03.1.03h.15Z"></path><path class="cls-11" d="m29.33,30.96c.05-.11.13-.19.22-.25.09-.06.2-.09.31-.09.1,0,.18.02.26.06s.13.09.17.16v-.2h.43v1.4h-.43v-.2c-.04.06-.1.12-.17.16s-.16.06-.26.06c-.11,0-.22-.03-.31-.09-.09-.06-.17-.14-.22-.25-.05-.11-.08-.24-.08-.38s.03-.27.08-.38Zm.88.13c-.06-.06-.13-.09-.22-.09s-.16.03-.22.09c-.06.06-.09.14-.09.25s.03.19.09.25.13.09.22.09.16-.03.22-.09c.06-.06.09-.15.09-.25s-.03-.19-.09-.25Z"></path><path class="cls-11" d="m31.03,30.96c.05-.11.13-.19.22-.25.09-.06.2-.09.31-.09.09,0,.18.02.25.06.08.04.13.09.18.15v-.65h.43v1.85h-.43v-.2c-.04.07-.1.12-.17.16s-.16.06-.26.06c-.11,0-.22-.03-.31-.09-.09-.06-.17-.14-.22-.25-.05-.11-.08-.24-.08-.38s.03-.27.08-.38Zm.88.13c-.06-.06-.13-.09-.22-.09s-.16.03-.22.09c-.06.06-.09.14-.09.25s.03.19.09.25.13.09.22.09.16-.03.22-.09c.06-.06.09-.15.09-.25s-.03-.19-.09-.25Z"></path><path class="cls-11" d="m32.99,31.97c-.11-.06-.19-.14-.26-.25s-.09-.24-.09-.38.03-.27.09-.38c.06-.11.15-.19.26-.25.11-.06.23-.09.37-.09s.26.03.37.09c.11.06.2.14.26.25.06.11.09.24.09.38s-.03.27-.1.38c-.06.11-.15.19-.26.25-.11.06-.23.09-.37.09s-.26-.03-.37-.09Zm.58-.37c.06-.06.09-.15.09-.26s-.03-.2-.08-.26c-.06-.06-.12-.09-.21-.09s-.15.03-.21.09c-.06.06-.08.14-.08.26s.03.2.08.26c.05.06.12.09.2.09s.15-.03.21-.09Z"></path><path class="cls-11" d="m36.16,31.44h-.97c0,.09.03.15.08.2.05.05.11.07.18.07.11,0,.18-.04.22-.13h.46c-.02.09-.07.17-.13.25-.06.07-.14.13-.23.17-.09.04-.19.06-.31.06-.14,0-.26-.03-.37-.09-.11-.06-.19-.14-.25-.25-.06-.11-.09-.24-.09-.38s.03-.27.09-.38c.06-.11.14-.19.25-.25.11-.06.23-.09.37-.09s.25.03.36.08c.11.06.19.14.25.24.06.11.09.23.09.37,0,.04,0,.08,0,.12Zm-.43-.24c0-.07-.02-.13-.08-.17-.05-.04-.11-.06-.19-.06-.07,0-.13.02-.18.06-.05.04-.08.1-.09.18h.54Z"></path><path class="cls-11" d="m36.63,31.99c-.09-.04-.17-.1-.22-.17-.06-.07-.09-.15-.09-.24h.42s.03.09.07.12c.04.03.09.04.15.04.05,0,.09-.01.12-.03.03-.02.04-.05.04-.08,0-.04-.02-.07-.06-.09-.04-.02-.11-.04-.2-.06-.1-.02-.18-.05-.25-.07-.07-.03-.12-.07-.17-.12-.05-.06-.07-.13-.07-.23,0-.08.02-.15.07-.22.04-.07.11-.12.2-.16.08-.04.19-.06.31-.06.17,0,.31.04.41.13s.16.2.17.34h-.4s-.03-.09-.06-.12-.08-.04-.14-.04c-.05,0-.09,0-.11.03-.03.02-.04.05-.04.08,0,.04.02.07.06.09.04.02.11.04.2.06.1.03.19.05.25.08.07.03.12.07.17.12.05.06.08.13.08.23,0,.08-.02.15-.07.22s-.11.11-.2.15c-.09.04-.19.05-.3.05-.12,0-.23-.02-.33-.06Z"></path><path class="cls-11" d="m38.38,30.68c.07-.04.16-.06.26-.06.12,0,.22.03.31.09.09.06.17.14.22.25.05.11.08.23.08.38s-.03.27-.08.38c-.05.11-.13.19-.22.25-.09.06-.2.09-.31.09-.1,0-.18-.02-.26-.06s-.13-.09-.17-.16v.86h-.43v-2.06h.43v.2c.04-.07.1-.12.17-.16Zm.35.4c-.06-.06-.13-.09-.22-.09s-.16.03-.22.09c-.06.06-.09.15-.09.25s.03.19.09.25c.06.06.13.09.22.09s.16-.03.22-.09.09-.15.09-.25-.03-.19-.09-.25Z"></path><path class="cls-11" d="m40.79,31.44h-.97c0,.09.03.15.08.2.05.05.11.07.18.07.11,0,.18-.04.22-.13h.46c-.02.09-.07.17-.13.25-.06.07-.14.13-.23.17-.09.04-.19.06-.31.06-.14,0-.26-.03-.37-.09-.11-.06-.19-.14-.25-.25-.06-.11-.09-.24-.09-.38s.03-.27.09-.38c.06-.11.14-.19.25-.25.11-.06.23-.09.37-.09s.25.03.36.08c.11.06.19.14.25.24.06.11.09.23.09.37,0,.04,0,.08,0,.12Zm-.43-.24c0-.07-.02-.13-.08-.17-.05-.04-.11-.06-.19-.06-.07,0-.13.02-.18.06-.05.04-.08.1-.09.18h.54Z"></path><path class="cls-11" d="m41.64,30.69c.08-.04.16-.07.25-.07v.45h-.12c-.11,0-.19.02-.24.07-.05.05-.08.13-.08.24v.65h-.43v-1.4h.43v.23c.05-.08.11-.14.19-.18Z"></path><path class="cls-11" d="m42.09,30.96c.05-.11.13-.19.22-.25.09-.06.2-.09.31-.09.1,0,.18.02.26.06s.13.09.17.16v-.2h.43v1.4h-.43v-.2c-.04.06-.1.12-.17.16s-.16.06-.26.06c-.11,0-.22-.03-.31-.09-.09-.06-.17-.14-.22-.25-.05-.11-.08-.24-.08-.38s.03-.27.08-.38Zm.88.13c-.06-.06-.13-.09-.22-.09s-.16.03-.22.09c-.06.06-.09.14-.09.25s.03.19.09.25.13.09.22.09.16-.03.22-.09c.06-.06.09-.15.09-.25s-.03-.19-.09-.25Z"></path><path class="cls-11" d="m43.79,30.96c.05-.11.13-.19.22-.25.09-.06.2-.09.31-.09.09,0,.18.02.25.06.08.04.13.09.18.15v-.65h.43v1.85h-.43v-.2c-.04.07-.1.12-.17.16s-.16.06-.26.06c-.11,0-.22-.03-.31-.09-.09-.06-.17-.14-.22-.25-.05-.11-.08-.24-.08-.38s.03-.27.08-.38Zm.88.13c-.06-.06-.13-.09-.22-.09s-.16.03-.22.09c-.06.06-.09.14-.09.25s.03.19.09.25.13.09.22.09.16-.03.22-.09c.06-.06.09-.15.09-.25s-.03-.19-.09-.25Z"></path><path class="cls-11" d="m45.75,31.97c-.11-.06-.19-.14-.26-.25s-.09-.24-.09-.38.03-.27.09-.38c.06-.11.15-.19.26-.25.11-.06.23-.09.37-.09s.26.03.37.09c.11.06.2.14.26.25.06.11.09.24.09.38s-.03.27-.1.38c-.06.11-.15.19-.26.25-.11.06-.23.09-.37.09s-.26-.03-.37-.09Zm.58-.37c.06-.06.09-.15.09-.26s-.03-.2-.08-.26c-.06-.06-.12-.09-.21-.09s-.15.03-.21.09c-.06.06-.08.14-.08.26s.03.2.08.26c.05.06.12.09.2.09s.15-.03.21-.09Z"></path><path class="cls-11" d="m47.09,31.99s-.07-.1-.07-.16.02-.12.07-.17c.05-.04.11-.07.18-.07s.13.02.18.07.07.1.07.17-.02.12-.07.16c-.05.04-.11.07-.18.07s-.14-.02-.18-.07Z"></path></g><g><path class="cls-3" d="m1.17,1.09h4.61c3.14,0,5.69,2.55,5.69,5.69h0c0,2.86-2.33,5.19-5.19,5.19h0c-2.82,0-5.11-2.29-5.11-5.11V1.09h0Z"></path><path class="cls-6" d="m6.02,9.11c-.34,0-.68-.05-1.01-.14s-.62-.22-.85-.4l.44-.86c.19.14.4.24.65.33s.5.12.75.12c.28,0,.51-.06.67-.17.16-.12.25-.27.25-.47s-.07-.33-.22-.44-.38-.16-.7-.16h-.51v-.74l1.36-1.56.13.41h-2.57v-.91h3.43v.74l-1.36,1.55-.57-.33h.33c.6,0,1.06.14,1.37.41.31.27.47.62.47,1.04,0,.28-.07.54-.22.79s-.37.44-.67.58-.68.22-1.16.22Z"></path></g><g><path class="cls-10" d="m35.49,16.39c.03.33,0,.55,0,.87,0,.12-.02.2-.02.26-.02.36-.12.7-.21,1.05-.14.52-.37,1-.63,1.46-.3.53-.7,1-1.15,1.42-.45.42-.95.75-1.51,1.02-.16.08-.34.13-.49.21-.23.12-.48.18-.73.24-.36.09-.72.17-1.09.18-.53,0-1.05.02-1.57-.1-.34-.08-.69-.14-1.02-.28-.31-.13-.62-.27-.92-.43-.51-.29-.97-.65-1.38-1.06-.41-.42-.76-.89-1.04-1.41-.09-.17-.16-.35-.24-.52-.08-.17-.16-.34-.21-.52-.12-.38-.2-.77-.26-1.16-.06-.4-.04-.8-.03-1.2,0-.3.07-.61.13-.91.12-.63.36-1.21.67-1.76.44-.78,1.02-1.43,1.74-1.96.66-.49,1.39-.83,2.18-1.04.27-.07.55-.12.84-.14.04,0,.07,0,.09-.05h1.2s.09.05.14.05c.17,0,.35.01.5.06.19.06.4.1.59.16.44.14.86.32,1.26.54.54.3,1.02.68,1.44,1.12.64.67,1.11,1.43,1.41,2.31.13.38.23.77.28,1.17.02.13.02.23.05.42Zm-6.31,5.67c.48.01.92-.04,1.35-.15.52-.13,1-.34,1.46-.62.26-.16.51-.34.74-.55.23-.21.45-.43.63-.68.17-.24.31-.49.47-.73.15-.23.24-.48.33-.73.23-.63.32-1.27.31-1.94,0-.31-.06-.62-.13-.93-.11-.57-.32-1.1-.62-1.59-.26-.41-.55-.79-.91-1.12-.51-.48-1.1-.84-1.75-1.08-.46-.17-.94-.27-1.44-.31-.51-.04-1.02,0-1.51.11-1.11.26-2.05.8-2.8,1.67-.34.39-.61.82-.83,1.29-.21.46-.35.94-.42,1.44-.05.36-.05.73-.03,1.1.02.39.1.78.21,1.15.13.44.33.86.58,1.25.3.47.65.88,1.08,1.23.59.49,1.26.84,2,1.05.43.12.88.18,1.29.16Z"></path><path class="cls-12" d="m28.58,16.84c-.14-.08-.24-.21-.36-.31-.3-.26-.59-.53-.88-.79-.33-.3-.66-.59-.99-.89-.06-.05-.12-.09-.17-.15-.15-.17-.16-.41.02-.58.1-.1.4-.07.53.05.34.31.69.61,1.03.91.27.24.54.49.81.73.15.13.31.26.45.41-.26.13-.39.34-.43.62Z"></path><path class="cls-1" d="m29.41,16.2c.22-.23.44-.45.67-.68.17-.17.34-.34.51-.51.13-.13.27-.14.44-.09.14.05.2.17.22.3.02.12-.03.23-.12.32-.22.22-.44.44-.66.66-.19.2-.37.4-.57.59-.03-.01-.03-.05-.03-.07-.05-.27-.22-.42-.46-.52Z"></path><path class="cls-9" d="m29.41,16.2c.24.09.42.25.46.52,0,.02,0,.06.03.07-.05.08,0,.17-.04.26-.12.26-.31.42-.59.44-.28.03-.57-.18-.66-.48-.02-.06-.02-.12-.03-.18.04-.28.17-.49.43-.62.13-.04.27-.02.41-.02Z"></path><path class="cls-4" d="m29.05,12.55c0-.09,0-.19,0-.28,0-.11.08-.19.18-.19.11,0,.19.07.2.19,0,.2,0,.39,0,.59,0,.1-.12.21-.2.21-.08,0-.17-.11-.18-.21,0,0,0-.02,0-.02,0-.09,0-.19,0-.28,0,0,0,0,0,0Z"></path><path class="cls-5" d="m29.43,21.11c0,.09,0,.18,0,.27,0,.13-.08.21-.19.21-.11,0-.19-.07-.19-.2,0-.19,0-.37,0-.56,0-.13.08-.2.18-.19.12,0,.19.07.2.2,0,.09,0,.19,0,.28Z"></path><path class="cls-8" d="m33.51,16.64c.09,0,.19,0,.28,0,.11,0,.19.07.19.16,0,.13-.07.22-.19.22-.19,0-.38,0-.56,0-.13,0-.19-.07-.19-.18,0-.12.07-.19.2-.2,0,0,.02,0,.02,0,.09,0,.17,0,.26,0Z"></path><path class="cls-7" d="m24.96,17.02c-.09,0-.19,0-.28,0-.12,0-.19-.08-.2-.19,0-.11.07-.19.19-.19.19,0,.38,0,.57,0,.1,0,.2.11.2.2,0,.09-.08.18-.19.18-.1,0-.2,0-.29,0Z"></path></g></g></g></svg>