<svg xmlns="http://www.w3.org/2000/svg" xmlns:xlink="http://www.w3.org/1999/xlink" id="Camada_2" data-name="Camada 2" viewBox="0 0 520.59 92.65"><defs><style>      .cls-1 {        fill: url(#Gradiente_sem_nome_5-5);      }      .cls-2 {        fill: #fff;      }      .cls-3 {        fill: url(#Gradiente_sem_nome_5-4);      }      .cls-4 {        fill: url(#Gradiente_sem_nome_5-6);      }      .cls-5 {        fill: url(#Gradiente_sem_nome_5-3);      }      .cls-6 {        fill: url(#Gradiente_sem_nome_5-7);      }      .cls-7 {        fill: url(#Gradiente_sem_nome_5-8);      }      .cls-8 {        fill: url(#Gradiente_sem_nome_5-2);      }      .cls-9 {        fill: url(#Gradiente_sem_nome_5);      }    </style><linearGradient id="Gradiente_sem_nome_5" data-name="Gradiente sem nome 5" x1="0" y1="44.9" x2="89.17" y2="44.9" gradientUnits="userSpaceOnUse"><stop offset="0" stop-color="#a0cc0d"></stop><stop offset="1" stop-color="#0d5c8c"></stop></linearGradient><linearGradient id="Gradiente_sem_nome_5-2" data-name="Gradiente sem nome 5" x1="96.58" y1="57.23" x2="161.95" y2="57.23" xlink:href="#Gradiente_sem_nome_5"></linearGradient><linearGradient id="Gradiente_sem_nome_5-3" data-name="Gradiente sem nome 5" x1="166.27" y1="48.83" x2="207.34" y2="48.83" xlink:href="#Gradiente_sem_nome_5"></linearGradient><linearGradient id="Gradiente_sem_nome_5-4" data-name="Gradiente sem nome 5" x1="213.51" y1="57.23" x2="279.86" y2="57.23" xlink:href="#Gradiente_sem_nome_5"></linearGradient><linearGradient id="Gradiente_sem_nome_5-5" data-name="Gradiente sem nome 5" x1="400.65" y1="47.18" x2="439.66" y2="47.18" xlink:href="#Gradiente_sem_nome_5"></linearGradient><linearGradient id="Gradiente_sem_nome_5-6" data-name="Gradiente sem nome 5" x1="451.74" y1="47.18" x2="520.59" y2="47.18" xlink:href="#Gradiente_sem_nome_5"></linearGradient><linearGradient id="Gradiente_sem_nome_5-7" data-name="Gradiente sem nome 5" x1="310.85" y1="47.18" x2="400.65" y2="47.18" xlink:href="#Gradiente_sem_nome_5"></linearGradient><linearGradient id="Gradiente_sem_nome_5-8" data-name="Gradiente sem nome 5" x1="355.65" y1="55.87" x2="374.51" y2="55.87" xlink:href="#Gradiente_sem_nome_5"></linearGradient></defs><g id="Camada_1-2" data-name="Camada 1"><g><g><g><path class="cls-9" d="m89.17,47.36c0,26.39-18.38,42.43-42.55,42.43C19.49,89.79,0,69.81,0,45.02S19.86,0,45.27,0c16.53,0,30.46,8.14,37.74,19.73l-8.83,5.06c-4.14,2.38-9.24,1.97-13.13-.79s-9.56-4.76-15.91-4.76c-14.55,0-25.41,10.73-25.41,25.9s10.36,25.41,27.13,25.41c11.47,0,18.99-5.06,22.08-13.32h-23.06v-7.92c0-5.16,4.18-9.35,9.35-9.35h33.95v7.4Z"></path><path class="cls-8" d="m96.58,57.23c0-18.38,14.55-32.56,32.68-32.56s32.68,14.18,32.68,32.56-14.55,32.56-32.68,32.56-32.68-14.18-32.68-32.56Zm46.87,0c0-8.76-6.17-14.55-14.18-14.55s-14.18,5.8-14.18,14.55,6.17,14.55,14.18,14.55,14.18-5.8,14.18-14.55Z"></path><path class="cls-5" d="m194.63,44.16v21.83c0,4.01,2.61,5.27,7.4,5.43,2.95.1,5.31,2.47,5.31,5.42v11.22c-24.17,2.47-31.2-4.81-31.2-22.08v-21.83h-2.95c-3.82,0-6.92-3.1-6.92-6.92v-10.84h9.87v-6.2c0-3.28,2.15-6.17,5.29-7.11l13.21-3.96v17.27h6.31c3.53,0,6.4,2.86,6.4,6.4v11.36h-12.7Z"></path><path class="cls-3" d="m279.86,26.39v51.05c0,5.86-4.75,10.62-10.62,10.62h-7.89v-5.8c-4.07,4.69-10.11,7.52-18.38,7.52-16.16,0-29.48-14.18-29.48-32.56s13.32-32.56,29.48-32.56c8.26,0,14.31,2.84,18.38,7.52h0c0-3.2,2.6-5.8,5.8-5.8h12.7Zm-18.5,30.83c0-9.25-6.17-15.05-14.68-15.05s-14.68,5.8-14.68,15.05,6.17,15.05,14.68,15.05,14.68-5.8,14.68-15.05Z"></path></g><g><path class="cls-2" d="m89.17,47.36c0,26.39-18.38,42.43-42.55,42.43C19.49,89.79,0,69.81,0,45.02S19.86,0,45.27,0c16.53,0,30.46,8.14,37.74,19.73l-8.83,5.06c-4.14,2.38-9.24,1.97-13.13-.79s-9.56-4.76-15.91-4.76c-14.55,0-25.41,10.73-25.41,25.9s10.36,25.41,27.13,25.41c11.47,0,18.99-5.06,22.08-13.32h-23.06v-7.92c0-5.16,4.18-9.35,9.35-9.35h33.95v7.4Z"></path><path class="cls-2" d="m96.58,57.23c0-18.38,14.55-32.56,32.68-32.56s32.68,14.18,32.68,32.56-14.55,32.56-32.68,32.56-32.68-14.18-32.68-32.56Zm46.87,0c0-8.76-6.17-14.55-14.18-14.55s-14.18,5.8-14.18,14.55,6.17,14.55,14.18,14.55,14.18-5.8,14.18-14.55Z"></path><path class="cls-2" d="m194.63,44.16v21.83c0,4.01,2.61,5.27,7.4,5.43,2.95.1,5.31,2.47,5.31,5.42v11.22c-24.17,2.47-31.2-4.81-31.2-22.08v-21.83h-2.95c-3.82,0-6.92-3.1-6.92-6.92v-10.84h9.87v-6.2c0-3.28,2.15-6.17,5.29-7.11l13.21-3.96v17.27h6.31c3.53,0,6.4,2.86,6.4,6.4v11.36h-12.7Z"></path><path class="cls-2" d="m279.86,26.39v51.05c0,5.86-4.75,10.62-10.62,10.62h-7.89v-5.8c-4.07,4.69-10.11,7.52-18.38,7.52-16.16,0-29.48-14.18-29.48-32.56s13.32-32.56,29.48-32.56c8.26,0,14.31,2.84,18.38,7.52h0c0-3.2,2.6-5.8,5.8-5.8h12.7Zm-18.5,30.83c0-9.25-6.17-15.05-14.68-15.05s-14.68,5.8-14.68,15.05,6.17,15.05,14.68,15.05,14.68-5.8,14.68-15.05Z"></path></g></g><g><g><g><path class="cls-1" d="m439.66,4.91v84.55h-12.88c-3.56,0-6.45-2.89-6.45-6.45V25.32l-9.55,2.62c-3.01.82-6.12-.93-6.97-3.93l-3.17-11.13,22.1-7.97h16.91Z"></path><path class="cls-4" d="m451.74,47.18c0-26.09,12.56-43.97,34.42-43.97s34.42,17.88,34.42,43.97-12.56,43.97-34.42,43.97-34.42-17.88-34.42-43.97Zm49.52,0c0-16.31-4.95-25.12-15.1-25.12s-15.1,8.82-15.1,25.12,4.95,25.12,15.1,25.12,15.1-8.82,15.1-25.12Z"></path></g><g><path class="cls-2" d="m439.66,4.91v84.55h-12.88c-3.56,0-6.45-2.89-6.45-6.45V25.32l-9.55,2.62c-3.01.82-6.12-.93-6.97-3.93l-3.17-11.13,22.1-7.97h16.91Z"></path><path class="cls-2" d="m451.74,47.18c0-26.09,12.56-43.97,34.42-43.97s34.42,17.88,34.42,43.97-12.56,43.97-34.42,43.97-34.42-17.88-34.42-43.97Zm49.52,0c0-16.31-4.95-25.12-15.1-25.12s-15.1,8.82-15.1,25.12,4.95,25.12,15.1,25.12,15.1-8.82,15.1-25.12Z"></path></g></g><g><path class="cls-6" d="m400.65,46.61c0-25.41-20.1-44.9-44.9-44.9s-44.9,19.49-44.9,44.9,20.1,44.9,44.9,44.9c7.28,0,14.18-1.73,20.22-4.69l2.56,2.69c3.73,3.93,9.91,4.2,13.97.6l6.91-6.13-8.63-9.13c6.16-7.64,9.87-17.39,9.87-28.24Zm-20.87,7.58c-.25,1.18-.6,2.33-1.03,3.46-1.92,5.05-5.48,9.43-10.03,12.29-5.2,3.27-11.64,4.5-17.67,3.4-4.92-.89-9.54-3.32-13.08-6.82-.04-.04-.07-.07-.11-.11-1.86-1.87-3.41-4.02-4.59-6.37-1.79-3.57-2.68-7.58-2.62-11.57.01-1.11.11-2.21.27-3.31.71-4.73,2.85-9.23,5.99-12.79l.96-1.02,8.86-8.86,8.76-8.76,8.48,8.49,9.61,9.62c.21.22.41.45.62.68,5.24,5.98,7.21,14.17,5.58,21.68Z"></path><path class="cls-2" d="m400.65,46.61c0-25.41-20.1-44.9-44.9-44.9s-44.9,19.49-44.9,44.9,20.1,44.9,44.9,44.9c7.28,0,14.18-1.73,20.22-4.69l2.56,2.69c3.73,3.93,9.91,4.2,13.97.6l6.91-6.13-8.63-9.13c6.16-7.64,9.87-17.39,9.87-28.24Zm-20.87,7.58c-.25,1.18-.6,2.33-1.03,3.46-1.92,5.05-5.48,9.43-10.03,12.29-5.2,3.27-11.64,4.5-17.67,3.4-4.92-.89-9.54-3.32-13.08-6.82-.04-.04-.07-.07-.11-.11-1.86-1.87-3.41-4.02-4.59-6.37-1.79-3.57-2.68-7.58-2.62-11.57.01-1.11.11-2.21.27-3.31.71-4.73,2.85-9.23,5.99-12.79l.96-1.02,8.86-8.86,8.76-8.76,8.48,8.49,9.61,9.62c.21.22.41.45.62.68,5.24,5.98,7.21,14.17,5.58,21.68Z"></path></g><g><path class="cls-7" d="m358.66,68.18c-1.36,0-2.62-.93-2.95-2.36-.35-1.55.66-3.09,2.17-3.59,10.65-3.51,10.59-15.11,10.58-15.6-.03-1.66,1.3-3.04,2.96-3.08h.06c1.64-.02,2.98,1.29,3.02,2.93.14,5.75-2.8,17.67-14.93,21.54-.31.1-.62.14-.92.14Z"></path><path class="cls-2" d="m358.66,68.18c-1.36,0-2.62-.93-2.95-2.36-.35-1.55.66-3.09,2.17-3.59,10.65-3.51,10.59-15.11,10.58-15.6-.03-1.66,1.3-3.04,2.96-3.08h.06c1.64-.02,2.98,1.29,3.02,2.93.14,5.75-2.8,17.67-14.93,21.54-.31.1-.62.14-.92.14Z"></path></g></g></g></g></svg>