<svg xmlns="http://www.w3.org/2000/svg" id="Camada_2" data-name="Camada 2" viewBox="0 0 319.68 297.16"><defs><style>      .cls-1 {        fill: #fff;      }    </style></defs><g id="Camada_1-2" data-name="Camada 1"><g><path class="cls-1" d="m177.3,291.28c-6.13-12.02-12.18-23.88-18.23-35.75-25.41-49.84-50.81-99.67-76.22-149.51-.57-1.11-1.07-2.27-1.8-3.27-2.01-2.76-5.43-3.5-8.3-1.9-2.69,1.5-3.9,4.66-2.82,7.71.5,1.4,1.21,2.73,1.89,4.06,30.44,59.72,60.88,119.43,91.32,179.14.77,1.51,1.52,3.03,1.75,5.4-7.47-2.21-15.07-4.07-22.39-6.69-42.79-15.28-78.05-40.76-104.15-78.2C9.74,171.21-2.96,125.56.58,75.59,2.28,51.55,7.8,28.33,17.66,6.25,20.38.18,22.38-.84,28.75.55c33.51,7.29,63.59,21.82,89.93,43.67,40.51,33.59,65.09,76.69,73.78,128.47,6.68,39.77,1.69,78.49-13.59,115.85-.28.69-.62,1.36-.96,2.02-.1.19-.29.34-.61.72Z"></path><path class="cls-1" d="m190.93,295.03c3.75-12.43,7.46-24.82,11.25-37.18.39-1.27,1.25-2.43,2.01-3.56,8.92-13.23,17.9-26.42,26.76-39.69,1.06-1.59,2.45-3.89,2-5.35-.68-2.2-2.46-4.64-4.45-5.72-2.62-1.42-5.37-.02-7.11,2.5-3.76,5.43-7.44,10.92-11.16,16.38-.76,1.12-1.55,2.21-2.97,3.21.14-1.97.32-3.94.43-5.92,1.38-25.87-1.11-51.31-8.76-76.12-.84-2.72-.46-4.49,1.51-6.57,24.67-26.06,54.86-41.81,89.98-48.36,4.76-.89,9.63-1.33,14.47-1.7,4.91-.37,6.81,1,8.26,5.72,4.89,15.87,6.93,32.15,6.48,48.71-2.06,76.02-53.56,137.8-127.96,153.62-.35.07-.73,0-.73,0Z"></path></g></g></svg>