<svg xmlns="http://www.w3.org/2000/svg" xmlns:xlink="http://www.w3.org/1999/xlink" id="Camada_2" data-name="Camada 2" viewBox="0 0 58.48 46.4"><defs><style>      .cls-1, .cls-2 {        fill: #fff;      }      .cls-2 {        stroke: #97c21e;        stroke-miterlimit: 10;        stroke-width: .5px;      }      .cls-3 {        fill: url(#Gradiente_sem_nome_7);      }      .cls-4 {        fill: #10618f;      }      .cls-5 {        fill: #9fc520;      }    </style><linearGradient id="Gradiente_sem_nome_7" data-name="Gradiente sem nome 7" x1="18.88" y1="14.46" x2="37.15" y2="14.46" gradientUnits="userSpaceOnUse"><stop offset="0" stop-color="#a0c522"></stop><stop offset=".13" stop-color="#7ead3a"></stop><stop offset=".32" stop-color="#569058"></stop><stop offset=".51" stop-color="#367a6f"></stop><stop offset=".68" stop-color="#1f6a80"></stop><stop offset=".85" stop-color="#11608a"></stop><stop offset="1" stop-color="#0d5d8e"></stop></linearGradient></defs><g id="Camada_1-2" data-name="Camada 1"><g><path class="cls-1" d="m25.59,0h25.5C55.17,0,58.48,3.31,58.48,7.39v15.5c0,12.98-10.54,23.51-23.51,23.51H6.43C2.88,46.4,0,43.52,0,39.97v-14.38C0,11.47,11.47,0,25.59,0Z"></path><g><path class="cls-4" d="m6.27,27.19c.07-.14.18-.24.31-.32.13-.08.29-.11.46-.11.21,0,.39.05.54.17s.25.26.3.45h-.47c-.03-.07-.08-.13-.15-.17-.06-.04-.14-.06-.22-.06-.13,0-.24.04-.32.14-.08.09-.12.21-.12.37s.04.28.12.37c.08.09.19.14.32.14.08,0,.15-.02.22-.06s.11-.09.15-.17h.47c-.05.19-.15.34-.3.45s-.33.16-.54.16c-.17,0-.32-.04-.46-.11s-.24-.18-.31-.32c-.08-.13-.11-.29-.11-.46s.04-.33.11-.46Z"></path><path class="cls-4" d="m8.4,28.47c-.11-.06-.19-.14-.26-.25s-.09-.24-.09-.38.03-.27.09-.38c.06-.11.15-.19.26-.25.11-.06.23-.09.37-.09s.26.03.37.09c.11.06.2.14.26.25.06.11.09.24.09.38s-.03.27-.1.38c-.06.11-.15.19-.26.25-.11.06-.23.09-.37.09s-.26-.03-.37-.09Zm.58-.37c.06-.06.09-.15.09-.26s-.03-.2-.08-.26c-.06-.06-.12-.09-.21-.09s-.15.03-.21.09c-.06.06-.08.14-.08.26s.03.2.08.26c.05.06.12.09.2.09s.15-.03.21-.09Z"></path><path class="cls-4" d="m10.15,26.68v1.85h-.43v-1.85h.43Z"></path><path class="cls-4" d="m10.73,28.47c-.11-.06-.19-.14-.26-.25s-.09-.24-.09-.38.03-.27.09-.38c.06-.11.15-.19.26-.25.11-.06.23-.09.37-.09s.26.03.37.09c.11.06.2.14.26.25.06.11.09.24.09.38s-.03.27-.1.38c-.06.11-.15.19-.26.25-.11.06-.23.09-.37.09s-.26-.03-.37-.09Zm.58-.37c.06-.06.09-.15.09-.26s-.03-.2-.08-.26c-.06-.06-.12-.09-.21-.09s-.15.03-.21.09c-.06.06-.08.14-.08.26s.03.2.08.26c.05.06.12.09.2.09s.15-.03.21-.09Z"></path><path class="cls-4" d="m12.06,27.47c.06-.11.13-.19.23-.25.1-.06.2-.09.32-.09.09,0,.17.02.24.05.07.03.13.07.17.13v-.16h.43v2.06h-.43v-.84c-.05.06-.11.1-.18.14s-.15.05-.24.05c-.11,0-.22-.03-.31-.09-.1-.06-.17-.14-.23-.25s-.09-.23-.09-.37.03-.26.09-.37Zm.92.18c-.03-.05-.07-.09-.11-.12-.05-.03-.1-.04-.15-.04s-.1.01-.14.04c-.05.03-.08.07-.12.12-.03.05-.04.11-.04.19s.01.14.04.19.07.09.12.12c.05.03.09.04.14.04s.1-.01.15-.04c.05-.03.09-.06.12-.12s.04-.12.04-.19-.01-.14-.04-.19Z"></path><path class="cls-4" d="m15.13,27.14v1.4h-.43v-.19c-.04.06-.1.11-.18.15-.07.04-.16.06-.25.06-.11,0-.2-.02-.28-.07-.08-.05-.15-.12-.19-.21s-.07-.2-.07-.32v-.82h.42v.76c0,.09.02.17.07.22.05.05.11.08.2.08s.15-.03.2-.08c.05-.05.07-.12.07-.22v-.76h.43Z"></path><path class="cls-4" d="m16.75,27.94h-.97c0,.09.03.15.08.2.05.05.11.07.18.07.11,0,.18-.04.22-.13h.46c-.02.09-.07.17-.13.25-.06.07-.14.13-.23.17-.09.04-.19.06-.31.06-.14,0-.26-.03-.37-.09-.11-.06-.19-.14-.25-.25-.06-.11-.09-.24-.09-.38s.03-.27.09-.38c.06-.11.14-.19.25-.25.11-.06.23-.09.37-.09s.25.03.36.08c.11.06.19.14.25.24.06.11.09.23.09.37,0,.04,0,.08,0,.12Zm-.43-.24c0-.07-.02-.13-.08-.17-.05-.04-.11-.06-.19-.06-.07,0-.13.02-.18.06-.05.04-.08.1-.09.18h.54Z"></path><path class="cls-4" d="m17.42,27.11v-.4h.69v1.83h-.44v-1.43h-.25Z"></path><path class="cls-4" d="m20.64,27.28c.1.11.15.25.15.44v.82h-.43v-.76c0-.09-.02-.16-.07-.21-.05-.05-.11-.07-.2-.07s-.15.02-.2.07c-.05.05-.07.12-.07.21v.76h-.43v-.76c0-.09-.02-.16-.07-.21-.05-.05-.11-.07-.2-.07s-.15.02-.2.07c-.05.05-.07.12-.07.21v.76h-.43v-1.4h.43v.17c.04-.06.1-.1.17-.14.07-.03.15-.05.24-.05.1,0,.2.02.28.07.08.04.15.11.19.19.05-.08.11-.14.2-.19.08-.05.17-.07.27-.07.17,0,.31.05.41.16Z"></path><path class="cls-4" d="m21.52,26.68v1.85h-.43v-1.85h.43Z"></path><path class="cls-4" d="m22.56,28.46c-.09-.24-.13-.51-.13-.79s.05-.55.14-.8.23-.45.4-.61h.42v.04c-.17.17-.31.38-.41.62-.09.24-.14.49-.14.75s.04.5.14.74.22.44.39.62v.04h-.42c-.16-.16-.29-.36-.38-.6Z"></path><path class="cls-4" d="m23.47,27.11v-.4h.69v1.83h-.44v-1.43h-.25Z"></path><path class="cls-4" d="m24.52,28.13c.16-.13.29-.25.39-.33.09-.09.17-.18.24-.27.07-.1.1-.19.1-.28,0-.07-.02-.12-.05-.16-.03-.04-.08-.06-.14-.06s-.11.02-.15.07c-.04.05-.05.11-.05.2h-.41c0-.14.03-.26.09-.36s.13-.17.23-.21c.09-.04.2-.07.31-.07.2,0,.35.05.45.15s.15.23.15.4c0,.18-.06.34-.18.5-.12.15-.28.3-.46.45h.67v.35h-1.25v-.32c.06-.04.08-.07.08-.06Z"></path><path class="cls-4" d="m27.24,27.18c.07.04.13.09.17.16v-.2h.43v1.39c0,.13-.03.25-.08.35-.05.1-.13.19-.23.25-.1.06-.23.09-.39.09-.21,0-.37-.05-.5-.15-.13-.1-.2-.23-.22-.4h.42c.01.05.04.1.09.13.05.03.11.05.19.05.09,0,.16-.03.21-.08s.08-.13.08-.24v-.2c-.04.07-.1.12-.17.16-.07.04-.16.06-.26.06-.11,0-.22-.03-.31-.09-.09-.06-.17-.14-.22-.25-.05-.11-.08-.24-.08-.38s.03-.27.08-.38c.05-.11.13-.19.22-.25.09-.06.2-.09.31-.09.1,0,.18.02.26.06Zm.08.41c-.06-.06-.13-.09-.22-.09s-.16.03-.22.09c-.06.06-.09.14-.09.25s.03.19.09.25.13.09.22.09.16-.03.22-.09c.06-.06.09-.15.09-.25s-.03-.19-.09-.25Z"></path><path class="cls-4" d="m28.42,28.47c-.11-.06-.19-.14-.26-.25s-.09-.24-.09-.38.03-.27.09-.38c.06-.11.15-.19.26-.25.11-.06.23-.09.37-.09s.26.03.37.09c.11.06.2.14.26.25.06.11.09.24.09.38s-.03.27-.1.38c-.06.11-.15.19-.26.25-.11.06-.23.09-.37.09s-.26-.03-.37-.09Zm.58-.37c.06-.06.09-.15.09-.26s-.03-.2-.08-.26c-.06-.06-.12-.09-.21-.09s-.15.03-.21.09c-.06.06-.08.14-.08.26s.03.2.08.26c.05.06.12.09.2.09s.15-.03.21-.09Z"></path><path class="cls-4" d="m30.52,28.17v.36h-.22c-.16,0-.28-.04-.36-.11-.09-.08-.13-.2-.13-.37v-.55h-.17v-.36h.17v-.34h.43v.34h.28v.36h-.28v.56s0,.07.03.09c.02.02.05.03.1.03h.15Z"></path><path class="cls-4" d="m30.76,27.46c.05-.11.13-.19.22-.25.09-.06.2-.09.31-.09.1,0,.18.02.26.06s.13.09.17.16v-.2h.43v1.4h-.43v-.2c-.04.06-.1.12-.17.16s-.16.06-.26.06c-.11,0-.22-.03-.31-.09-.09-.06-.17-.14-.22-.25-.05-.11-.08-.24-.08-.38s.03-.27.08-.38Zm.88.13c-.06-.06-.13-.09-.22-.09s-.16.03-.22.09c-.06.06-.09.14-.09.25s.03.19.09.25.13.09.22.09.16-.03.22-.09c.06-.06.09-.15.09-.25s-.03-.19-.09-.25Z"></path><path class="cls-4" d="m32.7,28.49c-.09-.04-.17-.1-.22-.17-.06-.07-.09-.15-.09-.24h.42s.03.09.07.12c.04.03.09.04.15.04.05,0,.09-.01.12-.03.03-.02.04-.05.04-.08,0-.04-.02-.07-.06-.09-.04-.02-.11-.04-.2-.06-.1-.02-.18-.05-.25-.07-.07-.03-.12-.07-.17-.12-.05-.06-.07-.13-.07-.23,0-.08.02-.15.07-.22.04-.07.11-.12.2-.16.08-.04.19-.06.31-.06.17,0,.31.04.41.13s.16.2.17.34h-.4s-.03-.09-.06-.12-.08-.04-.14-.04c-.05,0-.09,0-.11.03-.03.02-.04.05-.04.08,0,.04.02.07.06.09.04.02.11.04.2.06.1.03.19.05.25.08.07.03.12.07.17.12.05.06.08.13.08.23,0,.08-.02.15-.07.22s-.11.11-.2.15c-.09.04-.19.05-.3.05-.12,0-.23-.02-.33-.06Z"></path><path class="cls-4" d="m33.74,29.06v-.04c.17-.17.3-.38.39-.62s.14-.48.14-.74-.05-.51-.14-.75c-.1-.24-.23-.45-.41-.62v-.04h.42c.17.16.3.36.4.61s.14.52.14.8-.04.55-.13.79c-.09.25-.22.45-.38.6h-.42Z"></path><path class="cls-4" d="m35.57,27.46c.05-.11.13-.19.22-.25.09-.06.2-.09.31-.09.09,0,.18.02.25.06.08.04.13.09.18.15v-.65h.43v1.85h-.43v-.2c-.04.07-.1.12-.17.16s-.16.06-.26.06c-.11,0-.22-.03-.31-.09-.09-.06-.17-.14-.22-.25-.05-.11-.08-.24-.08-.38s.03-.27.08-.38Zm.88.13c-.06-.06-.13-.09-.22-.09s-.16.03-.22.09c-.06.06-.09.14-.09.25s.03.19.09.25.13.09.22.09.16-.03.22-.09c.06-.06.09-.15.09-.25s-.03-.19-.09-.25Z"></path><path class="cls-4" d="m37.54,28.47c-.11-.06-.19-.14-.26-.25s-.09-.24-.09-.38.03-.27.09-.38c.06-.11.15-.19.26-.25.11-.06.23-.09.37-.09s.26.03.37.09c.11.06.2.14.26.25.06.11.09.24.09.38s-.03.27-.1.38c-.06.11-.15.19-.26.25-.11.06-.23.09-.37.09s-.26-.03-.37-.09Zm.58-.37c.06-.06.09-.15.09-.26s-.03-.2-.08-.26c-.06-.06-.12-.09-.21-.09s-.15.03-.21.09c-.06.06-.08.14-.08.26s.03.2.08.26c.05.06.12.09.2.09s.15-.03.21-.09Z"></path><path class="cls-4" d="m39.99,27.18c.07-.04.16-.06.26-.06.12,0,.22.03.31.09.09.06.17.14.22.25.05.11.08.23.08.38s-.03.27-.08.38c-.05.11-.13.19-.22.25-.09.06-.2.09-.31.09-.1,0-.18-.02-.26-.06s-.13-.09-.17-.16v.86h-.43v-2.06h.43v.2c.04-.07.1-.12.17-.16Zm.35.4c-.06-.06-.13-.09-.22-.09s-.16.03-.22.09c-.06.06-.09.15-.09.25s.03.19.09.25c.06.06.13.09.22.09s.16-.03.22-.09.09-.15.09-.25-.03-.19-.09-.25Z"></path><path class="cls-4" d="m41.71,27.19c.08-.04.16-.07.25-.07v.45h-.12c-.11,0-.19.02-.24.07-.05.05-.08.13-.08.24v.65h-.43v-1.4h.43v.23c.05-.08.11-.14.19-.18Z"></path><path class="cls-4" d="m42.43,28.47c-.11-.06-.19-.14-.26-.25s-.09-.24-.09-.38.03-.27.09-.38c.06-.11.15-.19.26-.25.11-.06.23-.09.37-.09s.26.03.37.09c.11.06.2.14.26.25.06.11.09.24.09.38s-.03.27-.1.38c-.06.11-.15.19-.26.25-.11.06-.23.09-.37.09s-.26-.03-.37-.09Zm.58-.37c.06-.06.09-.15.09-.26s-.03-.2-.08-.26c-.06-.06-.12-.09-.21-.09s-.15.03-.21.09c-.06.06-.08.14-.08.26s.03.2.08.26c.05.06.12.09.2.09s.15-.03.21-.09Z"></path><path class="cls-4" d="m43.75,27.46c.05-.11.13-.19.22-.25.09-.06.2-.09.31-.09.09,0,.18.02.25.06.08.04.13.09.18.15v-.65h.43v1.85h-.43v-.2c-.04.07-.1.12-.17.16s-.16.06-.26.06c-.11,0-.22-.03-.31-.09-.09-.06-.17-.14-.22-.25-.05-.11-.08-.24-.08-.38s.03-.27.08-.38Zm.88.13c-.06-.06-.13-.09-.22-.09s-.16.03-.22.09c-.06.06-.09.14-.09.25s.03.19.09.25.13.09.22.09.16-.03.22-.09c.06-.06.09-.15.09-.25s-.03-.19-.09-.25Z"></path><path class="cls-4" d="m46.83,27.14v1.4h-.43v-.19c-.04.06-.1.11-.18.15-.07.04-.16.06-.25.06-.11,0-.2-.02-.28-.07-.08-.05-.15-.12-.19-.21s-.07-.2-.07-.32v-.82h.42v.76c0,.09.02.17.07.22.05.05.11.08.2.08s.15-.03.2-.08c.05-.05.07-.12.07-.22v-.76h.43Z"></path><path class="cls-4" d="m47.91,28.17v.36h-.22c-.16,0-.28-.04-.36-.11-.09-.08-.13-.2-.13-.37v-.55h-.17v-.36h.17v-.34h.43v.34h.28v.36h-.28v.56s0,.07.03.09c.02.02.05.03.1.03h.15Z"></path><path class="cls-4" d="m48.42,28.47c-.11-.06-.19-.14-.26-.25s-.09-.24-.09-.38.03-.27.09-.38c.06-.11.15-.19.26-.25.11-.06.23-.09.37-.09s.26.03.37.09c.11.06.2.14.26.25.06.11.09.24.09.38s-.03.27-.1.38c-.06.11-.15.19-.26.25-.11.06-.23.09-.37.09s-.26-.03-.37-.09Zm.58-.37c.06-.06.09-.15.09-.26s-.03-.2-.08-.26c-.06-.06-.12-.09-.21-.09s-.15.03-.21.09c-.06.06-.08.14-.08.26s.03.2.08.26c.05.06.12.09.2.09s.15-.03.21-.09Z"></path><path class="cls-4" d="m6.22,30.96c.05-.11.13-.19.22-.25.09-.06.2-.09.31-.09.09,0,.18.02.25.06.08.04.13.09.18.15v-.65h.43v1.85h-.43v-.2c-.04.07-.1.12-.17.16s-.16.06-.26.06c-.11,0-.22-.03-.31-.09-.09-.06-.17-.14-.22-.25-.05-.11-.08-.24-.08-.38s.03-.27.08-.38Zm.88.13c-.06-.06-.13-.09-.22-.09s-.16.03-.22.09c-.06.06-.09.14-.09.25s.03.19.09.25.13.09.22.09.16-.03.22-.09c.06-.06.09-.15.09-.25s-.03-.19-.09-.25Z"></path><path class="cls-4" d="m7.96,30.43s-.07-.1-.07-.16.02-.12.07-.17c.05-.04.11-.07.18-.07s.13.02.18.07c.05.04.07.1.07.17s-.02.12-.07.16c-.05.04-.11.07-.18.07s-.14-.02-.18-.07Zm.4.21v1.4h-.43v-1.4h.43Z"></path><path class="cls-4" d="m9.28,30.69c.08-.04.16-.07.25-.07v.45h-.12c-.11,0-.19.02-.24.07-.05.05-.08.13-.08.24v.65h-.43v-1.4h.43v.23c.05-.08.11-.14.19-.18Z"></path><path class="cls-4" d="m11.04,31.44h-.97c0,.09.03.15.08.2.05.05.11.07.18.07.11,0,.18-.04.22-.13h.46c-.02.09-.07.17-.13.25-.06.07-.14.13-.23.17-.09.04-.19.06-.31.06-.14,0-.26-.03-.37-.09-.11-.06-.19-.14-.25-.25-.06-.11-.09-.24-.09-.38s.03-.27.09-.38c.06-.11.14-.19.25-.25.11-.06.23-.09.37-.09s.25.03.36.08c.11.06.19.14.25.24.06.11.09.23.09.37,0,.04,0,.08,0,.12Zm-.43-.24c0-.07-.02-.13-.08-.17-.05-.04-.11-.06-.19-.06-.07,0-.13.02-.18.06-.05.04-.08.1-.09.18h.54Z"></path><path class="cls-4" d="m12.05,31.67v.36h-.22c-.16,0-.28-.04-.36-.11-.09-.08-.13-.2-.13-.37v-.55h-.17v-.36h.17v-.34h.43v.34h.28v.36h-.28v.56s0,.07.03.09c.02.02.05.03.1.03h.15Z"></path><path class="cls-4" d="m12.28,30.96c.05-.11.13-.19.22-.25.09-.06.2-.09.31-.09.1,0,.18.02.26.06s.13.09.17.16v-.2h.43v1.4h-.43v-.2c-.04.06-.1.12-.17.16s-.16.06-.26.06c-.11,0-.22-.03-.31-.09-.09-.06-.17-.14-.22-.25-.05-.11-.08-.24-.08-.38s.03-.27.08-.38Zm.88.13c-.06-.06-.13-.09-.22-.09s-.16.03-.22.09c-.06.06-.09.14-.09.25s.03.19.09.25.13.09.22.09.16-.03.22-.09c.06-.06.09-.15.09-.25s-.03-.19-.09-.25Z"></path><path class="cls-4" d="m16.18,30.78c.1.11.15.25.15.44v.82h-.43v-.76c0-.09-.02-.16-.07-.21-.05-.05-.11-.07-.2-.07s-.15.02-.2.07c-.05.05-.07.12-.07.21v.76h-.43v-.76c0-.09-.02-.16-.07-.21-.05-.05-.11-.07-.2-.07s-.15.02-.2.07c-.05.05-.07.12-.07.21v.76h-.43v-1.4h.43v.17c.04-.06.1-.1.17-.14.07-.03.15-.05.24-.05.1,0,.2.02.28.07.08.04.15.11.19.19.05-.08.11-.14.2-.19.08-.05.17-.07.27-.07.17,0,.31.05.41.16Z"></path><path class="cls-4" d="m17.94,31.44h-.97c0,.09.03.15.08.2.05.05.11.07.18.07.11,0,.18-.04.22-.13h.46c-.02.09-.07.17-.13.25-.06.07-.14.13-.23.17-.09.04-.19.06-.31.06-.14,0-.26-.03-.37-.09-.11-.06-.19-.14-.25-.25-.06-.11-.09-.24-.09-.38s.03-.27.09-.38c.06-.11.14-.19.25-.25.11-.06.23-.09.37-.09s.25.03.36.08c.11.06.19.14.25.24.06.11.09.23.09.37,0,.04,0,.08,0,.12Zm-.43-.24c0-.07-.02-.13-.08-.17-.05-.04-.11-.06-.19-.06-.07,0-.13.02-.18.06-.05.04-.08.1-.09.18h.54Z"></path><path class="cls-4" d="m19.42,30.78c.1.11.15.25.15.44v.82h-.43v-.76c0-.09-.02-.17-.07-.22-.05-.05-.11-.08-.2-.08s-.15.03-.19.08c-.05.05-.07.12-.07.22v.76h-.43v-1.4h.43v.19c.04-.06.1-.11.18-.15s.16-.05.25-.05c.16,0,.29.05.39.16Z"></path><path class="cls-4" d="m20.64,31.67v.36h-.22c-.16,0-.28-.04-.36-.11-.09-.08-.13-.2-.13-.37v-.55h-.17v-.36h.17v-.34h.43v.34h.28v.36h-.28v.56s0,.07.03.09c.02.02.05.03.1.03h.15Z"></path><path class="cls-4" d="m22.18,31.44h-.97c0,.09.03.15.08.2.05.05.11.07.18.07.11,0,.18-.04.22-.13h.46c-.02.09-.07.17-.13.25-.06.07-.14.13-.23.17-.09.04-.19.06-.31.06-.14,0-.26-.03-.37-.09-.11-.06-.19-.14-.25-.25-.06-.11-.09-.24-.09-.38s.03-.27.09-.38c.06-.11.14-.19.25-.25.11-.06.23-.09.37-.09s.25.03.36.08c.11.06.19.14.25.24.06.11.09.23.09.37,0,.04,0,.08,0,.12Zm-.43-.24c0-.07-.02-.13-.08-.17-.05-.04-.11-.06-.19-.06-.07,0-.13.02-.18.06-.05.04-.08.1-.09.18h.54Z"></path><path class="cls-4" d="m24.18,30.78c.1.11.15.25.15.44v.82h-.43v-.76c0-.09-.02-.17-.07-.22-.05-.05-.11-.08-.2-.08s-.15.03-.19.08c-.05.05-.07.12-.07.22v.76h-.43v-1.4h.43v.19c.04-.06.1-.11.18-.15s.16-.05.25-.05c.16,0,.29.05.39.16Z"></path><path class="cls-4" d="m24.63,30.96c.05-.11.13-.19.22-.25.09-.06.2-.09.31-.09.1,0,.18.02.26.06s.13.09.17.16v-.2h.43v1.4h-.43v-.2c-.04.06-.1.12-.17.16s-.16.06-.26.06c-.11,0-.22-.03-.31-.09-.09-.06-.17-.14-.22-.25-.05-.11-.08-.24-.08-.38s.03-.27.08-.38Zm.88.13c-.06-.06-.13-.09-.22-.09s-.16.03-.22.09c-.06.06-.09.14-.09.25s.03.19.09.25.13.09.22.09.16-.03.22-.09c.06-.06.09-.15.09-.25s-.03-.19-.09-.25Z"></path><path class="cls-4" d="m27.1,31.99c-.09-.04-.17-.1-.22-.17-.06-.07-.09-.15-.09-.24h.42s.03.09.07.12c.04.03.09.04.15.04.05,0,.09-.01.12-.03.03-.02.04-.05.04-.08,0-.04-.02-.07-.06-.09-.04-.02-.11-.04-.2-.06-.1-.02-.18-.05-.25-.07-.07-.03-.12-.07-.17-.12-.05-.06-.07-.13-.07-.23,0-.08.02-.15.07-.22.04-.07.11-.12.2-.16.08-.04.19-.06.31-.06.17,0,.31.04.41.13s.16.2.17.34h-.4s-.03-.09-.06-.12-.08-.04-.14-.04c-.05,0-.09,0-.11.03-.03.02-.04.05-.04.08,0,.04.02.07.06.09.04.02.11.04.2.06.1.03.19.05.25.08.07.03.12.07.17.12.05.06.08.13.08.23,0,.08-.02.15-.07.22s-.11.11-.2.15c-.09.04-.19.05-.3.05-.12,0-.23-.02-.33-.06Z"></path><path class="cls-4" d="m29.63,30.64v1.4h-.43v-.19c-.04.06-.1.11-.18.15-.07.04-.16.06-.25.06-.11,0-.2-.02-.28-.07-.08-.05-.15-.12-.19-.21s-.07-.2-.07-.32v-.82h.42v.76c0,.09.02.17.07.22.05.05.11.08.2.08s.15-.03.2-.08c.05-.05.07-.12.07-.22v-.76h.43Z"></path><path class="cls-4" d="m29.93,30.96c.05-.11.13-.19.22-.25.09-.06.2-.09.31-.09.1,0,.18.02.26.06s.13.09.17.16v-.2h.43v1.4h-.43v-.2c-.04.06-.1.12-.17.16s-.16.06-.26.06c-.11,0-.22-.03-.31-.09-.09-.06-.17-.14-.22-.25-.05-.11-.08-.24-.08-.38s.03-.27.08-.38Zm.88.13c-.06-.06-.13-.09-.22-.09s-.16.03-.22.09c-.06.06-.09.14-.09.25s.03.19.09.25.13.09.22.09.16-.03.22-.09c.06-.06.09-.15.09-.25s-.03-.19-.09-.25Z"></path><path class="cls-4" d="m32.76,30.68c.08-.04.16-.06.26-.06.12,0,.22.03.31.09.09.06.17.14.22.25.05.11.08.23.08.38s-.03.27-.08.38c-.05.11-.13.19-.22.25-.09.06-.2.09-.31.09-.1,0-.18-.02-.26-.06s-.13-.09-.17-.16v.2h-.43v-1.85h.43v.65c.04-.07.1-.12.17-.16Zm.35.4c-.06-.06-.13-.09-.22-.09s-.16.03-.22.09c-.06.06-.09.15-.09.25s.03.19.09.25c.06.06.13.09.22.09s.16-.03.22-.09.09-.15.09-.25-.03-.19-.09-.25Z"></path><path class="cls-4" d="m34.13,31.97c-.11-.06-.19-.14-.26-.25s-.09-.24-.09-.38.03-.27.09-.38c.06-.11.15-.19.26-.25.11-.06.23-.09.37-.09s.26.03.37.09c.11.06.2.14.26.25.06.11.09.24.09.38s-.03.27-.1.38c-.06.11-.15.19-.26.25-.11.06-.23.09-.37.09s-.26-.03-.37-.09Zm.58-.37c.06-.06.09-.15.09-.26s-.03-.2-.08-.26c-.06-.06-.12-.09-.21-.09s-.15.03-.21.09c-.06.06-.08.14-.08.26s.03.2.08.26c.05.06.12.09.2.09s.15-.03.21-.09Z"></path><path class="cls-4" d="m35.46,30.96c.06-.11.14-.19.25-.25.11-.06.23-.09.36-.09.18,0,.32.05.44.14.12.09.19.22.23.39h-.46c-.04-.11-.11-.16-.22-.16-.08,0-.14.03-.19.09s-.07.15-.07.26.02.2.07.26.11.09.19.09c.11,0,.18-.05.22-.16h.46c-.04.16-.11.29-.23.38-.12.09-.26.14-.44.14-.14,0-.26-.03-.36-.09-.11-.06-.19-.14-.25-.25-.06-.11-.09-.24-.09-.38s.03-.27.09-.38Z"></path><path class="cls-4" d="m36.96,30.96c.05-.11.13-.19.22-.25.09-.06.2-.09.31-.09.1,0,.18.02.26.06s.13.09.17.16v-.2h.43v1.4h-.43v-.2c-.04.06-.1.12-.17.16s-.16.06-.26.06c-.11,0-.22-.03-.31-.09-.09-.06-.17-.14-.22-.25-.05-.11-.08-.24-.08-.38s.03-.27.08-.38Zm.88.13c-.06-.06-.13-.09-.22-.09s-.16.03-.22.09c-.06.06-.09.14-.09.25s.03.19.09.25.13.09.22.09.16-.03.22-.09c.06-.06.09-.15.09-.25s-.03-.19-.09-.25Z"></path><path class="cls-4" d="m39.12,31.64l-.28.72h-.27l.14-.72h.41Z"></path><path class="cls-4" d="m40.15,31.99c-.09-.04-.17-.1-.22-.17-.06-.07-.09-.15-.09-.24h.42s.03.09.07.12c.04.03.09.04.15.04.05,0,.09-.01.12-.03.03-.02.04-.05.04-.08,0-.04-.02-.07-.06-.09-.04-.02-.11-.04-.2-.06-.1-.02-.18-.05-.25-.07-.07-.03-.12-.07-.17-.12-.05-.06-.07-.13-.07-.23,0-.08.02-.15.07-.22.04-.07.11-.12.2-.16.08-.04.19-.06.31-.06.17,0,.31.04.41.13s.16.2.17.34h-.4s-.03-.09-.06-.12-.08-.04-.14-.04c-.05,0-.09,0-.11.03-.03.02-.04.05-.04.08,0,.04.02.07.06.09.04.02.11.04.2.06.1.03.19.05.25.08.07.03.12.07.17.12.05.06.08.13.08.23,0,.08-.02.15-.07.22s-.11.11-.2.15c-.09.04-.19.05-.3.05-.12,0-.23-.02-.33-.06Z"></path><path class="cls-4" d="m41.57,31.97c-.11-.06-.19-.14-.26-.25s-.09-.24-.09-.38.03-.27.09-.38c.06-.11.15-.19.26-.25.11-.06.23-.09.37-.09s.26.03.37.09c.11.06.2.14.26.25.06.11.09.24.09.38s-.03.27-.1.38c-.06.11-.15.19-.26.25-.11.06-.23.09-.37.09s-.26-.03-.37-.09Zm.58-.37c.06-.06.09-.15.09-.26s-.03-.2-.08-.26c-.06-.06-.12-.09-.21-.09s-.15.03-.21.09c-.06.06-.08.14-.08.26s.03.2.08.26c.05.06.12.09.2.09s.15-.03.21-.09Z"></path><path class="cls-4" d="m43.5,30.68c.08-.04.16-.06.26-.06.12,0,.22.03.31.09.09.06.17.14.22.25.05.11.08.23.08.38s-.03.27-.08.38c-.05.11-.13.19-.22.25-.09.06-.2.09-.31.09-.1,0-.18-.02-.26-.06s-.13-.09-.17-.16v.2h-.43v-1.85h.43v.65c.04-.07.1-.12.17-.16Zm.35.4c-.06-.06-.13-.09-.22-.09s-.16.03-.22.09c-.06.06-.09.15-.09.25s.03.19.09.25c.06.06.13.09.22.09s.16-.03.22-.09.09-.15.09-.25-.03-.19-.09-.25Z"></path><path class="cls-4" d="m45.12,30.96c.05-.11.13-.19.22-.25.09-.06.2-.09.31-.09.1,0,.18.02.26.06s.13.09.17.16v-.2h.43v1.4h-.43v-.2c-.04.06-.1.12-.17.16s-.16.06-.26.06c-.11,0-.22-.03-.31-.09-.09-.06-.17-.14-.22-.25-.05-.11-.08-.24-.08-.38s.03-.27.08-.38Zm.88.13c-.06-.06-.13-.09-.22-.09s-.16.03-.22.09c-.06.06-.09.14-.09.25s.03.19.09.25.13.09.22.09.16-.03.22-.09c.06-.06.09-.15.09-.25s-.03-.19-.09-.25Z"></path><path class="cls-4" d="m6.66,33.68v1.85h-.43v-1.85h.43Z"></path><path class="cls-4" d="m7.5,33.79l-.6.25v-.29l.6-.29v.33Zm-.08.35v1.4h-.43v-1.4h.43Z"></path><path class="cls-4" d="m9.01,34.28c.1.11.15.25.15.44v.82h-.43v-.76c0-.09-.02-.17-.07-.22-.05-.05-.11-.08-.2-.08s-.15.03-.19.08c-.05.05-.07.12-.07.22v.76h-.43v-1.4h.43v.19c.04-.06.1-.11.18-.15s.16-.05.25-.05c.16,0,.29.05.39.16Z"></path><path class="cls-4" d="m10.24,34.18c.07.04.13.09.17.16v-.2h.43v1.39c0,.13-.03.25-.08.35-.05.1-.13.19-.23.25-.1.06-.23.09-.39.09-.21,0-.37-.05-.5-.15-.13-.1-.2-.23-.22-.4h.42c.01.05.04.1.09.13.05.03.11.05.19.05.09,0,.16-.03.21-.08s.08-.13.08-.24v-.2c-.04.07-.1.12-.17.16-.07.04-.16.06-.26.06-.11,0-.22-.03-.31-.09-.09-.06-.17-.14-.22-.25-.05-.11-.08-.24-.08-.38s.03-.27.08-.38c.05-.11.13-.19.22-.25.09-.06.2-.09.31-.09.1,0,.18.02.26.06Zm.08.41c-.06-.06-.13-.09-.22-.09s-.16.03-.22.09c-.06.06-.09.14-.09.25s.03.19.09.25.13.09.22.09.16-.03.22-.09c.06-.06.09-.15.09-.25s-.03-.19-.09-.25Z"></path><path class="cls-4" d="m12.53,34.14v1.4h-.43v-.19c-.04.06-.1.11-.18.15-.07.04-.16.06-.25.06-.11,0-.2-.02-.28-.07-.08-.05-.15-.12-.19-.21s-.07-.2-.07-.32v-.82h.42v.76c0,.09.02.17.07.22.05.05.11.08.2.08s.15-.03.2-.08c.05-.05.07-.12.07-.22v-.76h.43Z"></path><path class="cls-4" d="m12.83,34.46c.05-.11.13-.19.22-.25.09-.06.2-.09.31-.09.1,0,.18.02.26.06s.13.09.17.16v-.2h.43v1.4h-.43v-.2c-.04.06-.1.12-.17.16s-.16.06-.26.06c-.11,0-.22-.03-.31-.09-.09-.06-.17-.14-.22-.25-.05-.11-.08-.24-.08-.38s.03-.27.08-.38Zm.88.13c-.06-.06-.13-.09-.22-.09s-.16.03-.22.09c-.06.06-.09.14-.09.25s.03.19.09.25.13.09.22.09.16-.03.22-.09c.06-.06.09-.15.09-.25s-.03-.19-.09-.25Z"></path><path class="cls-4" d="m15.26,35.46c-.09-.24-.13-.51-.13-.79s.05-.55.14-.8.23-.45.4-.61h.42v.04c-.17.17-.31.38-.41.62-.09.24-.14.49-.14.75s.04.5.14.74.22.44.39.62v.04h-.42c-.16-.16-.29-.36-.38-.6Z"></path><path class="cls-4" d="m16.5,35.49c-.09-.04-.17-.1-.22-.17-.06-.07-.09-.15-.09-.24h.42s.03.09.07.12c.04.03.09.04.15.04.05,0,.09-.01.12-.03.03-.02.04-.05.04-.08,0-.04-.02-.07-.06-.09-.04-.02-.11-.04-.2-.06-.1-.02-.18-.05-.25-.07-.07-.03-.12-.07-.17-.12-.05-.06-.07-.13-.07-.23,0-.08.02-.15.07-.22.04-.07.11-.12.2-.16.08-.04.19-.06.31-.06.17,0,.31.04.41.13s.16.2.17.34h-.4s-.03-.09-.06-.12-.08-.04-.14-.04c-.05,0-.09,0-.11.03-.03.02-.04.05-.04.08,0,.04.02.07.06.09.04.02.11.04.2.06.1.03.19.05.25.08.07.03.12.07.17.12.05.06.08.13.08.23,0,.08-.02.15-.07.22s-.11.11-.2.15c-.09.04-.19.05-.3.05-.12,0-.23-.02-.33-.06Z"></path><path class="cls-4" d="m17.65,34.46c.05-.11.13-.19.22-.25.09-.06.2-.09.31-.09.1,0,.18.02.26.06s.13.09.17.16v-.2h.43v1.4h-.43v-.2c-.04.06-.1.12-.17.16s-.16.06-.26.06c-.11,0-.22-.03-.31-.09-.09-.06-.17-.14-.22-.25-.05-.11-.08-.24-.08-.38s.03-.27.08-.38Zm.88.13c-.06-.06-.13-.09-.22-.09s-.16.03-.22.09c-.06.06-.09.14-.09.25s.03.19.09.25.13.09.22.09.16-.03.22-.09c.06-.06.09-.15.09-.25s-.03-.19-.09-.25Z"></path><path class="cls-4" d="m19.95,34.18c.08-.04.16-.06.26-.06.12,0,.22.03.31.09.09.06.17.14.22.25.05.11.08.23.08.38s-.03.27-.08.38c-.05.11-.13.19-.22.25-.09.06-.2.09-.31.09-.1,0-.18-.02-.26-.06s-.13-.09-.17-.16v.2h-.43v-1.85h.43v.65c.04-.07.1-.12.17-.16Zm.35.4c-.06-.06-.13-.09-.22-.09s-.16.03-.22.09c-.06.06-.09.15-.09.25s.03.19.09.25c.06.06.13.09.22.09s.16-.03.22-.09.09-.15.09-.25-.03-.19-.09-.25Z"></path><path class="cls-4" d="m21.31,35.47c-.11-.06-.19-.14-.26-.25s-.09-.24-.09-.38.03-.27.09-.38c.06-.11.15-.19.26-.25.11-.06.23-.09.37-.09s.26.03.37.09c.11.06.2.14.26.25.06.11.09.24.09.38s-.03.27-.1.38c-.06.11-.15.19-.26.25-.11.06-.23.09-.37.09s-.26-.03-.37-.09Zm.58-.37c.06-.06.09-.15.09-.26s-.03-.2-.08-.26c-.06-.06-.12-.09-.21-.09s-.15.03-.21.09c-.06.06-.08.14-.08.26s.03.2.08.26c.05.06.12.09.2.09s.15-.03.21-.09Z"></path><path class="cls-4" d="m23.25,34.19c.08-.04.16-.07.25-.07v.45h-.12c-.11,0-.19.02-.24.07-.05.05-.08.13-.08.24v.65h-.43v-1.4h.43v.23c.05-.08.11-.14.19-.18Z"></path><path class="cls-4" d="m24.48,35.49c-.09-.04-.17-.1-.22-.17-.06-.07-.09-.15-.09-.24h.42s.03.09.07.12c.04.03.09.04.15.04.05,0,.09-.01.12-.03.03-.02.04-.05.04-.08,0-.04-.02-.07-.06-.09-.04-.02-.11-.04-.2-.06-.1-.02-.18-.05-.25-.07-.07-.03-.12-.07-.17-.12-.05-.06-.07-.13-.07-.23,0-.08.02-.15.07-.22.04-.07.11-.12.2-.16.08-.04.19-.06.31-.06.17,0,.31.04.41.13s.16.2.17.34h-.4s-.03-.09-.06-.12-.08-.04-.14-.04c-.05,0-.09,0-.11.03-.03.02-.04.05-.04.08,0,.04.02.07.06.09.04.02.11.04.2.06.1.03.19.05.25.08.07.03.12.07.17.12.05.06.08.13.08.23,0,.08-.02.15-.07.22s-.11.11-.2.15c-.09.04-.19.05-.3.05-.12,0-.23-.02-.33-.06Z"></path><path class="cls-4" d="m27.01,34.14v1.4h-.43v-.19c-.04.06-.1.11-.18.15-.07.04-.16.06-.25.06-.11,0-.2-.02-.28-.07-.08-.05-.15-.12-.19-.21s-.07-.2-.07-.32v-.82h.42v.76c0,.09.02.17.07.22.05.05.11.08.2.08s.15-.03.2-.08c.05-.05.07-.12.07-.22v-.76h.43Z"></path><path class="cls-4" d="m27.31,34.46c.05-.11.13-.19.22-.25.09-.06.2-.09.31-.09.1,0,.18.02.26.06s.13.09.17.16v-.2h.43v1.4h-.43v-.2c-.04.06-.1.12-.17.16s-.16.06-.26.06c-.11,0-.22-.03-.31-.09-.09-.06-.17-.14-.22-.25-.05-.11-.08-.24-.08-.38s.03-.27.08-.38Zm.88.13c-.06-.06-.13-.09-.22-.09s-.16.03-.22.09c-.06.06-.09.14-.09.25s.03.19.09.25.13.09.22.09.16-.03.22-.09c.06-.06.09-.15.09-.25s-.03-.19-.09-.25Z"></path><path class="cls-4" d="m29.64,35.14l.3-1h.46l-.5,1.4h-.53l-.5-1.4h.46l.3,1Z"></path><path class="cls-4" d="m31.89,34.94h-.97c0,.09.03.15.08.2.05.05.11.07.18.07.11,0,.18-.04.22-.13h.46c-.02.09-.07.17-.13.25-.06.07-.14.13-.23.17-.09.04-.19.06-.31.06-.14,0-.26-.03-.37-.09-.11-.06-.19-.14-.25-.25-.06-.11-.09-.24-.09-.38s.03-.27.09-.38c.06-.11.14-.19.25-.25.11-.06.23-.09.37-.09s.25.03.36.08c.11.06.19.14.25.24.06.11.09.23.09.37,0,.04,0,.08,0,.12Zm-.43-.24c0-.07-.02-.13-.08-.17-.05-.04-.11-.06-.19-.06-.07,0-.13.02-.18.06-.05.04-.08.1-.09.18h.54Z"></path><path class="cls-4" d="m32.65,34.46c.05-.11.13-.19.22-.25.09-.06.2-.09.31-.09.09,0,.18.02.25.06.08.04.13.09.18.15v-.65h.43v1.85h-.43v-.2c-.04.07-.1.12-.17.16s-.16.06-.26.06c-.11,0-.22-.03-.31-.09-.09-.06-.17-.14-.22-.25-.05-.11-.08-.24-.08-.38s.03-.27.08-.38Zm.88.13c-.06-.06-.13-.09-.22-.09s-.16.03-.22.09c-.06.06-.09.14-.09.25s.03.19.09.25.13.09.22.09.16-.03.22-.09c.06-.06.09-.15.09-.25s-.03-.19-.09-.25Z"></path><path class="cls-4" d="m35.66,34.94h-.97c0,.09.03.15.08.2.05.05.11.07.18.07.11,0,.18-.04.22-.13h.46c-.02.09-.07.17-.13.25-.06.07-.14.13-.23.17-.09.04-.19.06-.31.06-.14,0-.26-.03-.37-.09-.11-.06-.19-.14-.25-.25-.06-.11-.09-.24-.09-.38s.03-.27.09-.38c.06-.11.14-.19.25-.25.11-.06.23-.09.37-.09s.25.03.36.08c.11.06.19.14.25.24.06.11.09.23.09.37,0,.04,0,.08,0,.12Zm-.43-.24c0-.07-.02-.13-.08-.17-.05-.04-.11-.06-.19-.06-.07,0-.13.02-.18.06-.05.04-.08.1-.09.18h.54Z"></path><path class="cls-4" d="m36.42,34.46c.05-.11.13-.19.22-.25.09-.06.2-.09.31-.09.1,0,.18.02.26.06s.13.09.17.16v-.2h.43v1.4h-.43v-.2c-.04.06-.1.12-.17.16s-.16.06-.26.06c-.11,0-.22-.03-.31-.09-.09-.06-.17-.14-.22-.25-.05-.11-.08-.24-.08-.38s.03-.27.08-.38Zm.88.13c-.06-.06-.13-.09-.22-.09s-.16.03-.22.09c-.06.06-.09.14-.09.25s.03.19.09.25.13.09.22.09.16-.03.22-.09c.06-.06.09-.15.09-.25s-.03-.19-.09-.25Z"></path><path class="cls-4" d="m38.72,34.18c.08-.04.16-.06.26-.06.12,0,.22.03.31.09.09.06.17.14.22.25.05.11.08.23.08.38s-.03.27-.08.38c-.05.11-.13.19-.22.25-.09.06-.2.09-.31.09-.1,0-.18-.02-.26-.06s-.13-.09-.17-.16v.2h-.43v-1.85h.43v.65c.04-.07.1-.12.17-.16Zm.35.4c-.06-.06-.13-.09-.22-.09s-.16.03-.22.09c-.06.06-.09.15-.09.25s.03.19.09.25c.06.06.13.09.22.09s.16-.03.22-.09.09-.15.09-.25-.03-.19-.09-.25Z"></path><path class="cls-4" d="m39.81,34.46c.05-.11.13-.19.22-.25.09-.06.2-.09.31-.09.1,0,.18.02.26.06s.13.09.17.16v-.2h.43v1.4h-.43v-.2c-.04.06-.1.12-.17.16s-.16.06-.26.06c-.11,0-.22-.03-.31-.09-.09-.06-.17-.14-.22-.25-.05-.11-.08-.24-.08-.38s.03-.27.08-.38Zm.88.13c-.06-.06-.13-.09-.22-.09s-.16.03-.22.09c-.06.06-.09.14-.09.25s.03.19.09.25.13.09.22.09.16-.03.22-.09c.06-.06.09-.15.09-.25s-.03-.19-.09-.25Z"></path><path class="cls-4" d="m41.51,34.46c.06-.11.14-.19.25-.25.11-.06.23-.09.36-.09.18,0,.32.05.44.14.12.09.19.22.23.39h-.46c-.04-.11-.11-.16-.22-.16-.08,0-.14.03-.19.09s-.07.15-.07.26.02.2.07.26.11.09.19.09c.11,0,.18-.05.22-.16h.46c-.04.16-.11.29-.23.38-.12.09-.26.14-.44.14-.14,0-.26-.03-.36-.09-.11-.06-.19-.14-.25-.25-.06-.11-.09-.24-.09-.38s.03-.27.09-.38Z"></path><path class="cls-4" d="m43.02,34.46c.05-.11.13-.19.22-.25.09-.06.2-.09.31-.09.1,0,.18.02.26.06s.13.09.17.16v-.2h.43v1.4h-.43v-.2c-.04.06-.1.12-.17.16s-.16.06-.26.06c-.11,0-.22-.03-.31-.09-.09-.06-.17-.14-.22-.25-.05-.11-.08-.24-.08-.38s.03-.27.08-.38Zm.88.13c-.06-.06-.13-.09-.22-.09s-.16.03-.22.09c-.06.06-.09.14-.09.25s.03.19.09.25.13.09.22.09.16-.03.22-.09c.06-.06.09-.15.09-.25s-.03-.19-.09-.25Z"></path><path class="cls-4" d="m45.5,35.17v.36h-.22c-.16,0-.28-.04-.36-.11-.09-.08-.13-.2-.13-.37v-.55h-.17v-.36h.17v-.34h.43v.34h.28v.36h-.28v.56s0,.07.03.09c.02.02.05.03.1.03h.15Z"></path><path class="cls-4" d="m47.04,34.94h-.97c0,.09.03.15.08.2.05.05.11.07.18.07.11,0,.18-.04.22-.13h.46c-.02.09-.07.17-.13.25-.06.07-.14.13-.23.17-.09.04-.19.06-.31.06-.14,0-.26-.03-.37-.09-.11-.06-.19-.14-.25-.25-.06-.11-.09-.24-.09-.38s.03-.27.09-.38c.06-.11.14-.19.25-.25.11-.06.23-.09.37-.09s.25.03.36.08c.11.06.19.14.25.24.06.11.09.23.09.37,0,.04,0,.08,0,.12Zm-.43-.24c0-.07-.02-.13-.08-.17-.05-.04-.11-.06-.19-.06-.07,0-.13.02-.18.06-.05.04-.08.1-.09.18h.54Z"></path><path class="cls-4" d="m47.16,36.06v-.04c.17-.17.3-.38.39-.62s.14-.48.14-.74-.05-.51-.14-.75c-.1-.24-.23-.45-.41-.62v-.04h.42c.17.16.3.36.4.61s.14.52.14.8-.04.55-.13.79c-.09.25-.22.45-.38.6h-.42Z"></path><path class="cls-4" d="m48.48,35.49s-.07-.1-.07-.16.02-.12.07-.17c.05-.04.11-.07.18-.07s.13.02.18.07.07.1.07.17-.02.12-.07.16c-.05.04-.11.07-.18.07s-.14-.02-.18-.07Z"></path></g><g><path class="cls-2" d="m1.17,1.09h4.61c3.14,0,5.69,2.55,5.69,5.69h0c0,2.86-2.33,5.19-5.19,5.19h0c-2.82,0-5.11-2.29-5.11-5.11V1.09h0Z"></path><path class="cls-5" d="m5.67,9.03v-4.48l.49.49h-1.47v-.91h2.12v4.9h-1.13Z"></path></g><path class="cls-3" d="m37.13,16.05c-.2-1.17-.61-2.27-1.22-3.29-.98-1.65-2.32-2.9-4.12-3.6-.83-.32-1.6-.16-2.27.43-.22.19-.33.2-.55,0-.68-.6-1.46-.76-2.3-.42-.49.2-.95.45-1.46.7-.09-.09-.2-.22-.32-.34-.12-.13-.25-.25-.4-.39.18-.18.35-.33.51-.49.32-.33.32-.74,0-1.06-.3-.31-.61-.62-.92-.92-.33-.32-.75-.32-1.07,0-.16.16-.31.33-.46.5-.07-.07-.11-.1-.15-.14-.42-.42-.84-.85-1.26-1.26-.74-.71-1.92-.39-2.21.59,0,.03-.03.06-.04.09v.5c.1.36.31.64.59.89.24.22.46.45.68.68.16.16.33.32.52.5-.18.17-.35.33-.51.49-.32.32-.32.74-.01,1.06.3.31.61.62.92.92.33.32.75.32,1.08,0,.16-.16.31-.33.45-.47.24.25.46.47.69.69-.81,1.03-1.39,2.2-1.74,3.48-.12.44-.28.88-.19,1.35.16.84.42,1.65.8,2.42,1.5,3.07,4.61,4.95,8.12,4.49,1.59-.21,2.98-.87,4.16-1.95,1.36-1.24,2.19-2.79,2.61-4.57.07-.29.13-.61.09-.89ZM20.07,7.68c-.16-.16-.33-.31-.47-.49-.26-.31-.23-.75.05-1.03.28-.28.75-.33,1.03-.05.49.47.95.96,1.42,1.44-.35.35-.71.71-1.09,1.09-.31-.31-.63-.64-.95-.96Zm2.94,2.96c.38-.38.74-.74,1.08-1.07.61.61,1.22,1.21,1.82,1.82-.04,0-.1,0-.17,0-.57,0-1.14,0-1.71,0-.18,0-.31-.04-.44-.18-.18-.2-.39-.38-.59-.58Zm4.69,2.47c.17.17.24.38.25.63,0,.11.05.24.12.31.3.32.61.62.92.93.18.18.18.39.02.55-.16.15-.36.14-.54-.03-.3-.3-.6-.59-.89-.9-.11-.11-.22-.16-.38-.15-.21.01-.4-.05-.55-.2-.75-.74-1.49-1.49-2.23-2.23-.01-.01-.02-.03-.04-.07.71,0,1.39,0,2.08,0,.06,0,.13.04.17.08.37.36.73.72,1.09,1.08Zm-.37-1.12c.27-.08.48-.15.73-.23,0,.18.01.34,0,.49-.01.13-.23.19-.34.09-.12-.1-.23-.21-.38-.35Zm1.48.92c.28.01.57.01.86,0,.14,0,.27-.06.41-.08.05,0,.1-.01.14,0,.14.03.29.08.43.08.64,0,1.27,0,1.91,0,.08,0,.19.04.25.1.94.83,1.56,1.85,1.9,3.06.03.11.04.24.01.35-.27.98-.73,1.85-1.41,2.61-.01.01-.03.02-.05.04-.24-.24-.48-.47-.72-.71-.04-.04-.05-.12-.05-.18,0-.58,0-1.17,0-1.75-.02-1.54-1.6-2.58-3.02-1.99-.14.06-.22.04-.32-.07-.09-.11-.2-.21-.3-.3-.21-.2-.4-.38-.41-.71,0-.16-.12-.33-.21-.54.07,0,.14,0,.2.02.13.02.25.07.38.08Zm-.18-1.26h1.25c0,.21.01.4,0,.58,0,.05-.11.14-.17.14-.3.01-.61,0-.91,0-.1,0-.17-.05-.17-.16,0-.18,0-.35,0-.57Zm1.8.07c.52.21.99.4,1.47.59,0,.02-.01.05-.02.07-.44,0-.87,0-1.31,0-.05,0-.13-.09-.14-.15-.02-.14,0-.29,0-.5Zm-1.17,7.65c.22,0,.39.17.38.38,0,.2-.18.37-.38.38-.21,0-.38-.17-.38-.39,0-.21.16-.37.37-.37Zm-.32-1.77c.09-.2.2-.39.32-.6.11.21.22.4.31.59.07.15.03.32-.11.41-.13.09-.27.09-.4,0-.13-.09-.19-.26-.13-.41Zm.68-1.08c-.08-.14-.18-.23-.35-.24-.18,0-.29.09-.37.24-.11.2-.22.41-.33.61-.03.05-.09.1-.14.11-.63.11-1.23.32-1.78.65-.02.01-.04.02-.1.05.02-.63,0-1.24.07-1.84.04-.43.32-.76.7-1.01.27.28.54.56.82.83.53.5,1.35.27,1.52-.43.04-.16,0-.33,0-.52.23-.11.49-.16.77-.14.88.07,1.53.78,1.54,1.66,0,.47,0,.95,0,1.46-.61-.36-1.23-.59-1.89-.7-.05,0-.09-.07-.12-.11-.12-.2-.22-.4-.33-.61Zm-3.61,1.66c0,.08-.05.18-.11.24-.21.22-.43.42-.66.65-.1-.12-.21-.24-.31-.37-.52-.66-.89-1.4-1.12-2.21-.03-.1-.05-.22-.03-.31.25-.98.72-1.85,1.39-2.63.52.44.91,1,1.49,1.36-.01.01-.02.04-.04.06-.41.44-.6.96-.6,1.56,0,.55,0,1.11,0,1.66Zm10.56-1.52c-.46,2.09-1.48,3.82-3.25,5.06-1.05.74-2.22,1.14-3.5,1.24-3.48.26-6.23-1.89-7.37-4.73-.23-.58-.39-1.19-.53-1.8-.05-.23.03-.5.09-.75.3-1.28.83-2.45,1.63-3.49.02-.03.05-.05.06-.06.35.35.71.71,1.07,1.07-.12.15-.27.33-.41.52-.5.69-.88,1.45-1.09,2.29-.05.18-.05.4,0,.58.54,1.9,1.64,3.36,3.42,4.26,2.12,1.07,4.65.72,6.45-.86,1.05-.92,1.75-2.05,2.12-3.4.05-.19.06-.41,0-.59-.61-2.11-1.87-3.68-3.95-4.5-1.39-.55-2.8-.52-4.19.03-.13.05-.21.04-.3-.06-.38-.39-.76-.77-1.16-1.17.56-.31,1.08-.66,1.72-.73.47-.05.88.1,1.23.42.44.41.86.41,1.31,0,.5-.45,1.08-.56,1.71-.31,1.69.66,2.93,1.83,3.84,3.36.58.97.96,2.01,1.15,3.12.03.16-.01.34-.05.51Z"></path></g></g></svg>