<svg xmlns="http://www.w3.org/2000/svg" xmlns:xlink="http://www.w3.org/1999/xlink" id="Camada_2" data-name="Camada 2" viewBox="0 0 58.48 46.4"><defs><style>      .cls-1 {        fill: url(#Gradiente_sem_nome_7-3);      }      .cls-2 {        fill: #fff;      }      .cls-3 {        fill: none;        stroke: #97c21e;        stroke-miterlimit: 10;        stroke-width: .5px;      }      .cls-4 {        fill: url(#Gradiente_sem_nome_7-5);      }      .cls-5 {        fill: url(#Gradiente_sem_nome_7-6);      }      .cls-6 {        fill: #97c21e;      }      .cls-7 {        fill: url(#Gradiente_sem_nome_7-8);      }      .cls-8 {        fill: url(#Gradiente_sem_nome_7-7);      }      .cls-9 {        fill: #d81516;      }      .cls-10 {        fill: url(#Gradiente_sem_nome_7-4);      }      .cls-11 {        fill: url(#Gradiente_sem_nome_7);      }      .cls-12 {        fill: #10618f;      }      .cls-13 {        fill: url(#Gradiente_sem_nome_7-10);      }      .cls-14 {        fill: url(#Gradiente_sem_nome_7-9);      }      .cls-15 {        fill: url(#Gradiente_sem_nome_7-2);      }    </style><linearGradient id="Gradiente_sem_nome_7" data-name="Gradiente sem nome 7" x1="23.88" y1="14.54" x2="23.9" y2="14.54" gradientUnits="userSpaceOnUse"><stop offset="0" stop-color="#a0c522"></stop><stop offset=".13" stop-color="#7ead3a"></stop><stop offset=".32" stop-color="#569058"></stop><stop offset=".51" stop-color="#367a6f"></stop><stop offset=".68" stop-color="#1f6a80"></stop><stop offset=".85" stop-color="#11608a"></stop><stop offset="1" stop-color="#0d5d8e"></stop></linearGradient><linearGradient id="Gradiente_sem_nome_7-2" data-name="Gradiente sem nome 7" x1="23.89" y1="16.69" x2="23.9" y2="16.69" xlink:href="#Gradiente_sem_nome_7"></linearGradient><linearGradient id="Gradiente_sem_nome_7-3" data-name="Gradiente sem nome 7" x1="27.19" y1="12.15" x2="27.99" y2="12.15" xlink:href="#Gradiente_sem_nome_7"></linearGradient><linearGradient id="Gradiente_sem_nome_7-4" data-name="Gradiente sem nome 7" x1="27.19" y1="12.15" x2="27.99" y2="12.15" xlink:href="#Gradiente_sem_nome_7"></linearGradient><linearGradient id="Gradiente_sem_nome_7-5" data-name="Gradiente sem nome 7" x1="28.73" y1="11.37" x2="29.52" y2="11.37" xlink:href="#Gradiente_sem_nome_7"></linearGradient><linearGradient id="Gradiente_sem_nome_7-6" data-name="Gradiente sem nome 7" x1="28.73" y1="11.37" x2="29.52" y2="11.37" xlink:href="#Gradiente_sem_nome_7"></linearGradient><linearGradient id="Gradiente_sem_nome_7-7" data-name="Gradiente sem nome 7" x1="30.25" y1="11.87" x2="31.04" y2="11.87" xlink:href="#Gradiente_sem_nome_7"></linearGradient><linearGradient id="Gradiente_sem_nome_7-8" data-name="Gradiente sem nome 7" x1="30.25" y1="11.87" x2="31.04" y2="11.87" xlink:href="#Gradiente_sem_nome_7"></linearGradient><linearGradient id="Gradiente_sem_nome_7-9" data-name="Gradiente sem nome 7" x1="22.1" y1="18.57" x2="39.76" y2="18.57" xlink:href="#Gradiente_sem_nome_7"></linearGradient><linearGradient id="Gradiente_sem_nome_7-10" data-name="Gradiente sem nome 7" x1="23.88" y1="18.87" x2="34.57" y2="18.87" xlink:href="#Gradiente_sem_nome_7"></linearGradient></defs><g id="Camada_1-2" data-name="Camada 1"><g><path class="cls-2" d="m25.59,0h25.5C55.17,0,58.48,3.31,58.48,7.39v15.5c0,12.98-10.54,23.51-23.51,23.51H6.43C2.88,46.4,0,43.52,0,39.97v-14.38C0,11.47,11.47,0,25.59,0Z"></path><g><path class="cls-12" d="m9,28.54h-.43l-.72-1.08v1.08h-.43v-1.75h.43l.72,1.09v-1.09h.43v1.75Z"></path><path class="cls-12" d="m9.3,27.46c.05-.11.13-.19.22-.25.09-.06.2-.09.31-.09.1,0,.18.02.26.06s.13.09.17.16v-.2h.43v1.4h-.43v-.2c-.04.06-.1.12-.17.16s-.16.06-.26.06c-.11,0-.22-.03-.31-.09-.09-.06-.17-.14-.22-.25-.05-.11-.08-.24-.08-.38s.03-.27.08-.38Zm.55-.8s.07,0,.1.02.06.03.1.05c.03.02.05.03.07.04.02,0,.04.01.06.01.06,0,.1-.04.11-.11h.22c-.04.25-.16.37-.34.37-.04,0-.07,0-.1-.02s-.06-.03-.1-.05c-.03-.02-.05-.03-.07-.04-.02,0-.04-.01-.06-.01-.06,0-.1.04-.11.11h-.22c.04-.25.16-.37.34-.37Zm.32.93c-.06-.06-.13-.09-.22-.09s-.16.03-.22.09c-.06.06-.09.14-.09.25s.03.19.09.25.13.09.22.09.16-.03.22-.09c.06-.06.09-.15.09-.25s-.03-.19-.09-.25Z"></path><path class="cls-12" d="m11.27,28.47c-.11-.06-.19-.14-.26-.25s-.09-.24-.09-.38.03-.27.09-.38c.06-.11.15-.19.26-.25.11-.06.23-.09.37-.09s.26.03.37.09c.11.06.2.14.26.25.06.11.09.24.09.38s-.03.27-.1.38c-.06.11-.15.19-.26.25-.11.06-.23.09-.37.09s-.26-.03-.37-.09Zm.58-.37c.06-.06.09-.15.09-.26s-.03-.2-.08-.26c-.06-.06-.12-.09-.21-.09s-.15.03-.21.09c-.06.06-.08.14-.08.26s.03.2.08.26c.05.06.12.09.2.09s.15-.03.21-.09Z"></path><path class="cls-12" d="m13.16,26.93s-.07-.1-.07-.16.02-.12.07-.17c.05-.04.11-.07.18-.07s.13.02.18.07c.05.04.07.1.07.17s-.02.12-.07.16c-.05.04-.11.07-.18.07s-.14-.02-.18-.07Zm.4.21v1.4h-.43v-1.4h.43Z"></path><path class="cls-12" d="m15.11,27.28c.1.11.15.25.15.44v.82h-.43v-.76c0-.09-.02-.17-.07-.22-.05-.05-.11-.08-.2-.08s-.15.03-.19.08c-.05.05-.07.12-.07.22v.76h-.43v-1.4h.43v.19c.04-.06.1-.11.18-.15s.16-.05.25-.05c.16,0,.29.05.39.16Z"></path><path class="cls-12" d="m16.34,27.18c.07.04.13.09.17.16v-.2h.43v1.39c0,.13-.03.25-.08.35-.05.1-.13.19-.23.25-.1.06-.23.09-.39.09-.21,0-.37-.05-.5-.15-.13-.1-.2-.23-.22-.4h.42c.01.05.04.1.09.13.05.03.11.05.19.05.09,0,.16-.03.21-.08s.08-.13.08-.24v-.2c-.04.07-.1.12-.17.16-.07.04-.16.06-.26.06-.11,0-.22-.03-.31-.09-.09-.06-.17-.14-.22-.25-.05-.11-.08-.24-.08-.38s.03-.27.08-.38c.05-.11.13-.19.22-.25.09-.06.2-.09.31-.09.1,0,.18.02.26.06Zm.08.41c-.06-.06-.13-.09-.22-.09s-.16.03-.22.09c-.06.06-.09.14-.09.25s.03.19.09.25.13.09.22.09.16-.03.22-.09c.06-.06.09-.15.09-.25s-.03-.19-.09-.25Z"></path><path class="cls-12" d="m18.56,27.94h-.97c0,.09.03.15.08.2.05.05.11.07.18.07.11,0,.18-.04.22-.13h.46c-.02.09-.07.17-.13.25-.06.07-.14.13-.23.17-.09.04-.19.06-.31.06-.14,0-.26-.03-.37-.09-.11-.06-.19-.14-.25-.25-.06-.11-.09-.24-.09-.38s.03-.27.09-.38c.06-.11.14-.19.25-.25.11-.06.23-.09.37-.09s.25.03.36.08c.11.06.19.14.25.24.06.11.09.23.09.37,0,.04,0,.08,0,.12Zm-.43-.24c0-.07-.02-.13-.08-.17-.05-.04-.11-.06-.19-.06-.07,0-.13.02-.18.06-.05.04-.08.1-.09.18h.54Z"></path><path class="cls-12" d="m19.4,27.19c.08-.04.16-.07.25-.07v.45h-.12c-.11,0-.19.02-.24.07-.05.05-.08.13-.08.24v.65h-.43v-1.4h.43v.23c.05-.08.11-.14.19-.18Z"></path><path class="cls-12" d="m19.89,26.93s-.07-.1-.07-.16.02-.12.07-.17c.05-.04.11-.07.18-.07s.13.02.18.07c.05.04.07.1.07.17s-.02.12-.07.16c-.05.04-.11.07-.18.07s-.14-.02-.18-.07Zm.4.21v1.4h-.43v-1.4h.43Z"></path><path class="cls-12" d="m21.21,27.19c.08-.04.16-.07.25-.07v.45h-.12c-.11,0-.19.02-.24.07-.05.05-.08.13-.08.24v.65h-.43v-1.4h.43v.23c.05-.08.11-.14.19-.18Z"></path><path class="cls-12" d="m22.2,27.46c.06-.11.14-.19.25-.25.11-.06.23-.09.36-.09.18,0,.32.05.44.14.12.09.19.22.23.39h-.46c-.04-.11-.11-.16-.22-.16-.08,0-.14.03-.19.09s-.07.15-.07.26.02.2.07.26.11.09.19.09c.11,0,.18-.05.22-.16h.46c-.04.16-.11.29-.23.38-.12.09-.26.14-.44.14-.14,0-.26-.03-.36-.09-.11-.06-.19-.14-.25-.25-.06-.11-.09-.24-.09-.38s.03-.27.09-.38Z"></path><path class="cls-12" d="m23.97,28.47c-.11-.06-.19-.14-.26-.25s-.09-.24-.09-.38.03-.27.09-.38c.06-.11.15-.19.26-.25.11-.06.23-.09.37-.09s.26.03.37.09c.11.06.2.14.26.25.06.11.09.24.09.38s-.03.27-.1.38c-.06.11-.15.19-.26.25-.11.06-.23.09-.37.09s-.26-.03-.37-.09Zm.58-.37c.06-.06.09-.15.09-.26s-.03-.2-.08-.26c-.06-.06-.12-.09-.21-.09s-.15.03-.21.09c-.06.06-.08.14-.08.26s.03.2.08.26c.05.06.12.09.2.09s.15-.03.21-.09Z"></path><path class="cls-12" d="m27.49,27.28c.1.11.15.25.15.44v.82h-.43v-.76c0-.09-.02-.16-.07-.21-.05-.05-.11-.07-.2-.07s-.15.02-.2.07c-.05.05-.07.12-.07.21v.76h-.43v-.76c0-.09-.02-.16-.07-.21-.05-.05-.11-.07-.2-.07s-.15.02-.2.07c-.05.05-.07.12-.07.21v.76h-.43v-1.4h.43v.17c.04-.06.1-.1.17-.14.07-.03.15-.05.24-.05.1,0,.2.02.28.07.08.04.15.11.19.19.05-.08.11-.14.2-.19.08-.05.17-.07.27-.07.17,0,.31.05.41.16Z"></path><path class="cls-12" d="m29.08,27.18c.08-.04.16-.06.26-.06.12,0,.22.03.31.09.09.06.17.14.22.25.05.11.08.23.08.38s-.03.27-.08.38c-.05.11-.13.19-.22.25-.09.06-.2.09-.31.09-.1,0-.18-.02-.26-.06s-.13-.09-.17-.16v.2h-.43v-1.85h.43v.65c.04-.07.1-.12.17-.16Zm.35.4c-.06-.06-.13-.09-.22-.09s-.16.03-.22.09c-.06.06-.09.15-.09.25s.03.19.09.25c.06.06.13.09.22.09s.16-.03.22-.09.09-.15.09-.25-.03-.19-.09-.25Z"></path><path class="cls-12" d="m31.48,27.94h-.97c0,.09.03.15.08.2.05.05.11.07.18.07.11,0,.18-.04.22-.13h.46c-.02.09-.07.17-.13.25-.06.07-.14.13-.23.17-.09.04-.19.06-.31.06-.14,0-.26-.03-.37-.09-.11-.06-.19-.14-.25-.25-.06-.11-.09-.24-.09-.38s.03-.27.09-.38c.06-.11.14-.19.25-.25.11-.06.23-.09.37-.09s.25.03.36.08c.11.06.19.14.25.24.06.11.09.23.09.37,0,.04,0,.08,0,.12Zm-.43-.24c0-.07-.02-.13-.08-.17-.05-.04-.11-.06-.19-.06-.07,0-.13.02-.18.06-.05.04-.08.1-.09.18h.54Z"></path><path class="cls-12" d="m32.31,27.18c.08-.04.16-.06.26-.06.12,0,.22.03.31.09.09.06.17.14.22.25.05.11.08.23.08.38s-.03.27-.08.38c-.05.11-.13.19-.22.25-.09.06-.2.09-.31.09-.1,0-.18-.02-.26-.06s-.13-.09-.17-.16v.2h-.43v-1.85h.43v.65c.04-.07.1-.12.17-.16Zm.35.4c-.06-.06-.13-.09-.22-.09s-.16.03-.22.09c-.06.06-.09.15-.09.25s.03.19.09.25c.06.06.13.09.22.09s.16-.03.22-.09.09-.15.09-.25-.03-.19-.09-.25Z"></path><path class="cls-12" d="m33.44,26.93s-.07-.1-.07-.16.02-.12.07-.17c.05-.04.11-.07.18-.07s.13.02.18.07c.05.04.07.1.07.17s-.02.12-.07.16c-.05.04-.11.07-.18.07s-.14-.02-.18-.07Zm.4.21v1.4h-.43v-1.4h.43Z"></path><path class="cls-12" d="m34.15,27.46c.05-.11.13-.19.22-.25.09-.06.2-.09.31-.09.09,0,.18.02.25.06.08.04.13.09.18.15v-.65h.43v1.85h-.43v-.2c-.04.07-.1.12-.17.16s-.16.06-.26.06c-.11,0-.22-.03-.31-.09-.09-.06-.17-.14-.22-.25-.05-.11-.08-.24-.08-.38s.03-.27.08-.38Zm.88.13c-.06-.06-.13-.09-.22-.09s-.16.03-.22.09c-.06.06-.09.14-.09.25s.03.19.09.25.13.09.22.09.16-.03.22-.09c.06-.06.09-.15.09-.25s-.03-.19-.09-.25Z"></path><path class="cls-12" d="m35.84,27.46c.05-.11.13-.19.22-.25.09-.06.2-.09.31-.09.1,0,.18.02.26.06s.13.09.17.16v-.2h.43v1.4h-.43v-.2c-.04.06-.1.12-.17.16s-.16.06-.26.06c-.11,0-.22-.03-.31-.09-.09-.06-.17-.14-.22-.25-.05-.11-.08-.24-.08-.38s.03-.27.08-.38Zm.88.13c-.06-.06-.13-.09-.22-.09s-.16.03-.22.09c-.06.06-.09.14-.09.25s.03.19.09.25.13.09.22.09.16-.03.22-.09c.06-.06.09-.15.09-.25s-.03-.19-.09-.25Z"></path><path class="cls-12" d="m37.79,28.49c-.09-.04-.17-.1-.22-.17-.06-.07-.09-.15-.09-.24h.42s.03.09.07.12c.04.03.09.04.15.04.05,0,.09-.01.12-.03.03-.02.04-.05.04-.08,0-.04-.02-.07-.06-.09-.04-.02-.11-.04-.2-.06-.1-.02-.18-.05-.25-.07-.07-.03-.12-.07-.17-.12-.05-.06-.07-.13-.07-.23,0-.08.02-.15.07-.22.04-.07.11-.12.2-.16.08-.04.19-.06.31-.06.17,0,.31.04.41.13s.16.2.17.34h-.4s-.03-.09-.06-.12-.08-.04-.14-.04c-.05,0-.09,0-.11.03-.03.02-.04.05-.04.08,0,.04.02.07.06.09.04.02.11.04.2.06.1.03.19.05.25.08.07.03.12.07.17.12.05.06.08.13.08.23,0,.08-.02.15-.07.22s-.11.11-.2.15c-.09.04-.19.05-.3.05-.12,0-.23-.02-.33-.06Z"></path><path class="cls-12" d="m39.47,27.47c.06-.11.13-.19.23-.25.1-.06.2-.09.32-.09.09,0,.17.02.24.05.07.03.13.07.17.13v-.16h.43v2.06h-.43v-.84c-.05.06-.11.1-.18.14s-.15.05-.24.05c-.11,0-.22-.03-.31-.09-.1-.06-.17-.14-.23-.25s-.09-.23-.09-.37.03-.26.09-.37Zm.92.18c-.03-.05-.07-.09-.11-.12-.05-.03-.1-.04-.15-.04s-.1.01-.14.04c-.05.03-.08.07-.12.12-.03.05-.04.11-.04.19s.01.14.04.19.07.09.12.12c.05.03.09.04.14.04s.1-.01.15-.04c.05-.03.09-.06.12-.12s.04-.12.04-.19-.01-.14-.04-.19Z"></path><path class="cls-12" d="m42.55,27.14v1.4h-.43v-.19c-.04.06-.1.11-.18.15-.07.04-.16.06-.25.06-.11,0-.2-.02-.28-.07-.08-.05-.15-.12-.19-.21s-.07-.2-.07-.32v-.82h.42v.76c0,.09.02.17.07.22.05.05.11.08.2.08s.15-.03.2-.08c.05-.05.07-.12.07-.22v-.76h.43Z"></path><path class="cls-12" d="m44.16,27.94h-.97c0,.09.03.15.08.2.05.05.11.07.18.07.11,0,.18-.04.22-.13h.46c-.02.09-.07.17-.13.25-.06.07-.14.13-.23.17-.09.04-.19.06-.31.06-.14,0-.26-.03-.37-.09-.11-.06-.19-.14-.25-.25-.06-.11-.09-.24-.09-.38s.03-.27.09-.38c.06-.11.14-.19.25-.25.11-.06.23-.09.37-.09s.25.03.36.08c.11.06.19.14.25.24.06.11.09.23.09.37,0,.04,0,.08,0,.12Zm-.43-.24c0-.07-.02-.13-.08-.17-.05-.04-.11-.06-.19-.06-.07,0-.13.02-.18.06-.05.04-.08.1-.09.18h.54Z"></path><path class="cls-12" d="m45.63,27.28c.1.11.15.25.15.44v.82h-.43v-.76c0-.09-.02-.17-.07-.22-.05-.05-.11-.08-.2-.08s-.15.03-.19.08c-.05.05-.07.12-.07.22v.76h-.43v-1.4h.43v.19c.04-.06.1-.11.18-.15s.16-.05.25-.05c.16,0,.29.05.39.16Z"></path><path class="cls-12" d="m46.86,28.17v.36h-.22c-.16,0-.28-.04-.36-.11-.09-.08-.13-.2-.13-.37v-.55h-.17v-.36h.17v-.34h.43v.34h.28v.36h-.28v.56s0,.07.03.09c.02.02.05.03.1.03h.15Z"></path><path class="cls-12" d="m48.4,27.94h-.97c0,.09.03.15.08.2.05.05.11.07.18.07.11,0,.18-.04.22-.13h.46c-.02.09-.07.17-.13.25-.06.07-.14.13-.23.17-.09.04-.19.06-.31.06-.14,0-.26-.03-.37-.09-.11-.06-.19-.14-.25-.25-.06-.11-.09-.24-.09-.38s.03-.27.09-.38c.06-.11.14-.19.25-.25.11-.06.23-.09.37-.09s.25.03.36.08c.11.06.19.14.25.24.06.11.09.23.09.37,0,.04,0,.08,0,.12Zm-.43-.24c0-.07-.02-.13-.08-.17-.05-.04-.11-.06-.19-.06-.07,0-.13.02-.18.06-.05.04-.08.1-.09.18h.54Z"></path><path class="cls-12" d="m48.88,28.49c-.09-.04-.17-.1-.22-.17-.06-.07-.09-.15-.09-.24h.42s.03.09.07.12c.04.03.09.04.15.04.05,0,.09-.01.12-.03.03-.02.04-.05.04-.08,0-.04-.02-.07-.06-.09-.04-.02-.11-.04-.2-.06-.1-.02-.18-.05-.25-.07-.07-.03-.12-.07-.17-.12-.05-.06-.07-.13-.07-.23,0-.08.02-.15.07-.22.04-.07.11-.12.2-.16.08-.04.19-.06.31-.06.17,0,.31.04.41.13s.16.2.17.34h-.4s-.03-.09-.06-.12-.08-.04-.14-.04c-.05,0-.09,0-.11.03-.03.02-.04.05-.04.08,0,.04.02.07.06.09.04.02.11.04.2.06.1.03.19.05.25.08.07.03.12.07.17.12.05.06.08.13.08.23,0,.08-.02.15-.07.22s-.11.11-.2.15c-.09.04-.19.05-.3.05-.12,0-.23-.02-.33-.06Z"></path><path class="cls-12" d="m7.69,31.97c-.11-.06-.19-.14-.26-.25s-.09-.24-.09-.38.03-.27.09-.38c.06-.11.15-.19.26-.25.11-.06.23-.09.37-.09s.26.03.37.09c.11.06.2.14.26.25.06.11.09.24.09.38s-.03.27-.1.38c-.06.11-.15.19-.26.25-.11.06-.23.09-.37.09s-.26-.03-.37-.09Zm.58-.37c.06-.06.09-.15.09-.26s-.03-.2-.08-.26c-.06-.06-.12-.09-.21-.09s-.15.03-.21.09c-.06.06-.08.14-.08.26s.03.2.08.26c.05.06.12.09.2.09s.15-.03.21-.09Z"></path><path class="cls-12" d="m10.4,30.64v1.4h-.43v-.19c-.04.06-.1.11-.18.15-.07.04-.16.06-.25.06-.11,0-.2-.02-.28-.07-.08-.05-.15-.12-.19-.21s-.07-.2-.07-.32v-.82h.42v.76c0,.09.02.17.07.22.05.05.11.08.2.08s.15-.03.2-.08c.05-.05.07-.12.07-.22v-.76h.43Z"></path><path class="cls-12" d="m12.02,30.68c.07.04.13.09.17.16v-.2h.43v1.39c0,.13-.03.25-.08.35-.05.1-.13.19-.23.25-.1.06-.23.09-.39.09-.21,0-.37-.05-.5-.15-.13-.1-.2-.23-.22-.4h.42c.01.05.04.1.09.13.05.03.11.05.19.05.09,0,.16-.03.21-.08s.08-.13.08-.24v-.2c-.04.07-.1.12-.17.16-.07.04-.16.06-.26.06-.11,0-.22-.03-.31-.09-.09-.06-.17-.14-.22-.25-.05-.11-.08-.24-.08-.38s.03-.27.08-.38c.05-.11.13-.19.22-.25.09-.06.2-.09.31-.09.1,0,.18.02.26.06Zm.08.41c-.06-.06-.13-.09-.22-.09s-.16.03-.22.09c-.06.06-.09.14-.09.25s.03.19.09.25.13.09.22.09.16-.03.22-.09c.06-.06.09-.15.09-.25s-.03-.19-.09-.25Z"></path><path class="cls-12" d="m14.24,31.44h-.97c0,.09.03.15.08.2.05.05.11.07.18.07.11,0,.18-.04.22-.13h.46c-.02.09-.07.17-.13.25-.06.07-.14.13-.23.17-.09.04-.19.06-.31.06-.14,0-.26-.03-.37-.09-.11-.06-.19-.14-.25-.25-.06-.11-.09-.24-.09-.38s.03-.27.09-.38c.06-.11.14-.19.25-.25.11-.06.23-.09.37-.09s.25.03.36.08c.11.06.19.14.25.24.06.11.09.23.09.37,0,.04,0,.08,0,.12Zm-.43-.24c0-.07-.02-.13-.08-.17-.05-.04-.11-.06-.19-.06-.07,0-.13.02-.18.06-.05.04-.08.1-.09.18h.54Z"></path><path class="cls-12" d="m14.9,30.18v1.85h-.43v-1.85h.43Z"></path><path class="cls-12" d="m15.21,30.96c.05-.11.13-.19.22-.25.09-.06.2-.09.31-.09.1,0,.18.02.26.06s.13.09.17.16v-.2h.43v1.4h-.43v-.2c-.04.06-.1.12-.17.16s-.16.06-.26.06c-.11,0-.22-.03-.31-.09-.09-.06-.17-.14-.22-.25-.05-.11-.08-.24-.08-.38s.03-.27.08-.38Zm.88.13c-.06-.06-.13-.09-.22-.09s-.16.03-.22.09c-.06.06-.09.14-.09.25s.03.19.09.25.13.09.22.09.16-.03.22-.09c.06-.06.09-.15.09-.25s-.03-.19-.09-.25Z"></path><path class="cls-12" d="m16.9,30.96c.05-.11.13-.19.22-.25.09-.06.2-.09.31-.09.09,0,.18.02.25.06.08.04.13.09.18.15v-.65h.43v1.85h-.43v-.2c-.04.07-.1.12-.17.16s-.16.06-.26.06c-.11,0-.22-.03-.31-.09-.09-.06-.17-.14-.22-.25-.05-.11-.08-.24-.08-.38s.03-.27.08-.38Zm.88.13c-.06-.06-.13-.09-.22-.09s-.16.03-.22.09c-.06.06-.09.14-.09.25s.03.19.09.25.13.09.22.09.16-.03.22-.09c.06-.06.09-.15.09-.25s-.03-.19-.09-.25Z"></path><path class="cls-12" d="m18.6,30.96c.05-.11.13-.19.22-.25.09-.06.2-.09.31-.09.1,0,.18.02.26.06s.13.09.17.16v-.2h.43v1.4h-.43v-.2c-.04.06-.1.12-.17.16s-.16.06-.26.06c-.11,0-.22-.03-.31-.09-.09-.06-.17-.14-.22-.25-.05-.11-.08-.24-.08-.38s.03-.27.08-.38Zm.88.13c-.06-.06-.13-.09-.22-.09s-.16.03-.22.09c-.06.06-.09.14-.09.25s.03.19.09.25.13.09.22.09.16-.03.22-.09c.06-.06.09-.15.09-.25s-.03-.19-.09-.25Z"></path><path class="cls-12" d="m20.55,31.99c-.09-.04-.17-.1-.22-.17-.06-.07-.09-.15-.09-.24h.42s.03.09.07.12c.04.03.09.04.15.04.05,0,.09-.01.12-.03.03-.02.04-.05.04-.08,0-.04-.02-.07-.06-.09-.04-.02-.11-.04-.2-.06-.1-.02-.18-.05-.25-.07-.07-.03-.12-.07-.17-.12-.05-.06-.07-.13-.07-.23,0-.08.02-.15.07-.22.04-.07.11-.12.2-.16.08-.04.19-.06.31-.06.17,0,.31.04.41.13s.16.2.17.34h-.4s-.03-.09-.06-.12-.08-.04-.14-.04c-.05,0-.09,0-.11.03-.03.02-.04.05-.04.08,0,.04.02.07.06.09.04.02.11.04.2.06.1.03.19.05.25.08.07.03.12.07.17.12.05.06.08.13.08.23,0,.08-.02.15-.07.22s-.11.11-.2.15c-.09.04-.19.05-.3.05-.12,0-.23-.02-.33-.06Z"></path><path class="cls-12" d="m22.16,31.64l-.28.72h-.27l.14-.72h.41Z"></path><path class="cls-12" d="m23.55,30.68c.07-.04.16-.06.26-.06.12,0,.22.03.31.09.09.06.17.14.22.25.05.11.08.23.08.38s-.03.27-.08.38c-.05.11-.13.19-.22.25-.09.06-.2.09-.31.09-.1,0-.18-.02-.26-.06s-.13-.09-.17-.16v.86h-.43v-2.06h.43v.2c.04-.07.1-.12.17-.16Zm.35.4c-.06-.06-.13-.09-.22-.09s-.16.03-.22.09c-.06.06-.09.15-.09.25s.03.19.09.25c.06.06.13.09.22.09s.16-.03.22-.09.09-.15.09-.25-.03-.19-.09-.25Z"></path><path class="cls-12" d="m24.64,30.96c.05-.11.13-.19.22-.25.09-.06.2-.09.31-.09.1,0,.18.02.26.06s.13.09.17.16v-.2h.43v1.4h-.43v-.2c-.04.06-.1.12-.17.16s-.16.06-.26.06c-.11,0-.22-.03-.31-.09-.09-.06-.17-.14-.22-.25-.05-.11-.08-.24-.08-.38s.03-.27.08-.38Zm.88.13c-.06-.06-.13-.09-.22-.09s-.16.03-.22.09c-.06.06-.09.14-.09.25s.03.19.09.25.13.09.22.09.16-.03.22-.09c.06-.06.09-.15.09-.25s-.03-.19-.09-.25Z"></path><path class="cls-12" d="m26.95,30.69c.08-.04.16-.07.25-.07v.45h-.12c-.11,0-.19.02-.24.07-.05.05-.08.13-.08.24v.65h-.43v-1.4h.43v.23c.05-.08.11-.14.19-.18Z"></path><path class="cls-12" d="m27.41,30.96c.05-.11.13-.19.22-.25.09-.06.2-.09.31-.09.1,0,.18.02.26.06s.13.09.17.16v-.2h.43v1.4h-.43v-.2c-.04.06-.1.12-.17.16s-.16.06-.26.06c-.11,0-.22-.03-.31-.09-.09-.06-.17-.14-.22-.25-.05-.11-.08-.24-.08-.38s.03-.27.08-.38Zm.88.13c-.06-.06-.13-.09-.22-.09s-.16.03-.22.09c-.06.06-.09.14-.09.25s.03.19.09.25.13.09.22.09.16-.03.22-.09c.06-.06.09-.15.09-.25s-.03-.19-.09-.25Z"></path><path class="cls-12" d="m31.83,30.78c.1.11.15.25.15.44v.82h-.43v-.76c0-.09-.02-.16-.07-.21-.05-.05-.11-.07-.2-.07s-.15.02-.2.07c-.05.05-.07.12-.07.21v.76h-.43v-.76c0-.09-.02-.16-.07-.21-.05-.05-.11-.07-.2-.07s-.15.02-.2.07c-.05.05-.07.12-.07.21v.76h-.43v-1.4h.43v.17c.04-.06.1-.1.17-.14.07-.03.15-.05.24-.05.1,0,.2.02.28.07.08.04.15.11.19.19.05-.08.11-.14.2-.19.08-.05.17-.07.27-.07.17,0,.31.05.41.16Z"></path><path class="cls-12" d="m32.28,30.96c.05-.11.13-.19.22-.25.09-.06.2-.09.31-.09.1,0,.18.02.26.06s.13.09.17.16v-.2h.43v1.4h-.43v-.2c-.04.06-.1.12-.17.16s-.16.06-.26.06c-.11,0-.22-.03-.31-.09-.09-.06-.17-.14-.22-.25-.05-.11-.08-.24-.08-.38s.03-.27.08-.38Zm.88.13c-.06-.06-.13-.09-.22-.09s-.16.03-.22.09c-.06.06-.09.14-.09.25s.03.19.09.25.13.09.22.09.16-.03.22-.09c.06-.06.09-.15.09-.25s-.03-.19-.09-.25Z"></path><path class="cls-12" d="m34.01,30.43s-.07-.1-.07-.16.02-.12.07-.17c.05-.04.11-.07.18-.07s.13.02.18.07c.05.04.07.1.07.17s-.02.12-.07.16c-.05.04-.11.07-.18.07s-.14-.02-.18-.07Zm.4.21v1.4h-.43v-1.4h.43Z"></path><path class="cls-12" d="m34.99,31.97c-.11-.06-.19-.14-.26-.25s-.09-.24-.09-.38.03-.27.09-.38c.06-.11.15-.19.26-.25.11-.06.23-.09.37-.09s.26.03.37.09c.11.06.2.14.26.25.06.11.09.24.09.38s-.03.27-.1.38c-.06.11-.15.19-.26.25-.11.06-.23.09-.37.09s-.26-.03-.37-.09Zm.58-.37c.06-.06.09-.15.09-.26s-.03-.2-.08-.26c-.06-.06-.12-.09-.21-.09s-.15.03-.21.09c-.06.06-.08.14-.08.26s.03.2.08.26c.05.06.12.09.2.09s.15-.03.21-.09Z"></path><path class="cls-12" d="m36.93,30.69c.08-.04.16-.07.25-.07v.45h-.12c-.11,0-.19.02-.24.07-.05.05-.08.13-.08.24v.65h-.43v-1.4h.43v.23c.05-.08.11-.14.19-.18Z"></path><path class="cls-12" d="m39.22,31.44h-.97c0,.09.03.15.08.2.05.05.11.07.18.07.11,0,.18-.04.22-.13h.46c-.02.09-.07.17-.13.25-.06.07-.14.13-.23.17-.09.04-.19.06-.31.06-.14,0-.26-.03-.37-.09-.11-.06-.19-.14-.25-.25-.06-.11-.09-.24-.09-.38s.03-.27.09-.38c.06-.11.14-.19.25-.25.11-.06.23-.09.37-.09s.25.03.36.08c.11.06.19.14.25.24.06.11.09.23.09.37,0,.04,0,.08,0,.12Zm-.43-.24c0-.07-.02-.13-.08-.17-.05-.04-.11-.06-.19-.06-.07,0-.13.02-.18.06-.05.04-.08.1-.09.18h.54Z"></path><path class="cls-12" d="m40.15,31h-.23v1.04h-.43v-1.04h-.15v-.36h.15v-.04c0-.17.05-.3.15-.39.1-.09.24-.13.43-.13.03,0,.05,0,.07,0v.36c-.08,0-.14,0-.17.04s-.05.08-.05.15h0s.23.01.23.01v.36Z"></path><path class="cls-12" d="m40.38,30.43s-.07-.1-.07-.16.02-.12.07-.17c.05-.04.11-.07.18-.07s.13.02.18.07c.05.04.07.1.07.17s-.02.12-.07.16c-.05.04-.11.07-.18.07s-.14-.02-.18-.07Zm.4.21v1.4h-.43v-1.4h.43Z"></path><path class="cls-12" d="m41.09,30.96c.06-.11.14-.19.25-.25.11-.06.23-.09.36-.09.18,0,.32.05.44.14.12.09.19.22.23.39h-.46c-.04-.11-.11-.16-.22-.16-.08,0-.14.03-.19.09s-.07.15-.07.26.02.2.07.26.11.09.19.09c.11,0,.18-.05.22-.16h.46c-.04.16-.11.29-.23.38-.12.09-.26.14-.44.14-.14,0-.26-.03-.36-.09-.11-.06-.19-.14-.25-.25-.06-.11-.09-.24-.09-.38s.03-.27.09-.38Z"></path><path class="cls-12" d="m42.6,30.96c.05-.11.13-.19.22-.25.09-.06.2-.09.31-.09.1,0,.18.02.26.06s.13.09.17.16v-.2h.43v1.4h-.43v-.2c-.04.06-.1.12-.17.16s-.16.06-.26.06c-.11,0-.22-.03-.31-.09-.09-.06-.17-.14-.22-.25-.05-.11-.08-.24-.08-.38s.03-.27.08-.38Zm.88.13c-.06-.06-.13-.09-.22-.09s-.16.03-.22.09c-.06.06-.09.14-.09.25s.03.19.09.25.13.09.22.09.16-.03.22-.09c.06-.06.09-.15.09-.25s-.03-.19-.09-.25Zm.12-.79l-.6.25v-.29l.6-.29v.33Z"></path><path class="cls-12" d="m44.3,30.96c.06-.11.14-.19.25-.25.11-.06.23-.09.36-.09.18,0,.32.05.44.14.12.09.19.22.23.39h-.46c-.04-.11-.11-.16-.22-.16-.08,0-.14.03-.19.09s-.07.15-.07.26.02.2.07.26.11.09.19.09c.11,0,.18-.05.22-.16h.46c-.04.16-.11.29-.23.38-.12.09-.26.14-.44.14-.14,0-.26-.03-.36-.09-.11-.06-.19-.14-.25-.25-.06-.11-.09-.24-.09-.38s.03-.27.09-.38Z"></path><path class="cls-12" d="m45.84,30.43s-.07-.1-.07-.16.02-.12.07-.17c.05-.04.11-.07.18-.07s.13.02.18.07c.05.04.07.1.07.17s-.02.12-.07.16c-.05.04-.11.07-.18.07s-.14-.02-.18-.07Zm.4.21v1.4h-.43v-1.4h.43Z"></path><path class="cls-12" d="m46.55,30.96c.05-.11.13-.19.22-.25.09-.06.2-.09.31-.09.1,0,.18.02.26.06s.13.09.17.16v-.2h.43v1.4h-.43v-.2c-.04.06-.1.12-.17.16s-.16.06-.26.06c-.11,0-.22-.03-.31-.09-.09-.06-.17-.14-.22-.25-.05-.11-.08-.24-.08-.38s.03-.27.08-.38Zm.88.13c-.06-.06-.13-.09-.22-.09s-.16.03-.22.09c-.06.06-.09.14-.09.25s.03.19.09.25.13.09.22.09.16-.03.22-.09c.06-.06.09-.15.09-.25s-.03-.19-.09-.25Z"></path><path class="cls-12" d="m7.42,34.46c.05-.11.13-.19.22-.25.09-.06.2-.09.31-.09.09,0,.18.02.25.06.08.04.13.09.18.15v-.65h.43v1.85h-.43v-.2c-.04.07-.1.12-.17.16s-.16.06-.26.06c-.11,0-.22-.03-.31-.09-.09-.06-.17-.14-.22-.25-.05-.11-.08-.24-.08-.38s.03-.27.08-.38Zm.88.13c-.06-.06-.13-.09-.22-.09s-.16.03-.22.09c-.06.06-.09.14-.09.25s.03.19.09.25.13.09.22.09.16-.03.22-.09c.06-.06.09-.15.09-.25s-.03-.19-.09-.25Z"></path><path class="cls-12" d="m9.39,35.47c-.11-.06-.19-.14-.26-.25s-.09-.24-.09-.38.03-.27.09-.38c.06-.11.15-.19.26-.25.11-.06.23-.09.37-.09s.26.03.37.09c.11.06.2.14.26.25.06.11.09.24.09.38s-.03.27-.1.38c-.06.11-.15.19-.26.25-.11.06-.23.09-.37.09s-.26-.03-.37-.09Zm.58-.37c.06-.06.09-.15.09-.26s-.03-.2-.08-.26c-.06-.06-.12-.09-.21-.09s-.15.03-.21.09c-.06.06-.08.14-.08.26s.03.2.08.26c.05.06.12.09.2.09s.15-.03.21-.09Z"></path><path class="cls-12" d="m11.85,34.18c.07-.04.16-.06.26-.06.12,0,.22.03.31.09.09.06.17.14.22.25.05.11.08.23.08.38s-.03.27-.08.38c-.05.11-.13.19-.22.25-.09.06-.2.09-.31.09-.1,0-.18-.02-.26-.06s-.13-.09-.17-.16v.86h-.43v-2.06h.43v.2c.04-.07.1-.12.17-.16Zm.35.4c-.06-.06-.13-.09-.22-.09s-.16.03-.22.09c-.06.06-.09.15-.09.25s.03.19.09.25c.06.06.13.09.22.09s.16-.03.22-.09.09-.15.09-.25-.03-.19-.09-.25Z"></path><path class="cls-12" d="m13.56,34.19c.08-.04.16-.07.25-.07v.45h-.12c-.11,0-.19.02-.24.07-.05.05-.08.13-.08.24v.65h-.43v-1.4h.43v.23c.05-.08.11-.14.19-.18Z"></path><path class="cls-12" d="m14.28,35.47c-.11-.06-.19-.14-.26-.25s-.09-.24-.09-.38.03-.27.09-.38c.06-.11.15-.19.26-.25.11-.06.23-.09.37-.09s.26.03.37.09c.11.06.2.14.26.25.06.11.09.24.09.38s-.03.27-.1.38c-.06.11-.15.19-.26.25-.11.06-.23.09-.37.09s-.26-.03-.37-.09Zm.58-.37c.06-.06.09-.15.09-.26s-.03-.2-.08-.26c-.06-.06-.12-.09-.21-.09s-.15.03-.21.09c-.06.06-.08.14-.08.26s.03.2.08.26c.05.06.12.09.2.09s.15-.03.21-.09Z"></path><path class="cls-12" d="m15.6,34.46c.05-.11.13-.19.22-.25.09-.06.2-.09.31-.09.09,0,.18.02.25.06.08.04.13.09.18.15v-.65h.43v1.85h-.43v-.2c-.04.07-.1.12-.17.16s-.16.06-.26.06c-.11,0-.22-.03-.31-.09-.09-.06-.17-.14-.22-.25-.05-.11-.08-.24-.08-.38s.03-.27.08-.38Zm.88.13c-.06-.06-.13-.09-.22-.09s-.16.03-.22.09c-.06.06-.09.14-.09.25s.03.19.09.25.13.09.22.09.16-.03.22-.09c.06-.06.09-.15.09-.25s-.03-.19-.09-.25Z"></path><path class="cls-12" d="m18.68,34.14v1.4h-.43v-.19c-.04.06-.1.11-.18.15-.07.04-.16.06-.25.06-.11,0-.2-.02-.28-.07-.08-.05-.15-.12-.19-.21s-.07-.2-.07-.32v-.82h.42v.76c0,.09.02.17.07.22.05.05.11.08.2.08s.15-.03.2-.08c.05-.05.07-.12.07-.22v-.76h.43Z"></path><path class="cls-12" d="m19.77,35.17v.36h-.22c-.16,0-.28-.04-.36-.11-.09-.08-.13-.2-.13-.37v-.55h-.17v-.36h.17v-.34h.43v.34h.28v.36h-.28v.56s0,.07.03.09c.02.02.05.03.1.03h.15Z"></path><path class="cls-12" d="m20.27,35.47c-.11-.06-.19-.14-.26-.25s-.09-.24-.09-.38.03-.27.09-.38c.06-.11.15-.19.26-.25.11-.06.23-.09.37-.09s.26.03.37.09c.11.06.2.14.26.25.06.11.09.24.09.38s-.03.27-.1.38c-.06.11-.15.19-.26.25-.11.06-.23.09-.37.09s-.26-.03-.37-.09Zm.58-.37c.06-.06.09-.15.09-.26s-.03-.2-.08-.26c-.06-.06-.12-.09-.21-.09s-.15.03-.21.09c-.06.06-.08.14-.08.26s.03.2.08.26c.05.06.12.09.2.09s.15-.03.21-.09Z"></path><path class="cls-12" d="m21.61,35.49s-.07-.1-.07-.16.02-.12.07-.17c.05-.04.11-.07.18-.07s.13.02.18.07.07.1.07.17-.02.12-.07.16c-.05.04-.11.07-.18.07s-.14-.02-.18-.07Z"></path></g><g><g><path class="cls-2" d="m6.27,11.96h0c-2.82,0-5.11-2.29-5.11-5.11V1.09s4.61,0,4.61,0c3.14,0,5.69,2.55,5.69,5.69h0c0,2.87-2.32,5.19-5.19,5.19Z"></path><path class="cls-3" d="m6.27,11.96h0c-2.82,0-5.11-2.29-5.11-5.11V1.09s4.61,0,4.61,0c3.14,0,5.69,2.55,5.69,5.69h0c0,2.87-2.32,5.19-5.19,5.19Z"></path></g><path class="cls-6" d="m4.39,9.03v-.74l1.89-1.79c.15-.14.26-.26.33-.36.07-.11.12-.2.14-.29.02-.09.03-.18.03-.26,0-.19-.07-.34-.2-.45-.13-.11-.33-.16-.59-.16-.21,0-.4.04-.57.13-.17.08-.32.21-.44.37l-.82-.53c.18-.28.44-.5.78-.67.34-.16.72-.25,1.16-.25.36,0,.68.06.96.17.28.12.49.28.64.5.15.22.23.48.23.77,0,.15-.02.31-.07.47-.04.16-.12.32-.24.5-.12.17-.29.37-.52.58l-1.57,1.47-.22-.41h2.77v.92h-3.71Z"></path></g><g><g><path class="cls-11" d="m23.9,14.53h0s-.01.02-.01.02c0,0,0,0,0,0,0,0,.01,0,.02,0Z"></path><path class="cls-15" d="m23.9,16.68s.01.01,0,.02c0,0,0-.01-.01-.02,0,0,0,0,0,0Z"></path><path class="cls-11" d="m23.88,14.54s0,0,0,0h.01s0-.02,0-.02c0,0-.01,0-.02,0Z"></path><g><rect class="cls-1" x="27.19" y="11.19" width=".79" height="1.92" rx=".4" ry=".4"></rect><rect class="cls-10" x="27.19" y="11.19" width=".79" height="1.92" rx=".4" ry=".4"></rect></g><g><rect class="cls-4" x="28.73" y="9.62" width=".79" height="3.49" rx=".4" ry=".4"></rect><rect class="cls-5" x="28.73" y="9.62" width=".79" height="3.49" rx=".4" ry=".4"></rect></g><g><rect class="cls-8" x="30.25" y="10.63" width=".79" height="2.49" rx=".4" ry=".4"></rect><rect class="cls-7" x="30.25" y="10.63" width=".79" height="2.49" rx=".4" ry=".4"></rect></g><path class="cls-14" d="m38.47,14.89c-.68-.22-1.44-.1-2.03.33l-.3.22v-.47c0-.54-.44-.97-.97-.97h-12.09c-.54,0-.97.44-.97.97v2.05c0,2.08,1.14,3.99,2.97,4.98.05.03.08.07.08.13,0,.26.09.52.27.71.18.19.43.3.7.3h6.28c.54,0,.97-.44.97-.97,0-.06.03-.11.08-.14.73-.44,1.33-1.03,1.79-1.73h0s.49-.63.49-.63h0c.71-.97,1.41-1.08,1.87-1.08,1.19,0,1.89-.85,2.06-1.39.27-.87-.06-1.94-1.2-2.31Zm-14.57-.36h0s-.01.02-.01.02c0,0,0,0,0,0,0,0,.01,0,.02,0Zm11.42,2.78c0,1.64-.87,3.18-2.28,4.02-.29.17-.47.49-.47.83,0,.09-.07.16-.16.16h-6.28s0,0,0,0c-.05,0-.09-.03-.11-.05-.03-.03-.05-.08-.05-.13v-.02s0-.02,0-.02c0-.35-.2-.66-.51-.83-1.57-.85-2.55-2.48-2.55-4.27v-2.05c0-.09.07-.16.16-.16h12.09c.09,0,.16.07.16.16v2.35Zm3.57-.35c-.05.17-.43.81-1.28.81-.57,0-1.09.15-1.56.46.05-.3.08-.61.08-.93v-.88s.77-.55.77-.55c.39-.28.88-.36,1.31-.22.67.22.82.83.68,1.3Z"></path><path class="cls-13" d="m34.57,16.51c0,.46-.05.91-.11,1.36-.05.33-.11.65-.22.97-.13.4-.34.75-.59,1.06-.21.26-.49.47-.76.67-.31.22-.64.36-.95.58-.11.08-.13.21-.14.33-.02.16-.1.15-.2.15-.59,0-1.18,0-1.78,0h-.61v-.02c-.79,0-1.58,0-2.37,0-.13,0-.2-.03-.22-.19-.01-.15-.09-.25-.23-.33-.48-.26-.96-.55-1.36-.95-.42-.42-.72-.93-.92-1.52-.13-.39-.21-.78-.23-1.19,0-.11.03-.15.13-.12.82.19,1.66.18,2.49.15.54-.02,1.07-.13,1.6-.24.78-.17,1.51-.48,2.26-.75.56-.2,1.15-.3,1.75-.33.29-.01.58-.04.87-.03h0c.5.01.99.1,1.48.24.08.02.13.05.12.16Z"></path></g><g><circle class="cls-2" cx="23.53" cy="14.23" r="2.36"></circle><path class="cls-9" d="m23.53,16.84c-1.44,0-2.6-1.17-2.6-2.6s1.17-2.6,2.6-2.6,2.6,1.17,2.6,2.6-1.17,2.6-2.6,2.6Zm0-4.73c-1.17,0-2.13.95-2.13,2.13s.95,2.13,2.13,2.13c1.17,0,2.13-.95,2.13-2.13s-.95-2.13-2.13-2.13Z"></path></g><path class="cls-9" d="m24.35,15.29c-.06,0-.11-.02-.15-.06l-1.69-1.69c-.08-.08-.08-.22,0-.3.08-.08.22-.08.3,0l1.69,1.69c.08.08.08.22,0,.3-.04.04-.1.06-.15.06Z"></path><path class="cls-9" d="m22.66,15.29c-.06,0-.11-.02-.15-.06-.08-.08-.08-.22,0-.3l1.69-1.69c.08-.08.22-.08.3,0,.08.08.08.22,0,.3l-1.69,1.69s-.1.06-.15.06Z"></path></g></g></g></svg>