<?xml version="1.0" encoding="UTF-8"?>
<svg id="Camada_2" data-name="Camada 2" xmlns="http://www.w3.org/2000/svg" viewBox="0 0 1021.46 317.8">
  <defs>
    <style>
      .cls-1 {
        fill: #e84546;
      }

      .cls-2 {
        fill: #456f97;
      }
    </style>
  </defs>
  <g id="Camada_1-2" data-name="Camada 1">
    <path class="cls-1" d="m0,127.1c.37.47.89.5,1.35.27,2.09-1.04,4.39-.87,6.6-1.17,2.56-.35,3.12.09,3.61,2.54.77,3.86,2.16,7.54,3.21,11.31.21.74.48,1.56,1.27,2.23,1.39-4.92,2.99-9.7,3.99-14.63.2-.99.57-1.25,1.4-1.29,2.94-.12,5.8.41,8.64,1.04,1.11.24,1.35.89.9,1.83-1.37,2.82-2.22,5.82-3.19,8.78-1.59,4.88-3.51,9.65-5.16,14.5-.5,1.45-1.27,2.08-2.64,2.12-3.41.09-6.81.42-10.22.05-.88-.1-1.36-.38-1.64-1.18-.55-1.57-1.14-3.13-1.68-4.7-1.69-4.85-3.37-9.71-5.07-14.55-.25-.7-.56-1.39-1.37-1.64v-5.5Z"/>
    <path class="cls-2" d="m117.56,91.68c-2.83,0-5.66-.06-8.49.03-1.33.04-1.79-.46-1.69-1.73.06-.74,0-1.5-.01-2.25-.04-10.82-.33-21.63-.82-32.43-.11-2.38-.08-2.31,2.38-2.76,3.91-.72,7.81-1.35,11.8-1.42,3.01-.05,5.99.14,8.91.9,6.7,1.74,11.25,5.5,12.97,12.59,1.43,5.89,1.09,11.52-1,17.08-1.24,3.31-3.62,5.76-6.76,7.39-2.91,1.51-6.03,2.37-9.31,2.5-2.66.1-5.32.02-7.99.02,0,.03,0,.05,0,.08Zm.89-20.6h-.01c0,3.08.03,6.17-.02,9.25-.02,1.14.34,1.67,1.56,1.67,2.75,0,5.5.05,8.23-.31,1.28-.17,2.29-.64,2.54-1.99.94-4.88,1.29-9.75-.53-14.51-.69-1.79-1.96-3.01-3.86-3.63-2.09-.69-4.21-.88-6.39-.87-1.27,0-1.55.55-1.53,1.66.04,2.92.01,5.83.01,8.75Z"/>
    <path class="cls-2" d="m730.46,140.4c.22-6.29-.52-13.85-.5-21.42,0-.58-.01-1.16-.02-1.75-.01-.88.4-1.37,1.27-1.56,7.64-1.59,15.32-2.43,22.98-.37,5.76,1.55,9.82,5.12,11.39,11.08,1.65,6.26,1.86,12.49-.91,18.54-1.77,3.86-4.65,6.59-8.65,8.16-2.51.99-5.12,1.38-7.75,1.45-5.32.15-10.65.13-15.97.15-1.78,0-1.82-.04-1.83-1.77-.03-3.74,0-7.49,0-12.51Zm11.22-5.73s-.03,0-.04,0c0,2.99.03,5.98-.01,8.97-.01,1.05.33,1.52,1.44,1.46,2.82-.15,5.64-.07,8.46-.41,1.51-.18,2.16-.87,2.5-2.24.79-3.19.74-6.43.57-9.66-.29-5.57-3.13-8.46-8.68-9.01-.82-.08-1.66,0-2.49-.07-1.32-.12-1.76.52-1.75,1.75.03,3.07.01,6.15.01,9.22Z"/>
    <path class="cls-1" d="m507.97,152.3c-1.16,1.48-2.27,2.58-3.78,3.1-2.89,1-5.65.89-8.17-1.07-.83-.64-1.85-.94-2.68-1.64-2.12-1.82-3.13-4.15-3.63-6.83-.78-4.19-.81-8.48,1.14-12.18,1.86-3.53,5.12-6.02,9.13-7.19,1.52-.44,3.05-.78,4.65-.85,2.39-.1,2.34-.15,2.42-2.62.08-2.5-.29-4.98-.34-7.47-.06-2.66.19-2.88,2.62-3.81,2.27-.86,4.59-1.43,7-1.66,2.09-.2,2.16-.15,2.19,1.87.03,2.5,0,4.99,0,7.49.02,10.98.04,21.96.06,32.95q0,2.01-1.96,2.38c-1.64.31-3.31.38-4.97.36-2.46-.03-2.71-.22-3.69-2.84Zm-.48-11.65s-.06,0-.08,0c0-1.17.07-2.34-.02-3.5-.11-1.5-.55-1.89-2-2.02-3.37-.32-4.75.92-4.85,4.37-.01.42.02.83,0,1.25-.16,3.49,2.11,5.17,5.6,5.03.94-.04,1.36-.45,1.35-1.38-.01-1.25,0-2.5,0-3.75Z"/>
    <path class="cls-2" d="m669.86,152.68c-.91.19-1.34.74-1.81,1.19-1.75,1.72-3.79,2.23-6.19,1.77-5.37-1.02-9.01-4.19-10.26-9.38-1.77-7.35.16-14.72,7.73-18.76,2.32-1.24,4.85-1.77,7.44-1.87,2.48-.09,2.25-.12,2.16-2.45-.1-2.58-.28-5.15-.39-7.73-.11-2.59-.09-2.57,2.25-3.56,2.46-1.04,5.04-1.61,7.69-1.82,1.87-.15,1.95-.07,1.95,1.88.02,7.58.01,15.16.01,22.73,0,5.75-.01,11.49,0,17.24,0,3.03-.02,2.61-2.47,2.84-1.32.12-2.66.15-3.98.26-1.94.16-3.67-.05-4.14-2.35Zm-.42-11.35h-.08c0-.83.02-1.66,0-2.49-.11-3.74-.84-4.3-4.56-3.52-1.86.39-2.2.74-2.4,2.59-.14,1.24-.2,2.49-.02,3.73.39,2.63,1.88,3.94,4.53,4.03q2.51.08,2.53-2.35c0-.67,0-1.33,0-2Z"/>
    <path class="cls-2" d="m516.46,69.34c0,6.58-.01,13.16,0,19.75,0,3.08-.2,2.51-2.58,2.75-1.57.16-3.16.23-4.74.26-2.12.03-2.2.01-2.7-2.03-.25-1.02-.71-1.03-1.38-.6-.48.31-.89.75-1.29,1.18-2.09,2.3-4.62,2.59-7.45,1.72-4.37-1.34-7.29-4.14-8.58-8.54-1.08-3.7-1.06-7.44.24-11.06,2.02-5.6,6.25-8.64,11.95-9.81.49-.1.99-.15,1.48-.2,3.55-.42,3.56-.42,3.42-4.11-.09-2.33-.18-4.66-.35-6.98-.09-1.15.27-1.95,1.35-2.37,2.56-1.01,5.15-1.94,7.92-2.14,2.65-.19,2.67-.15,2.67,2.45,0,6.58,0,13.16,0,19.75Zm-11.03,8.38s-.05,0-.08,0c0-.75,0-1.5,0-2.24-.02-3.1-.36-3.43-3.42-3.27-.49.02-1,.08-1.47.22-1.61.45-2.03.95-2.07,2.61-.03,1.25-.05,2.5.05,3.74.24,2.83,1.25,3.76,4.07,3.87.58.02,1.16,0,1.74,0,.82.02,1.21-.34,1.19-1.19-.03-1.25,0-2.49,0-3.74Z"/>
    <path class="cls-2" d="m415.67,64.79c.98.09,1.42-.37,1.82-.74,2.37-2.16,5.04-1.87,7.72-.91,5.32,1.92,8.65,6.75,8.78,12.46.08,3.65-.51,7.12-2.55,10.24-2.77,4.23-6.95,6.08-11.73,6.71-4.07.53-8.15.02-12.18-.53-2.34-.32-2.86-1.16-2.87-3.82-.05-9.82.08-19.65-.33-29.46-.09-2.25-.11-4.5-.35-6.73-.16-1.53.47-2.29,1.76-2.86,2.62-1.16,5.33-1.89,8.19-2.01,1.65-.07,1.73-.03,1.74,1.61.03,4.91.01,9.82,0,14.73,0,.41,0,.81,0,1.31Zm.11,13.11s-.01,0-.02,0c0,1.41.01,2.83,0,4.24-.01.73.28,1.03,1.03,1.04,5.51.09,6.34-1.02,5.86-5.86-.02-.17-.03-.33-.05-.5-.41-3.04-2.89-4.76-5.92-4.16-.78.15-.88.64-.89,1.25-.01,1.33,0,2.66,0,3.99Z"/>
    <path class="cls-1" d="m185.03,132.31c0,6.67.01,13.33,0,20,0,2.01-.04,2.01-1.99,2.46-2.14.5-4.31.3-6.47.34-1.12.02-1.08-.75-1.22-1.48-.21-1.05-.77-1.19-1.57-.51-.19.16-.39.31-.59.46-1.35,1.1-2.61,2.34-4.55,2.28-2.5-.08-5.1-.17-7.08-1.83-2.84-2.38-5.08-5.28-5.58-9.14-.41-3.17-.45-6.44.7-9.39,1.52-3.87,3.86-7.24,8.25-8.55,2.32-.69,4.58-1.54,7.05-1.41.95.05,1.28-.44,1.36-1.35.23-2.75,0-5.5-.01-8.24-.02-2.94.36-3.5,3.17-4.51,2.13-.77,4.36-1.08,6.59-1.36,1.66-.21,1.9-.01,1.94,1.71.07,3.25.05,6.5.06,9.75,0,3.58,0,7.17,0,10.75-.01,0-.03,0-.04,0Zm-10.96,8.29h-.07c0-.91.03-1.82,0-2.74-.1-2.68-.33-2.89-3.05-2.8-.41.01-.82.16-1.23.16-1.39,0-2.11.75-2.42,2.03-.42,1.72-.47,3.43.1,5.13.75,2.27,1.79,3.1,4.13,3.24,2.5.15,2.54.11,2.56-2.29,0-.91,0-1.82,0-2.74Z"/>
    <path class="cls-2" d="m833.04,127.98c.56-.34,1.14-.61,1.63-1,2.09-1.68,4.41-1.74,6.85-1.03,5.81,1.69,8.82,5.87,9.37,11.6.61,6.4-1.06,12.1-7,15.71-2.39,1.45-5.06,2.22-7.81,2.36-3.97.21-7.95.28-11.84-.87-1.92-.57-2.31-.88-2.34-2.85-.18-9.9-.33-19.8-.52-29.71-.05-2.58-.19-5.15-.37-7.73-.09-1.3.4-1.93,1.64-2.33,2.69-.88,5.31-1.95,8.19-2.03,1.76-.05,1.84,0,1.85,1.74.02,4.66,0,9.32.01,13.98,0,.71-.28,1.49.35,2.17Zm-.3,12.96h-.03c0,1.33,0,2.66,0,3.99,0,.52.12.95.72,1.14,4.17,1.35,6.97-.94,6.4-5.27-.04-.33-.12-.65-.2-.98-.68-3.07-2.41-4.35-5.52-4.2-.94.05-1.39.39-1.38,1.33,0,1.33,0,2.66,0,3.99Z"/>
    <path class="cls-1" d="m108.17,152.41c-1.05.85-1.83,1.46-2.58,2.1-1.89,1.6-4.04,1.84-6.33,1.14-6.82-2.07-10.14-7.39-9.93-13.82.05-1.66-.06-3.33.44-4.96,1.87-6.14,6.08-9.63,12.29-10.86.9-.18,1.81-.25,2.72-.34,2.17-.22,2.21-.21,2.2-2.29-.01-2.66-.12-5.32-.14-7.99-.02-2.74.06-2.75,2.66-3.72,2.2-.82,4.45-1.35,6.78-1.57,2.2-.21,2.22-.18,2.22,2.06,0,11.82.01,23.64.02,35.46,0,1.66.02,3.33.02,4.99,0,1.84-.05,1.98-1.87,2.23-1.56.21-3.15.15-4.73.28-1.9.16-3.27-.43-3.77-2.72Zm-.75-11.45s-.04,0-.06,0c0-1.33.04-2.66-.01-3.99-.05-1.17-.7-1.75-1.91-1.85-3.37-.29-4.83.96-4.92,4.33,0,.33.03.67,0,1-.31,2.9,1.29,5.49,5.54,5.46,1.03,0,1.58-.37,1.53-1.45-.06-1.16-.11-2.33-.16-3.49Z"/>
    <path class="cls-1" d="m461.77,261.71c-2.33,0-4.66-.05-6.98.02-1.32.04-1.83-.49-1.68-1.76,0-.08,0-.17,0-.25-.2-9.23-.4-18.45-.58-27.68-.01-.66-.06-1.38.17-1.96.3-.77,1.2-.29,1.77-.53,4.12-1.75,8.49-1.4,12.77-1.31,4.11.08,7.94,1.37,11.29,3.88.61.46,1.17.96,1.51,1.63.74,1.45,1.71,2.86,2.08,4.41.99,4.21,1.49,8.48.4,12.78-1.51,5.91-5.57,8.99-11.29,10.26-3.12.69-6.29.47-9.44.52Zm.74-16.69h-.04c0,2.41.04,4.82-.02,7.23-.03,1.08.37,1.48,1.44,1.45,2.24-.07,4.48.1,6.71-.35,1.09-.22,1.67-.6,1.97-1.81.78-3.14.67-6.3.33-9.41-.4-3.66-3.07-5.84-6.81-6.01-.66-.03-1.33.1-1.99.06-1.18-.07-1.63.46-1.61,1.62.04,2.41.01,4.82.01,7.23Z"/>
    <path class="cls-1" d="m344.98,240.46c2.23-2.61,4.84-3.14,7.82-2.38,1.47.37,2.97.16,4.46.17.91,0,1.37-.51,1.37-1.41,0-1.25.01-2.5-.05-3.75-.05-.87.26-1.22,1.09-1.63,2.29-1.12,4.62-1.84,7.18-1.82,1.1,0,1.45.44,1.44,1.48-.03,1.83-.03,3.67.07,5.5.08,1.69.19,1.76,1.95,1.83,1.5.06,3,.11,4.5.07,1.13-.03,1.72.3,1.66,1.55-.07,1.5-.07,3,0,4.5.05,1.23-.53,1.59-1.66,1.57-1.75-.03-3.5.08-5.25.04-1.06-.02-1.55.33-1.44,1.44.12,1.24.14,2.49.3,3.73.28,2.18,2.11,3.34,4.38,2.88.49-.1.99-.13,1.48-.22.94-.18,1.42.29,1.59,1.14.38,1.89.33,3.81.3,5.73-.01.71-.46,1.02-1.11,1.11-3.07.42-6.14.67-9.18-.14-3.46-.92-6.13-4.17-6.4-7.74-.17-2.24-.36-4.48-.49-6.73-.05-.82-.34-1.19-1.19-1.21-3.49-.06-6.98-.14-10.46-.25-1.35-.04-1.89.49-1.87,1.89.05,3.91-.02,7.83-.03,11.74,0,2.24-.1,2.4-2.36,2.51-1.75.09-3.5,0-5.25.06-1.07.04-1.53-.42-1.56-1.44-.04-2-.1-4-.14-6-.08-4.25-.14-8.5-.22-12.75-.01-.75-.1-1.52.24-2.21.43-.86,1.35-.42,2-.69,1.24-.52,2.54-.71,3.85-.83,2.24-.2,2.24-.17,2.98,2.23Z"/>
    <path class="cls-2" d="m195.87,295.16c.49.12.74-.25,1.04-.52,2.71-2.46,5.89-2.93,8.8-.69,2.12,1.63,3.39,1.77,5.62-.01,4-3.21,10.31-.78,11.89,4.24.47,1.51.81,3.06.81,4.66,0,4-.04,7.99.06,11.99.03,1.36-.47,1.95-1.75,2.15-1.99.3-3.98.27-5.98.2-1.04-.04-1.36-.56-1.34-1.62.07-2.99,0-5.99-.01-8.99,0-1.34-.18-2.65-.55-3.94-.28-.98-.88-1.55-1.89-1.74-1.72-.33-2.18.04-2.19,1.86-.02,3.83-.04,7.66-.07,11.49-.02,2.27-.3,2.62-2.5,2.85-1.66.17-3.32.17-4.99.06-1.24-.08-1.76-.62-1.74-1.89.04-2.58,0-5.16-.04-7.74-.02-1.33-.07-2.65-.36-3.97-.32-1.43-.89-2.37-2.56-2.55-1.6-.17-1.63-.32-1.65,1.4-.04,3.66-.02,7.33-.03,10.99,0,.5-.04,1,0,1.5.11,1.36-.61,1.98-1.85,2.17-1.99.3-3.98.22-5.98.2-.8,0-1.22-.39-1.25-1.21-.04-.91-.18-1.83-.17-2.74.06-5.75-.11-11.49-.38-17.23-.06-1.27.34-1.78,1.52-2.09,1.46-.39,2.95-.5,4.43-.68,2.29-.28,2.29-.25,3.12,1.85Z"/>
    <path class="cls-2" d="m508.77,295.39c.57-.4.91-.63,1.24-.87,3.54-2.62,6.86-2.64,10.15.24,1.16,1.02,1.87,1.08,2.9.06,5.22-5.14,12.98-.79,13.73,5.27.28,2.25.25,4.48.28,6.73.03,2.66,0,5.33-.05,7.99-.03,1.72-.3,2.04-1.98,2.24-1.74.21-3.48.23-5.23.11-1.25-.09-1.77-.62-1.77-1.87,0-2.91-.06-5.83-.08-8.74,0-1.26-.15-2.49-.53-3.69-.29-.91-.79-1.6-1.8-1.88-1.7-.47-2.26-.11-2.26,1.71,0,4,.02,7.99.02,11.99,0,2.14-.11,2.3-2.19,2.41-1.74.09-3.49.11-5.24.06-1.72-.04-1.75-.09-1.79-1.91-.06-3-.06-5.99-.09-8.99-.01-1.17-.03-2.33-.48-3.44-.36-.89-.88-1.59-1.83-1.9-1.64-.54-2.27-.13-2.28,1.64-.04,4-.03,7.99-.05,11.99-.01,2.24-.09,2.37-2.37,2.54-1.66.12-3.33.08-4.99.16-1.11.05-1.64-.29-1.67-1.53-.15-6.57-.4-13.14-.57-19.71-.04-1.65.3-1.98,2.01-2.25,1.4-.22,2.8-.4,4.21-.53,2.2-.21,2.2-.19,2.72,2.17Z"/>
    <path class="cls-1" d="m224.82,245.93c0-4.49.01-8.99,0-13.48,0-2.59,0-2.76,2.38-3.25,5.07-1.04,10.18-1.68,15.33-.56,9.49,2.06,10.66,12.19,6.2,17.18-.65.73-1.02,1.7-1.99,2.16-1.03.48-.85,1.22-.39,2.06,1.52,2.78,3.39,5.34,5.13,7.97,1.65,2.5,1.43,3.1-1.61,3.58-1.56.25-3.16.25-4.71.52-1.81.32-2.79-.53-3.52-2.04-1.17-2.39-2.41-4.75-3.64-7.11-.42-.81-.8-1.65-1.56-2.23-.98-.75-1.54-.62-1.71.55-.16,1.06-.13,2.16-.15,3.24-.03,1.91-.07,3.83-.02,5.74.04,1.17-.49,1.73-1.58,1.76-1.91.06-3.83.14-5.74.06-1.75-.07-1.9-.3-1.91-2.18-.02-4.66,0-9.32,0-13.98-.17,0-.34,0-.51,0Zm12.52-3.28c2.28.08,2.93,0,3.36-.45.92-.95.63-4.59-.55-5.28-1.48-.87-3.21-1.15-4.78-.48-1.31.56-.64,2.05-.82,3.13-.01.08,0,.17,0,.25.1,3.28-.36,2.64,2.78,2.82Z"/>
    <path class="cls-1" d="m731.72,88.93c-1.21.94-2.28,1.61-3.14,2.48-1.3,1.32-2.87,1.64-4.58,1.55-2.91-.15-5.56-1.12-7.78-3.03-4.24-3.66-3.21-11.3,1.83-13.77,2.05-1.01,4.21-1.54,6.5-1.58,1.97-.04,3.96.11,6.19-.35-.86-1.62-1.93-2.61-3.62-2.67-2.67-.09-5.36-.13-7.9.81-1.12.41-1.73.08-2.32-.75-1.17-1.66-1.75-3.58-2.36-5.48-.24-.75.28-1,.87-1.24,2.55-1.06,5.17-1.89,7.93-2.11,3.49-.28,6.98-.49,10.42.55,5.32,1.61,7.84,4.58,8.14,10.62.26,5.15.05,10.33,0,15.5-.01,1.83-.1,1.86-1.94,2.26-1.56.34-3.13.41-4.72.39-3.01-.03-3.01-.01-3.53-3.17Zm-3.88-8.14c-.54.08-1.04.13-1.52.24-.52.12-1.27-.06-1.34.78-.05.63.31,1.13.8,1.47,1.25.87,2.64.92,4.05.52.63-.18.92-.68.85-1.35-.06-.61-.24-1.17-.92-1.32-.65-.15-1.31-.23-1.93-.34Z"/>
    <path class="cls-1" d="m382.95,18.06c-1.25,2.29-2.49,4.58-3.47,7.01-.12.3-.24.64-.47.85-1.57,1.43-5.83.66-6.77-1.28-.98-2.02-1.82-4.11-2.72-6.16-.13-.3-.3-.57-.47-.89-.82.34-.51,1.01-.52,1.49-.05,4.25-.04,8.5-.07,12.75-.01,2.02-.03,2.08-2.09,2.19-1.58.09-3.16.01-4.74.03-1.07.01-1.49-.55-1.47-1.55.01-.58.02-1.17.01-1.75-.07-7.33-.15-14.67-.22-22,0-.67,0-1.33,0-2,0-.86.43-1.37,1.25-1.63,2.76-.87,5.61-.63,8.43-.69.66-.01,1.07.49,1.26,1.06.98,3,3.13,5.49,3.77,8.65.11.56.34,1.4,1.19,1.4.69,0,.83-.7,1.14-1.18,1.52-2.29,2.02-5.05,3.46-7.4,1.83-2.98,1.5-2.79,4.34-2.53,1.57.15,3.17.05,4.69.61,1.88.69,2.15,1.04,2.16,3.09.03,5.42,0,10.83.02,16.25,0,2.67,0,5.33.1,8,.04,1.04-.24,1.58-1.33,1.61-1.5.04-3,.21-4.49.18-2.25-.04-2.39-.22-2.42-2.45-.04-3.83-.05-7.67-.06-11.5,0-.66,0-1.33,0-1.99l-.5-.17Z"/>
    <path class="cls-1" d="m413.76,152.17c-1.61.31-2.35,1.42-3.24,2.19-1.58,1.38-3.33,1.79-5.3,1.55-4.14-.51-7.08-2.86-8.96-6.42-.74-1.41-.95-3.19-1.05-4.82-.3-4.98-.41-9.98-.65-14.96-.06-1.25.29-1.77,1.6-2.26,2.96-1.12,6-1.13,9.04-1.33,1.31-.08,1.22.86,1.22,1.69-.03,3.83-.08,7.66-.14,11.49-.02,1.26.07,2.5.46,3.7.81,2.5,2.58,3.38,5.06,2.62,1.1-.34,1.02-1.19,1-2.01-.06-3.24-.17-6.49-.24-9.73-.04-1.58-.02-3.16-.09-4.74-.04-1.02.43-1.34,1.37-1.67,2.81-.97,5.71-1.02,8.61-1.15,1.21-.05,1.61.48,1.61,1.63-.04,8.32-.06,16.65-.04,24.97,0,1.28-.52,1.73-1.73,1.88-1.99.24-3.97.35-5.97.4-1.27.03-2.1-.31-2.25-1.69-.04-.4-.19-.8-.32-1.34Z"/>
    <path class="cls-1" d="m836.78,89.03c-1.13.83-2.09,1.45-2.97,2.17-2.17,1.79-4.57,2.22-7.26,1.44-3.22-.93-6.12-2.27-7.35-5.71-1.51-4.21-.55-8.82,4.48-10.95,2.58-1.09,5.21-1.7,8.02-1.52.58.04,1.16.06,1.75.08.66.03,1.55.18,1.75-.56.23-.85-.38-1.56-1.17-1.97-.36-.19-.78-.34-1.18-.36-2.49-.12-5.07-.54-7.43.38-2.06.8-3.29.21-4.42-1.41-.38-.54-.76-1.06-.94-1.7-1.01-3.66-1.5-3.74,2.66-5.02,5.34-1.65,10.75-1.93,16.23-.47,4.69,1.25,7.64,4.99,7.84,9.45.26,5.66.04,11.32.09,16.99.01,1.4-.63,1.94-1.94,1.98-2,.07-3.99.18-5.98.29-1.21.07-1.9-.44-1.97-1.69-.02-.39-.11-.77-.2-1.42Zm-3.52-5.03c.35-.02,1.01-.05,1.68-.1.72-.05,1.04-.48,1-1.16-.05-.71.26-1.73-.71-1.9-1.54-.26-3.15-.39-4.67.22-.6.24-.86.72-.84,1.39.02.71.42,1.03,1.02,1.23.72.25,1.46.34,2.53.31Z"/>
    <path class="cls-1" d="m537.45,155.62c-1.66.11-3.35.16-4.92-.36-5.79-1.89-8.99-5.94-9.78-11.97-.53-4.07.12-7.93,2.08-11.48.88-1.58,2.41-2.87,3.97-3.71,5.27-2.86,10.73-3.47,16.49-1.15,3.26,1.31,5.53,3.43,6.68,6.59,1.58,4.33,1.63,8.8.15,13.18-1.96,5.77-6.59,8.04-12.18,8.89-.81.12-1.66.02-2.49.02Zm4.03-14.61s0,0,.01,0c0-.58-.07-1.17.01-1.74.29-2.08-.95-3.22-2.52-4.12-2.38-1.36-4.02-.56-4.35,2.13-.14,1.15-.12,2.32-.16,3.47-.05,1.26.13,2.49.57,3.67.66,1.76,1.8,2.39,3.95,2.19,1.37-.13,2.28-1.12,2.48-2.87.1-.9.02-1.82.02-2.73Z"/>
    <path class="cls-2" d="m804.33,137.47c-.28-2.04-.73-2.53-2.74-2.79-2.67-.35-5.28.09-7.88.61-2.25.45-2.27.48-3.23-1.48-.66-1.34-1.27-2.71-1.84-4.09-.37-.91-.12-1.58.89-1.95,5.33-1.94,10.79-2.72,16.43-1.95,1.66.23,3.2.85,4.65,1.72,3.08,1.84,4.81,4.5,5.05,8.11.38,5.65.2,11.31.27,16.97.01,1.24-.55,1.83-1.65,2.06-2.3.49-4.63.4-6.96.41-1.23,0-1.14-.97-1.26-1.77-.15-.97-.66-1.04-1.38-.53-.2.14-.36.34-.55.5-3.67,3.07-8.67,3.36-12.62.64-2.86-1.97-4.05-4.88-3.83-8.21.21-3.14,2.06-5.34,4.94-6.67,2.55-1.19,5.24-1.53,8.02-1.52,1.23,0,2.48.34,3.71-.05Zm-2.41,6.26c-.49,0-.99,0-1.48,0-.76.02-1.58.09-1.79.97-.22.95.42,1.52,1.19,1.94,1.15.63,2.41.39,3.63.4,1.26.01,1.42-.89,1.46-1.85.04-1.04-.52-1.49-1.53-1.46-.49.01-.99,0-1.48,0Z"/>
    <path class="cls-1" d="m141.4,152.14c-1.02,1-1.93,1.7-2.9,2.34-3.01,1.99-6.73,1.81-10.01.05-3.23-1.74-4.66-4.35-4.96-7.79-.32-3.61,2.43-7.08,5.94-8.17,3.55-1.11,7.16-1.01,10.85-1.04.23-1.46-.67-1.99-1.67-2.45-1.5-.7-3.08-.65-4.66-.51-1.49.13-2.99.3-4.44.62-2.32.52-2.34.6-3.47-1.39-.74-1.29-1.28-2.68-1.58-4.14-.19-.93.1-1.55,1.09-1.92,5.81-2.18,11.74-2.85,17.84-1.59,3.68.76,7.41,4.6,8.02,8.29.28,1.72.51,3.45.48,5.21-.07,4.08-.04,8.16-.06,12.23-.01,2.49-.28,2.81-2.8,3.1-1.15.14-2.32.19-3.49.2-3.06.04-3.07.02-4.19-3.05Zm-3.59-8.39c-.5,0-1-.03-1.49,0-.66.05-1.41.07-1.54.93-.14.92.2,1.59,1.13,1.96,1.29.51,2.62.4,3.93.26.78-.08.93-.89,1.04-1.53.12-.66-.29-1.07-.88-1.33-.71-.32-1.45-.32-2.2-.3Z"/>
    <path class="cls-1" d="m691.01,65.78c1.3-.9,2.33-1.75,3.49-2.38,2.68-1.46,5.34-1.23,8.08.06,4.9,2.3,6.18,6.6,6.37,11.39.2,5.07.04,10.16.11,15.24.02,1.16-.4,1.67-1.51,1.8-2.49.29-4.97.49-7.47.27-1.84-.16-1.97-.23-2-2.07-.05-3.41,0-6.83-.07-10.24-.03-1.49-.23-2.98-.42-4.47-.18-1.35-.99-2.34-2.24-2.75-2.17-.7-3.49.31-3.5,2.65-.03,4.58.01,9.16,0,13.74,0,2.6-.19,2.77-2.8,3.05-2.16.23-4.33.16-6.49.08-1.71-.06-1.81-.15-1.87-1.92-.09-2.91-.07-5.83-.1-8.74-.06-4.91-.17-9.82-.18-14.73,0-2.17.1-2.19,2.11-2.68,1.87-.46,3.78-.62,5.69-.69,2.19-.08,2.19-.06,2.79,2.4Z"/>
    <path class="cls-1" d="m276.44,155.71c-2.18.05-4.18-.45-6.18-1.39-3.63-1.69-6.1-4.38-7.1-8.14-.77-2.87-1.01-5.87-.45-8.9,1.29-6.94,7.1-11.19,13.42-11.63,4.03-.28,7.75.37,11.21,2.46,2.34,1.41,3.68,3.7,4.54,6.09,1.31,3.66,1.35,7.55.35,11.31-1.69,6.4-6.95,9.69-13.54,10.19-.74.06-1.5,0-2.25,0Zm4.84-15.06c0-.35.1-1.19-.02-2.01-.44-3.06-2.6-4.57-5.46-3.93-.63.14-1.11.37-1.18,1.07-.24,2.48-.65,4.95-.17,7.44.5,2.65,2.1,3.76,4.8,3.38.97-.14,1.55-.61,1.7-1.52.22-1.31.56-2.61.34-4.43Z"/>
    <path class="cls-1" d="m865.42,92.69c-6,.18-10.3-2.23-12.86-7.04-2.97-5.59-2.81-11.38.7-16.79,2.68-4.14,6.77-5.94,11.59-6.22,1.24-.07,2.49-.04,3.74,0,5.1.17,10.81,3.79,12.05,10.31.57,2.99.69,5.92.07,8.9-1.12,5.33-4.62,8.42-9.56,10.13-1.98.68-4.06.77-5.72.72Zm4.04-14.4s.05,0,.08,0c-.06-1.16,0-2.34-.19-3.47-.47-2.71-3.21-4.1-5.7-2.99-.5.22-.83.58-.89,1.11-.33,2.89-.62,5.8.32,8.63.61,1.82,2.07,2.46,4.24,2.12,1.39-.22,2.02-1.13,2.13-3.15.04-.74,0-1.49,0-2.24Z"/>
    <path class="cls-2" d="m703.34,152.34c-.89-.11-1.18.5-1.6.85-3.49,2.96-7.42,3.46-11.53,1.42-4.03-2-6.04-7-4.47-11.23.77-2.08,2.37-3.39,4.33-4.27,2.38-1.07,4.91-1.53,7.52-1.57.91-.01,1.83.07,2.74.06.54,0,1.27.32,1.57-.3.34-.7-.27-1.24-.71-1.72-.66-.71-1.53-.98-2.48-.99-2.66-.02-5.34-.15-7.92.67-1.28.41-1.9.33-2.6-1.11-.72-1.48-1.56-2.91-2.08-4.5-.22-.69-.19-1.3.62-1.64,6.09-2.57,12.42-3.37,18.77-1.55,5.37,1.54,7.64,5,7.91,10.81.11,2.33.05,4.66.05,6.99,0,2.75-.08,5.5.04,8.24.05,1.19-.5,1.65-1.44,1.9-2.43.66-4.91.76-7.41.62-.64-.04-1.07-.4-1.15-1.1-.06-.55-.12-1.09-.18-1.59Zm-4.35-8.63c-.16.01-.83.02-1.49.11-.58.07-1.2.21-1.33.92-.11.64.29,1.12.72,1.51,1.1,1,2.46.86,3.79.77,1.58-.11,1.75-.35,1.76-1.74.01-1.23-.62-1.61-1.71-1.57-.42.02-.83,0-1.75,0Z"/>
    <path class="cls-1" d="m474.81,152.37c-.62.1-.85.47-1.15.75-5.2,5.09-13.28,2.75-16.3-3.22-.91-1.8-.43-4.06-.29-6.14.08-1.23,1.09-1.6,1.7-2.3,2.26-2.58,5.2-3.79,8.61-3.87,1.75-.04,3.5,0,5.25-.03.92-.01,1.22-.47.73-1.28-.58-.97-1.31-1.62-2.57-1.7-2.77-.17-5.47.15-8.16.75-1.99.44-2.21.28-3.07-1.54-.35-.75-.77-1.47-1.07-2.24-1.1-2.74-.77-3.78,2.14-4.54,5.67-1.49,11.42-2.35,17.19-.38,4.3,1.47,6.72,4.53,7.08,8.97.46,5.73.14,11.5.21,17.25.01,1.12-.49,1.63-1.57,1.85-2.23.46-4.47.42-6.72.41-.9,0-1.38-.41-1.47-1.32-.05-.48,0-1.02-.54-1.42Zm-3.47-8.61s0-.03,0-.05c-.66.04-1.34.03-1.99.13-.55.08-1.25.08-1.34.86-.07.6.2,1.11.64,1.55,1.11,1.13,3.91,1,4.9.31.73-.51.53-1.14.48-1.77-.06-.71-.54-.99-1.2-1.02-.5-.02-1,0-1.5,0Z"/>
    <path class="cls-1" d="m379.32,152.28c-1.26.11-1.84,1.22-2.49,1.92-1.51,1.62-3.32,1.73-5.23,1.66-1.67-.07-3.29-.5-4.85-1.11-5.18-2.01-6.18-7.6-5-11.42.55-1.79,2.08-3.16,3.82-4.08,2.56-1.35,5.31-1.77,8.17-1.68,1.08.03,2.16.02,3.24.04.42,0,.86-.02,1.07-.46.25-.53-.07-.98-.39-1.34-.7-.78-1.6-1.17-2.65-1.19-2.49-.05-4.95-.13-7.41.55-3,.84-2.55.51-3.72-1.77-.6-1.18-1.29-2.33-1.45-3.7-.12-1.03.11-1.64,1.22-2.08,3.69-1.46,7.51-1.94,11.45-2.1,3.43-.14,6.58.62,9.54,2.23,2.86,1.55,4.21,4.15,4.7,7.24.21,1.31.21,2.65.22,3.98.02,4.33,0,8.66-.01,12.98,0,2.4-.25,2.73-2.61,2.99-1.57.17-3.16.17-4.74.17-2.04,0-2.03-.03-2.58-2.16-.06-.23-.19-.44-.3-.68Zm-3.77-8.56c-.53.03-.87,0-1.18.07-.66.14-1.58-.16-1.79.88-.2.97.38,1.85,1.5,2.23,1.04.36,2.12.29,3.18.22,1.15-.07,1.42-.92,1.46-1.93.04-1-.55-1.27-1.39-1.33-.66-.05-1.31-.11-1.77-.15Z"/>
    <path class="cls-2" d="m363.97,74.42c-.51-2.25-2.14-2.63-3.81-2.79-2.51-.24-4.99.08-7.43.65-1.96.46-1.98.47-2.93-1.24-.77-1.38-1.47-2.8-2-4.3-.35-1.01-.04-1.62.91-1.95,5.76-1.99,11.67-3.09,17.66-1.56,5.47,1.4,8.5,4.42,8.61,10.7.1,5.33.03,10.67.08,16,.01,1.23-.33,1.79-1.68,1.81-1.99.02-3.98.27-5.98.37-1.4.07-2.14.28-2.03-1.88.02-.31-.09-.63-.15-1.04-1.15-.08-1.73.75-2.31,1.35-2.28,2.36-5.05,2.66-8.05,2.06-6.13-1.22-9.16-6.16-7.42-12.09.98-3.34,3.81-4.43,6.69-5.37,2.23-.73,4.57-.66,6.9-.59.91.03,1.82.25,2.93-.13Zm-2.52,9.65c.58-.04,1.17-.03,1.74-.12.9-.14,1.22-.77,1.19-1.62-.03-.85-.37-1.5-1.28-1.56-1.41-.1-2.84-.23-4.22.15-1.17.33-1.35,1.09-.6,2.06.83,1.07,1.98,1.11,3.17,1.09Z"/>
    <path class="cls-2" d="m562.16,74.52c-.6-1.96-1.77-2.79-3.5-2.94-2.6-.22-5.18.01-7.65.79-1.4.44-2.16.09-2.89-1.07-.9-1.43-1.39-3.01-1.94-4.58-.35-1-.08-1.48.91-1.89,3.28-1.33,6.67-2.08,10.19-2.2,2.91-.1,5.8-.22,8.61.92,4.12,1.68,6.7,4.41,7.26,8.99.41,3.33.22,6.65.28,9.98.05,2.58-.03,5.16-.02,7.75,0,.91-.3,1.31-1.27,1.41-2.07.2-4.14.44-6.22.4-2.12-.05-2.12-.03-2.52-2.09-.05-.23-.14-.46-.26-.82-1.04.1-1.51.99-2.13,1.55-3.26,2.92-6.87,2.61-10.47.99-3.59-1.62-5.37-4.52-5.3-8.56.05-2.93,1.48-4.96,3.78-6.47,2.36-1.55,5.03-2.13,7.84-2.13,1.71,0,3.41,0,5.29,0Zm-2.53,6.19c-.91-.02-1.82-.11-2.7.28-.8.35-.94.81-.55,1.57.42.81,1.04,1.31,1.93,1.37.83.06,1.66-.03,2.49.02,1.15.07,1.67-.33,1.63-1.56-.03-1.1-.33-1.77-1.56-1.69-.41.03-.83,0-1.25,0Z"/>
    <path class="cls-1" d="m745.9,76.69c.03-.42.07-.83.08-1.25.05-1.61.43-3.06,1.19-4.54,2.78-5.36,7.07-8.02,13.1-8.32,3.99-.2,7.5.94,10.87,2.84,1.12.63,1.8,1.7,2.55,2.7,3.07,4.13,4.1,15.44-1.64,20.36-4.6,3.95-9.86,4.87-15.63,3.83-5.77-1.04-10.23-6.55-10.44-12.14-.04-1.16,0-2.33,0-3.49-.03,0-.05,0-.08,0Zm11.7.12h0c0,.99.02,1.99,0,2.98-.05,1.74,1.02,2.76,2.38,3.49,2.43,1.3,4.32.27,4.52-2.41.14-1.9.23-3.82-.11-5.7-.41-2.29-2.38-3.71-4.66-3.56-1.27.09-2.04.68-2.12,1.97-.07,1.07-.01,2.15-.01,3.23Z"/>
    <path class="cls-2" d="m162.6,62.65c1.75-.06,3.47.02,5.16.65,6.16,2.29,9.12,6.47,9.35,13.06.16,4.52-.72,8.6-4.03,11.92-1.93,1.94-4.16,3.27-6.86,3.87-3.14.7-6.27.88-9.39.02-5.6-1.55-9.38-6.11-9.86-11.9-.17-2.08-.26-4.17.18-6.23,1.39-6.58,6.93-11.17,13.7-11.38.58-.02,1.17,0,1.75,0Zm-4.22,14.4c.05,0,.11,0,.16,0,0,1.08-.12,2.17.02,3.23.38,2.78,3.27,4.36,5.86,3.28.34-.14.52-.37.6-.71.66-2.95.91-5.93,0-8.85-.54-1.75-3.18-2.83-4.89-2.19-.84.31-1.42.85-1.51,1.77-.12,1.15-.17,2.31-.25,3.47Z"/>
    <path class="cls-2" d="m451.88,92.74c-1.16-.08-2.34-.05-3.48-.26-5.89-1.09-9.73-4.45-11.11-10.37-.61-2.62-.68-5.3-.14-7.93,1.11-5.43,4.25-9.13,9.64-10.71,4.25-1.25,8.48-1.45,12.64.52,3.78,1.8,6.23,4.62,7.16,8.72.95,4.15.98,8.21-.98,12.15-2.48,4.98-6.76,7.09-11.98,7.77-.57.08-1.16.01-1.74.01,0,.03,0,.06,0,.08Zm-3.41-15.94c0,.83-.04,1.66,0,2.49.16,2.99,1.88,4.48,4.85,4.39,1.09-.03,1.71-.39,1.9-1.49.4-2.3.52-4.62.15-6.93-.13-.82-.44-1.61-.92-2.29-.79-1.12-2.98-1.73-4.54-1.26-1.47.44-1.35,1.72-1.44,2.86-.06.74-.01,1.49-.01,2.24Z"/>
    <path class="cls-1" d="m53.07,143.04c-2.33,0-4.66,0-6.99,0-.49,0-1.07-.14-1.36.34-.36.59.04,1.19.41,1.58.83.9,1.72,1.68,3.13,1.7,3.17.05,6.34.04,9.43-.68,1.28-.3,1.89.03,2.15,1.26.36,1.7.99,3.33,1.16,5.08.11,1.11-.24,1.8-1.27,2.07-6.29,1.64-12.65,2.28-18.81-.26-4.72-1.94-7.03-5.95-7.59-10.89-.24-2.13-.23-4.36.12-6.48.61-3.77,2.73-6.69,5.87-8.87,1.68-1.17,3.55-1.82,5.56-2.04,3.48-.37,6.97-.68,10.22,1.13,2.9,1.61,5.22,3.59,6.03,7.1.52,2.24,1.5,4.36,1.35,6.75-.11,1.93-.27,2.17-2.17,2.2-2.41.04-4.83.01-7.24.01,0,0,0-.01,0-.02Zm-5.64-6.23s0-.08,0-.12c.75,0,1.49.03,2.24,0,.47-.02,1.05.07,1.2-.59.12-.55-.19-.95-.54-1.32-1.06-1.14-4.53-1.61-5.86-.83-.71.41-.7,1.05-.68,1.73.02.77.52.95,1.16.99.83.05,1.65.1,2.48.16Z"/>
    <path class="cls-1" d="m909.52,92.66c-2.8-.05-5.73-.31-8.37-2.02-3.05-1.97-5.18-4.62-6.04-8.13-1.07-4.36-.39-8.62,1.47-12.66.81-1.75,2.19-3.15,3.8-4.23,6.13-4.1,12.49-4.1,18.88-.72,2.86,1.51,4.33,4.26,5.25,7.26.31,1.01.39,2.1.57,3.15.6,3.57-.6,6.84-1.72,10.12-.21.61-.7,1.13-1.11,1.64-2.74,3.4-7.77,6.02-12.73,5.58Zm-3.02-16.25c0,1.41-.1,2.82.23,4.21.61,2.56,3.28,3.9,5.65,2.88.51-.22.83-.62.89-1.11.35-2.88.61-5.8-.22-8.62-.55-1.88-2-2.45-4.45-2.09-1.71.25-1.99.64-2.09,3-.02.58,0,1.16,0,1.74Z"/>
    <path class="cls-1" d="m590.94,143.49c.53,1.75,1.44,2.53,3.18,2.81,2.67.43,5.28.5,7.93,0,4.17-.78,4.38-.74,5.3,3.39,1.17,5.24,1.42,4.2-3.26,5.31-4.88,1.16-9.97,1.31-14.84-.03-2.57-.71-4.93-2.28-6.54-4.7-2.65-3.99-3.02-8.33-2.45-12.93,1-8.02,7.6-11.21,13.41-11.71,2.79-.24,5.44.27,8.01,1.22,3.64,1.34,5.8,4.08,6.72,7.79.54,2.19.66,4.43.69,6.69.02,1.36-.62,1.72-1.82,1.71-4.25-.03-8.49-.03-12.74,0-1.15,0-2.33-.18-3.59.45Zm-.28-6.85c2.05,0,3.93.05,5.82-.02,1.17-.04,1.42-.57.91-1.6-.35-.7-.86-1.23-1.66-1.33-.89-.11-1.83-.34-2.69-.2-2.26.36-2.83.24-2.37,3.14Z"/>
    <path class="cls-2" d="m622.89,62.65c2.23-.28,4.59.43,6.91,1.45,2.99,1.31,5.02,3.55,6.17,6.53,1.59,4.09,1.68,8.29.37,12.47-1.67,5.34-6.66,9.02-12.83,9.54-1.66.14-3.33.08-4.98-.18-7.6-1.18-11.84-6.82-11.73-15.17.13-10.17,8.3-14.99,16.08-14.64Zm-4.42,14.23s.03,0,.04,0c0,1-.07,2,.01,2.99.24,2.97,2.86,4.67,5.71,3.76.45-.14.71-.41.81-.84.71-3.04.97-6.1-.19-9.06-.77-1.96-2.33-2.56-4.79-2.06-1.82.37-1.37,2.01-1.57,3.22-.11.65-.02,1.33-.02,1.99Z"/>
    <path class="cls-1" d="m209.48,143.02c-2.5,0-4.99,0-7.49,0-.47,0-1.09-.16-1.33.38-.28.61.12,1.2.55,1.53,1.27.96,2.68,1.61,4.32,1.73,2.6.2,5.14-.22,7.68-.66,1.92-.33,1.9-.31,2.64,1.55.59,1.48.9,3.02,1.2,4.57.26,1.34-.2,1.96-1.49,2.32-3.24.9-6.54,1.07-9.86,1.28-3.14.2-6.17-.39-9.04-1.33-2.15-.7-3.85-2.56-5.07-4.57-3.16-5.25-3.14-10.78-.86-16.27,2.28-5.5,6.92-7.57,12.56-7.97,2.6-.18,5.03.26,7.45,1.23,3.63,1.47,5.66,4.27,6.81,7.8.7,2.14.92,4.39.83,6.66-.08,1.72-.09,1.74-1.93,1.74-2.33,0-4.66,0-6.99,0v-.02Zm-6.02-6.37s0,0,0,0c.75,0,1.5.02,2.24,0,.47-.02,1.07.08,1.22-.57.12-.52-.17-.96-.51-1.34-1.04-1.17-4.47-1.73-5.88-.94-.84.47-.99,1.3-.91,2.16.08.85.8.68,1.34.7.83.03,1.66,0,2.49,0Z"/>
    <path class="cls-2" d="m297.27,79.9c-2.5,0-4.99,0-7.49,0-.48,0-1.05-.09-1.32.45-.32.63.05,1.13.48,1.54,1.13,1.06,2.44,1.73,4.03,1.71,2.98-.03,5.99.31,8.88-.67.88-.3,1.4-.2,1.72.73.63,1.81,1.25,3.61,1.52,5.52.16,1.17-.2,1.88-1.4,2.22-5.13,1.45-10.35,1.75-15.56.83-4.73-.83-7.98-3.8-10.07-8.04-.27-.55-.52-1.13-.49-1.86.06-2.07-.15-4.15-.14-6.23.04-6.08,3.87-11.08,9.68-12.74,3.25-.93,6.52-1.15,9.81-.25,3.38.92,6.01,2.8,7.57,6,1.41,2.89,2.07,5.94,1.99,9.17-.03,1.26-.39,1.78-1.72,1.74-2.49-.08-4.99-.02-7.49-.02v-.12Zm-1.79-6.4c-.67-1.25-.95-2.43-2.11-2.71-1.53-.37-3.14-.42-4.66-.04-1.01.25-1.19,1.32-1.09,2.25.09.8.85.67,1.38.67,2.05-.01,4.12.15,6.48-.17Z"/>
    <path class="cls-2" d="m225.69,79.93c-2.41,0-4.83,0-7.24,0-.48,0-1.07-.14-1.35.37-.35.65.22,1.09.56,1.52.99,1.29,2.41,1.74,3.96,1.78,2.41.07,4.83.16,7.22-.34.65-.14,1.32-.14,1.98-.24.86-.13,1.48.1,1.71,1.01.02.08.05.16.08.24.82,2.02,1.27,4.12,1.26,6.31-1.65,1.28-3.69,1.58-5.61,1.75-4.45.4-8.94.89-13.34-.66-4.98-1.75-7.8-5.21-8.66-10.32-.55-3.25-.4-6.47.77-9.6,2.02-5.36,6.01-8.28,11.56-9.03,3.94-.53,7.74-.07,11.15,2.4,1.48,1.07,2.55,2.33,3.4,3.88,1.56,2.86,2.1,5.93,1.98,9.14-.06,1.71-.18,1.79-1.93,1.8-2.5.02-4.99,0-7.49,0,0-.01,0-.02,0-.03Zm-1.77-6.4c-.12-1.46-.91-2.37-2.19-2.72-1.51-.42-3.11-.73-4.6.1-.84.47-.84,1.42-.73,2.23.11.78.88.59,1.42.58,1.98-.02,3.98.14,6.1-.18Z"/>
    <path class="cls-2" d="m925.33,143.16c1.49,2.33,3.2,3.51,5.53,3.48,2.88-.04,5.78.33,8.62-.5.68-.2,1.36.05,1.63.79.62,1.68,1.28,3.36,1.76,5.09.4,1.47.1,2.02-1.38,2.41-5.46,1.44-11.01,1.99-16.53.52-5.65-1.5-9.79-6.11-9.82-12.59,0-1.83-.14-3.65.25-5.47,1.09-5.15,3.96-8.69,9.05-10.32,3.5-1.12,7.05-1.39,10.54-.27,5.93,1.9,8.56,5.72,9.02,12.67.31,4.65.61,3.95-3.57,3.96-4.16,0-8.33.05-12.49.09-.73,0-1.46.09-2.64.16Zm7.46-6.45c.11-1.66-.68-2.59-1.98-2.9-1.6-.38-3.3-.53-4.82.3-.71.39-.66,1.32-.52,2.03.15.77.88.57,1.42.57,1.97,0,3.94,0,5.9,0Z"/>
    <path class="cls-2" d="m864.12,143.26c.6,2.28,2.02,3.19,4.15,3.3,2.92.16,5.82.17,8.71-.37,2.09-.39,2.25-.3,3.01,1.59.61,1.51,1.14,3.06,1.42,4.69.17.97-.1,1.51-1.12,1.85-1.91.64-3.87,1.02-5.86,1.19-3.83.33-7.66.41-11.43-.52-2.52-.62-4.56-2.04-6.19-4.07-3.28-4.08-3.84-8.75-2.96-13.7.29-1.61.6-3.24,1.49-4.69,2.75-4.49,7-6.23,11.99-6.9,3.24-.43,5.91.8,8.72,2.07,4.45,2.02,5.8,5.85,6.43,10.17.17,1.15-.02,2.34.1,3.49.13,1.27-.46,1.6-1.59,1.6-4.83-.02-9.66,0-14.5,0-.75,0-1.49-.18-2.38.29Zm-.64-6.74c2.32.34,4.65.2,6.97.13,1.01-.03,1.24-.6.66-1.48-1.08-1.63-2.76-1.69-4.45-1.6-2.26.11-2.74.58-3.18,2.95Z"/>
    <path class="cls-2" d="m594.02,58.33c0,1.25.06,2.5-.02,3.75-.07,1.12.43,1.48,1.45,1.47,2,0,4,.07,5.99.06,2.24-.01,2.23-.04,2.49,2.26.21,1.83.02,3.66-.02,5.49-.02,1.11-.59,1.42-1.59,1.4-2.25-.05-4.5,0-6.74-.09-1.2-.04-1.64.43-1.58,1.61.07,1.33-.01,2.66.02,4,.07,2.55,1.62,4.17,4.18,4.33.91.06,1.83-.06,2.74-.09,1.91-.06,1.88-.05,2.27,1.73.43,1.97.26,3.99.55,5.96.13.86-.27,1.49-1.13,1.66-4.28.89-8.51,1.13-12.7-.56-4.44-1.79-6.16-5.35-6.48-9.79-.16-2.24-.07-4.5-.16-6.74-.08-1.99-.19-2.05-2.24-2.05-.17,0-.33.02-.5.02-4.59,0-4.01.8-4.2-4.07-.06-1.55-.53-3.48.42-4.6.92-1.08,2.83-.34,4.3-.43,1.72-.11,1.73-.09,1.66-1.94-.06-1.58-.13-3.16-.26-4.74-.09-1.08.31-1.63,1.37-2,2.6-.92,5.18-1.83,7.98-1.87,2.1-.03,2.12-.02,2.17,1.99.03,1.08,0,2.17,0,3.25h.01Z"/>
    <path class="cls-2" d="m902.15,121.56c0,1.25.05,2.5-.02,3.74-.05.98.34,1.35,1.29,1.33,2.16-.03,4.33-.04,6.49-.03,2.02,0,2.01.02,2.22,2.04.19,1.83.12,3.65.05,5.48-.04,1.17-.52,1.62-1.66,1.61-2.25-.03-4.49.07-6.74.01-1.2-.03-1.66.37-1.57,1.58.1,1.33.04,2.66.11,3.99.14,2.54,1.71,4.12,4.26,4.31,1.08.08,2.16.03,3.21-.3,1.02-.32,1.59.08,1.71,1.15.25,2.23.56,4.45.57,6.71,0,1.13-.4,1.75-1.5,1.86-3.81.41-7.61.65-11.4-.34-3.38-.88-5.4-3.08-6.59-6.2-.81-2.12-1.15-4.32-1.09-6.6.04-1.58-.07-3.16-.04-4.74.02-1.06-.37-1.51-1.46-1.47-1.33.05-2.66,0-3.99,0-.79,0-1.17-.32-1.29-1.15-.31-2.16-.29-4.31-.1-6.47.09-1.02.58-1.48,1.61-1.45,1.16.04,2.33,0,3.49.05.93.04,1.38-.28,1.32-1.28-.09-1.58,0-3.17-.17-4.74-.15-1.37.28-2.18,1.57-2.71,2.56-1.06,5.17-1.83,7.95-1.95,1.62-.07,1.74.03,1.79,1.58.05,1.33.01,2.66.01,3.99-.01,0-.03,0-.04,0Z"/>
    <path class="cls-2" d="m349.45,298.21c0,5.25-.01,10.5,0,15.74,0,2.76-.01,2.66-2.48,2.9-1.41.14-2.81.28-4.23.27-.75,0-1.27-.17-1.36-1.06-.13-1.25-.87-.96-1.59-.53-.43.26-.85.53-1.23.86-1.77,1.55-3.71,1.6-5.84.87-4.72-1.62-7.16-5.03-7.61-9.84-.76-8.22,4.44-14.17,12.71-14.74,2-.14,1.98-.14,1.89-2.16-.1-2.33-.13-4.66-.24-6.99-.05-1.06.35-1.63,1.35-2.06,2.16-.94,4.39-1.56,6.73-1.75,1.7-.14,1.86.02,1.87,1.74.02,5.58,0,11.16.01,16.74Zm-9.25,7.05h-.07c0-.41,0-.83,0-1.24,0-.5,0-1-.03-1.49-.12-1.6-.36-1.81-1.97-1.86-.92-.02-1.81.11-2.68.43-.4.14-.88.27-.91.73-.15,2.2-.67,4.48.95,6.42.63.75,3.3,1.44,4.13.97,1.02-.57.45-1.62.56-2.47.06-.49.01-.99.01-1.49Z"/>
    <path class="cls-1" d="m537.57,239.49c5-4.25,13.02-.29,14.36,4.92,1.08,4.19,1.34,8.41-1.25,12.28-1.67,2.5-3.82,4.46-6.76,5.22-4.69,1.22-9.4.97-14.08-.27-1.13-.3-1.43-.91-1.4-1.97.05-2.08.07-4.17.02-6.25-.17-7.91-.35-15.82-.55-23.72-.07-2.73.2-3.15,2.81-3.85,1.68-.46,3.35-1,5.12-1.04,1.6-.04,1.71,0,1.72,1.64.03,4.24,0,8.48,0,13.06Zm.05,10.42s-.02,0-.03,0c0,1.08-.02,2.15,0,3.23.02.6.18,1.24.87,1.33,1.4.17,2.91.41,4.11-.46,1.45-1.05.72-2.76.74-4.16.02-1.07.18-2.43-1.19-3-.83-.34-1.69-.62-2.57-.8-1.49-.3-1.86.05-1.93,1.63-.03.74,0,1.49,0,2.24Z"/>
    <path class="cls-1" d="m719.84,240.36c1.67-1.48,3.27-2.67,5.37-2.81,3.86-.26,8.42,2.92,9.49,6.63.45,1.58.96,3.15.97,4.85.04,7.53-4.73,12.81-12.26,13.47-.33.03-.67.02-1,.05-1.83.12-1.85.12-1.86,2.01,0,1.58,0,3.17.07,4.75.05,1.13-.2,1.69-1.46,2.09-1.88.6-3.75.72-5.66.81-1.86.09-1.92.02-1.98-1.92-.16-5.58-.31-11.16-.43-16.74-.09-4-.04-8-.23-11.99-.06-1.34.45-1.92,1.53-2.42,1.95-.91,4.05-.9,6.11-.97,1.39-.05.78,1.39,1.34,2.2Zm.68,9.78h-.05c0,.5,0,1,0,1.49,0,2.99.26,3.24,3.25,3.04,1.78-.12,2.45-.82,2.53-2.68.02-.58.02-1.16-.02-1.74-.2-2.86-.89-3.46-3.61-4.2-1.74-.47-2.03-.18-2.1,1.59-.03.83,0,1.66,0,2.49Z"/>
    <path class="cls-1" d="m620.46,26.68c0,1.92-.04,3.83.02,5.75.03.95-.38,1.37-1.27,1.47-1.74.19-3.47.36-5.23.23-1.3-.09-1.71-.68-1.71-1.89,0-2.83-.05-5.66-.1-8.5-.01-.75-.02-1.51-.19-2.23-.25-1.04-.89-1.75-2.07-1.85-1.35-.12-1.73.15-1.78,1.66-.07,2.41-.04,4.83-.05,7.25,0,.75-.01,1.5-.02,2.25q-.03,3.15-3.09,3.25-4.95.16-5-4.7c-.02-1.58-.03-3.16,0-4.75.02-1.36-.41-2.58-.94-3.81-.48-1.11-1.36-1.11-2.28-1-1,.12-1.03.93-1.02,1.71.06,3.25.15,6.5.17,9.74.01,2.53-.03,2.55-2.64,2.76-1.33.11-2.66.13-3.99.18-1.13.04-1.67-.43-1.65-1.63.03-2.08-.05-4.17-.06-6.25-.03-3.58,0-7.17-.42-10.73-.16-1.4.32-1.87,1.64-2.13,1.56-.31,3.13-.42,4.7-.61.5-.06,1.21-.12,1.35.36.44,1.45,1.12,1.06,1.88.37,2.28-2.08,5.57-1.78,8.19.4,1.03.86,1.89.83,2.91.21.35-.22.69-.47,1.02-.72,3.11-2.4,6.3-.93,9.08.93.89.6,1.25,1.72,1.63,2.75,1.04,2.78.91,5.66.92,8.54,0,.33,0,.67,0,1h0Z"/>
    <path class="cls-1" d="m788.7,253.39c3.52.45,6.67.19,9.81.28,1.87.05,1.85.06,2.23,1.82.28,1.32.25,2.65.18,3.98-.11,2.16-.18,2.22-2.33,2.23-6.08.02-12.16,0-18.23.02-1.08,0-2.17-.02-3.25.04-.92.05-1.34-.34-1.53-1.23-.45-2.09-.27-4.15.12-6.2.15-.76.64-1.3,1.3-1.75,2.88-1.95,5.38-4.38,8.17-6.46,2.13-1.59,3.98-3.59,3.8-6.65-.11-1.85-.64-2.52-2.52-2.75-2.46-.3-4.78.03-6.95,1.4-1.6,1.01-1.9.87-3.06-.62-.2-.26-.38-.55-.56-.83-2.26-3.54-1.8-5.07,2.01-6.59,3.35-1.34,6.77-2.16,10.44-1.91,2.75.18,5.14,1.35,7.37,2.68,2.54,1.51,3.57,4.22,3.38,7.08-.22,3.28-.9,6.33-3.29,9.11-2.05,2.39-4.64,3.96-7.1,6.35Z"/>
    <path class="cls-1" d="m311.11,125.65c2.16.01,4.32-.03,6.47.42,1.22.26,1.66.83,1.62,2.05-.06,1.77-.34,3.48-.87,5.15-.5,1.55-.7,1.81-2.28,1.38-2.22-.59-4.45-.55-6.69-.54-.87,0-2.31-.39-2.45.57-.18,1.19,1.38,1.52,2.29,1.77,1.35.37,2.72.75,4.1,1.03,1.51.3,2.75,1.12,4.11,1.69,3.22,1.36,3.59,4.12,3.55,6.95-.06,4.28-2.69,7.47-7.28,8.72-4.91,1.34-9.9,1.25-14.82-.05-2.46-.65-2.54-.91-2.28-3.57.15-1.5.29-3,1.18-4.29.44-.64.82-.96,1.81-.72,2.98.71,6.02,1.21,9.11.86.41-.05.83-.04,1.24-.1.4-.06.86-.13.86-.69,0-.39-.34-.52-.65-.66-1.89-.83-3.89-1.32-5.87-1.88-1.29-.36-2.54-.8-3.71-1.45-4.05-2.26-5.23-5.85-3.53-10.21,1.82-4.66,5.82-5.77,10.11-6.43,1.3-.2,2.66-.03,3.99-.03Z"/>
    <path class="cls-1" d="m438.22,155.7c-1.94.33-4.26-.23-6.6-.61-2.16-.35-2.79-1.21-2.6-3.38.14-1.58.43-3.1,1.16-4.55.45-.9.85-1.04,1.9-.84,3.17.59,6.37,1.24,9.63.59.46-.09,1.09.1,1.2-.56.11-.63-.47-.87-.91-1.01-1.82-.58-3.66-1.14-5.5-1.64-2.21-.6-4.19-1.56-5.86-3.16-.9-.86-1.41-1.86-1.56-3.04-.22-1.66-.22-3.34.1-4.98.47-2.41,2.35-3.72,4.24-4.92,1.64-1.03,3.51-1.6,5.42-1.77,3.73-.35,7.48-.51,11.19.32,1.64.37,1.97.68,1.76,2.41-.21,1.71-.66,3.39-1.11,5.05-.3,1.14-1.02,1.61-2.27,1.14-2.07-.76-4.26-.69-6.42-.7-.58,0-1.18.02-1.73.16-.77.2-.9.69-.3,1.26.49.47,1.1.82,1.76.9,2,.25,3.81,1.13,5.71,1.71,4.09,1.23,6.5,3.93,6.1,8.49-.24,2.78-1.58,5.15-4.03,6.76-3.31,2.17-6.99,2.5-11.25,2.36Z"/>
    <path class="cls-1" d="m623.85,155.74c-3.55-.02-6.62-.16-9.56-1.29-1.11-.42-1.62-.89-1.57-2.34.07-2.05.93-3.73,1.56-5.54.27-.77.73-.98,1.54-.6,3.23,1.51,6.68,1.09,10.08,1.06.41,0,.86-.1.9-.65.03-.36-.21-.63-.47-.84-.68-.53-1.51-.66-2.32-.87-1.85-.48-3.71-.94-5.53-1.53-3.88-1.28-5.69-3.53-5.86-7.13-.18-3.69,1.85-7.02,5.12-8.66,2.29-1.15,4.67-1.75,7.21-1.71,2.82.05,5.67-.3,8.46.37,2.25.53,2.26.56,2,2.85-.14,1.24-.26,2.49-.54,3.71-.48,2.07-.82,2.3-2.93,2-2.15-.31-4.3-.56-6.47-.45-.76.04-1.94-.27-1.97.9-.03.97.76,1.54,1.87,1.53,2.13,0,4.01,1.04,6.01,1.59,3.5.97,5.69,3.32,6.04,6.86.38,3.81-1.41,6.74-4.74,8.7-2.88,1.71-5.99,2.31-8.84,2.04Z"/>
    <path class="cls-1" d="m799.58,92.72c-1.58-.07-3.16-.23-4.74-.19-1.63.04-2.72-.98-3.96-1.73-.61-.36-.44-1-.4-1.59.12-1.98.96-3.79,1.4-5.7.2-.87,1.02-.77,1.81-.52,2.63.84,5.34,1.29,8.11,1.13.91-.05,2.39.22,2.53-.96.16-1.3-1.36-1.19-2.25-1.41-2.82-.7-5.63-1.37-8.23-2.74-.93-.49-1.63-1.1-2.19-1.96-2.72-4.15-1.02-10.31,3.59-12.57,2.47-1.21,5.08-2.04,7.92-1.92,2.74.12,5.49-.15,8.21.48,2.03.47,2.32.84,1.92,2.93-.27,1.39-.56,2.77-.89,4.15-.38,1.58-.58,1.76-2.27,1.45-2.72-.5-5.46-.56-8.21-.48-.45.01-1.08-.13-1.23.52-.16.69.31,1.08.87,1.34,1.3.61,2.69.85,4.08,1.1,2.07.37,3.99,1.12,5.82,2.1,1.94,1.04,3.2,2.64,3.47,4.88.3,2.46-.04,4.82-1.38,6.97-.77,1.24-1.79,2.14-3.16,2.72-3.15,1.34-6.35,2.33-9.84,1.96-.33-.04-.67,0-1,0,0,.01,0,.03,0,.04Z"/>
    <path class="cls-1" d="m939.1,92.79c-3.08-.14-6.24-.15-9.22-1.41-.97-.41-1.38-.89-1.22-2.05.22-1.53.16-3.11.85-4.55.84-1.76,1.19-1.93,3.04-1.48,3.02.74,6.09.91,9.18.74.49-.03,1.07-.01,1.2-.64.12-.57-.32-.93-.77-1.16-.44-.23-.92-.47-1.39-.5-2.38-.13-4.51-1.12-6.72-1.84-2.91-.95-4.96-2.85-5.35-5.98-.4-3.31.42-6.3,3.34-8.34,1.93-1.35,3.98-2.41,6.38-2.66,4.06-.41,8.11-.81,12.11.5.85.28,1.21.58,1.17,1.55-.09,2.09-1.07,3.97-1.32,6.02-.1.88-.87,1.01-1.75.76-2.51-.69-5.1-.74-7.68-.61-.56.03-1.37-.1-1.44.63-.07.75.34,1.57,1.21,1.6.94.03,1.63.65,2.61.65,2.48,0,4.71,1.08,6.73,2.41,2.84,1.86,3.66,5.5,2.87,8.66-1.32,5.26-5.4,6.5-9.81,7.41-1.29.27-2.65.19-4.05.27Z"/>
    <path class="cls-2" d="m253.7,62.61c2.01-.07,4.17-.01,6.29.52,1.66.42,1.89.69,1.73,2.44-.16,1.74-.44,3.45-1.01,5.13-.38,1.11-.82,1.43-1.98,1.07-2.66-.84-5.43-.76-8.17-.71-.57,0-1.3-.02-1.44.69-.13.67.48,1.06,1.04,1.23,1.35.41,2.72.78,4.1,1.08,2.47.54,4.72,1.44,6.74,3.04,1.19.94,1.93,2.05,2.31,3.44,1.08,3.97-1.1,8.83-4.89,10.45-5.85,2.5-11.84,2.2-17.85.56-1.21-.33-1.78-1.06-1.56-2.4.25-1.56.49-3.12,1.11-4.59.74-1.75.73-1.82,2.47-1.33,2.76.77,5.56,1.04,8.4.91.8-.04,2.15.47,2.23-.83.07-1.07-1.21-1.23-2.06-1.45-2.25-.58-4.55-.98-6.72-1.87-5.79-2.38-7.37-9-3.22-13.71,1.67-1.9,4.02-2.59,6.37-3.21,1.95-.52,3.96-.48,6.12-.45Z"/>
    <path class="cls-2" d="m642.17,82.42c3.92,1.75,7.64,1.92,11.4,1.65.54-.04,1.28.12,1.33-.74.04-.72-.52-.99-1.11-1.14-1.45-.36-2.91-.7-4.37-1.03-1.63-.37-3.18-.97-4.7-1.66-6.01-2.75-5.2-11.18-1.08-14,2.49-1.7,5.23-2.6,8.17-2.81,3.4-.24,6.81-.16,10.21.45,1.19.21,1.64.72,1.39,1.81-.43,1.85-.65,3.73-1.24,5.57-.37,1.13-.83,1.26-1.72,1.13-2.64-.36-5.28-.79-7.96-.58-.65.05-1.68-.4-1.82.69-.11.91.72,1.2,1.49,1.39,2.16.54,4.28,1.23,6.41,1.87,2.99.89,5.36,2.3,6.15,5.47.82,3.29.16,6.29-2.31,8.74-.89.88-1.94,1.58-3.14,2.01-5.59,2.02-11.25,2.04-16.92.4-1.89-.55-2.04-.94-1.85-2.92.2-2.1,1.42-3.89,1.67-6.29Z"/>
    <path class="cls-2" d="m963.21,125.68c1.99.1,4,.01,5.97.45.92.2,1.47.55,1.42,1.65-.09,2.19-.7,4.27-1.21,6.37-.23.94-.95.89-1.8.72-2.28-.47-4.6-.81-6.94-.76-1.01.02-2.57-.41-2.76.87-.16,1.07,1.4,1.23,2.31,1.46,2.39.61,4.79,1.16,7.07,2.16,3.64,1.59,5.7,5.24,4.64,9.18-1.17,4.32-3.78,6.46-7.8,7.28-4.87,1-9.75,1.24-14.54-.45-2.02-.71-2.05-.81-1.74-2.88.2-1.4.57-2.75,1.06-4.07.67-1.79.66-1.82,2.43-1.25,2.97.94,6.03.75,9.07.73.4,0,.83-.14,1.18-.33.59-.32.56-.79.03-1.15-.84-.57-1.85-.74-2.82-.95-2.21-.48-4.36-1.11-6.39-2.09-5.11-2.44-6.31-9.01-2.43-13.21,1.77-1.92,4.07-2.77,6.54-3.28,2.22-.45,4.47-.51,6.72-.42Z"/>
    <path class="cls-1" d="m534.79,32.88c-2.02,1.31-4.53,1.33-7.01,1.34-1,0-1.73-.54-1.7-1.72.01-.41-.05-.83-.13-1.24q-.5-2.58-3.2-2.6c-1.5,0-3,.06-4.5-.03-1.2-.07-1.91.37-2.17,1.53-.14.64-.51,1.19-.6,1.88-.26,1.93-.64,2.23-2.57,2.13-.99-.05-1.98-.23-2.96-.44-2.75-.6-3.13-1.26-2.29-3.96.95-3.07,1.95-6.12,2.89-9.2,1.42-4.67,2.68-9.37,4.19-14.02.4-1.23,1.05-1.9,2.17-1.95,2.99-.13,5.98-.39,8.97.1.85.14,1.31.42,1.54,1.3,1.62,6.1,4.02,11.98,5.1,18.23.03.16.01.35.08.49,1.26,2.52,2.08,5.16,2.17,8.15Zm-14.05-20.54c.03,1.05-.63,1.97-.9,3.02-.27,1.05-.6,2.08-.87,3.13-.89,3.41-.59,3.37,2.92,3.15.97-.06,1.36-.52,1.04-1.47-.88-2.6-.85-5.44-2.18-7.83Z"/>
    <path class="cls-1" d="m678.57,228.75c4.08,0,8.16-.03,12.23.01,2.35.02,2.52.2,2.69,2.55.09,1.24.12,2.5.06,3.74-.07,1.51-.46,1.88-1.98,1.94-1.66.06-3.33.01-4.99.04-2.63.05-2.67.06-2.7,2.82-.07,6.57-.1,13.15-.13,19.72,0,2.05.01,2.04-1.93,2.37-1.9.32-3.81.28-5.73.22-1.12-.04-1.7-.45-1.63-1.64.05-.83,0-1.66-.01-2.5-.07-5.82-.15-11.65-.23-17.47,0-.08,0-.17,0-.25q-.14-3.23-3.45-3.28c-1.66-.03-3.33-.08-4.99-.09-.94,0-1.33-.43-1.32-1.38.03-1.75.03-3.5-.03-5.24-.04-1.22.5-1.56,1.66-1.54,4.16.05,8.32.02,12.48.02,0-.01,0-.02,0-.03Z"/>
    <path class="cls-1" d="m440.08,17.32c0,4.82.02,9.64-.01,14.47-.01,1.78-.06,1.79-1.75,1.89-1.16.07-2.32.11-3.49.15-.49.01-1.15.11-1.36-.38-.75-1.68-1.5-.91-2.39-.15-1.74,1.47-3.72,1.36-5.82.93-2.93-.6-4.43-2.72-5.62-5.11-1.61-3.23-1.56-6.63-.1-9.89,1.68-3.72,4.62-5.99,8.68-6.72q3.4-.61,3.38-4.1c-.01-1.33-.04-2.66-.11-3.99-.05-.93.18-1.63,1.12-1.98,1.95-.73,3.89-1.37,6.02-1.43,1.27-.03,1.55.47,1.54,1.6-.04,4.91-.02,9.81-.02,14.72-.02,0-.04,0-.07,0Zm-7.99,5.99c0-.91.01-1.82,0-2.73,0-.42-.12-.8-.54-1.03-.82-.44-3.51.11-4.14.86-1.49,1.74-.7,5.25,1.39,6.18,1.98.88,3.27.09,3.3-2.05,0-.41,0-.83,0-1.24Z"/>
    <path class="cls-1" d="m351.25,155.69c-3.23.03-5.77-.18-8.24-1.13-2.92-1.12-5.12-3-6.45-5.81-1.74-3.68-2.54-7.41-1.4-11.57.63-2.3,1.32-4.35,2.7-6.34,1.9-2.73,4.64-3.95,7.54-4.71,3.48-.91,7.07-.94,10.58.29,1.1.39,1.51.86,1.58,2.11.13,2.36-1.28,4.24-1.67,6.42-.16.9-1.06.59-1.68.42-2.13-.56-4.3-.39-6.46-.32-1.74.06-2.23.52-2.32,2.25-.07,1.41-.06,2.85.19,4.23.49,2.7,2.4,4.27,5.16,4.6,1.81.21,3.63-.21,5.44.23.44.11.73.11.87.57.62,1.97,1.41,3.89,1.63,5.97.1.98-.27,1.42-1.23,1.79-2.24.86-4.54.97-6.25.99Z"/>
    <path class="cls-2" d="m195.46,62.63c2.19-.08,4.16.07,6.11.62,1.33.37,1.78,1.11,1.48,2.37-.46,1.94-.97,3.87-1.47,5.8-.26,1-.85,1.21-1.89.95-2.1-.52-4.27-.76-6.44-.58-2.14.18-2.59.65-2.73,2.75-.05.83-.08,1.68.06,2.49.88,5.4,2.8,6.28,7.27,6.14.41-.01.83-.09,1.24-.15,3.09-.38,3.1-.39,4.02,2.7.24.79.37,1.62.52,2.43.6,3.18.61,3.23-2.6,3.95-3.95.88-7.89.97-11.8-.39-4.81-1.67-7.83-4.92-8.84-9.91-.76-3.74-.59-7.43,1.06-10.99,2.47-5.33,6.82-7.7,12.45-8.17.58-.05,1.16,0,1.56,0Z"/>
    <path class="cls-2" d="m336.27,62.64c1.74-.29,3.69.3,5.64,1.01.71.26,1.2.5,1.13,1.34-.2,2.54-1.37,4.81-2.04,7.22-.14.49-.64.41-1.06.33-1.22-.24-2.44-.52-3.67-.7-1.32-.19-2.65-.23-3.97.04-1.03.21-1.64.71-1.69,1.82-.07,1.58-.24,3.16.15,4.72.67,2.75,2.59,4.44,5.43,4.73,1.58.16,3.17.06,4.73-.18,1-.15,1.52.09,1.72,1.18.32,1.71.86,3.39,1.2,5.1.34,1.72.14,2.16-1.5,2.57-5.03,1.28-10.06,1.45-14.9-.78-2.57-1.19-4.49-3.16-5.75-5.7-2.06-4.16-2.25-8.52-.89-12.88,1.85-5.96,7.4-10.28,15.47-9.81Z"/>
    <path class="cls-1" d="m749.67,262.54c-4.44.61-7.5-1.94-10.3-5.02-.11-.12-.19-.27-.27-.41-2.27-4.19-1.33-12.68,1.88-16.04,1.33-1.39,3.12-2.44,4.91-2.85,4.6-1.04,9.25-1.39,13.24,2.06,1.08.93,2.03,2.02,2.54,3.28,1.88,4.69,2.11,9.4-.68,13.87-1.41,2.26-3.51,3.66-6.08,4.34-1.67.44-3.31,1.14-5.24.77Zm-2.26-13.27c.13,1.65-.03,3.07.67,4.38.7,1.31,1.92,1.42,3.19,1.45,1,.03,1.57-.54,1.74-1.43.36-1.88.44-3.79-.01-5.65-.33-1.36-1.33-2.22-2.62-2.66-1.61-.56-2.55.02-2.8,1.7-.12.81-.12,1.65-.16,2.22Z"/>
    <path class="cls-2" d="m837.86,314.65c-.72.54-1.26.92-1.78,1.33-3.3,2.54-7.95,2.14-10.87-.77-2.94-2.93-3.3-9.59,2.48-11.67,2.43-.87,4.88-.89,7.38-.92.66,0,1.7.5,1.87-.53.14-.87-.69-1.53-1.48-1.82-2.04-.73-4.12-.28-6.16.1-.56.1-1.13.21-1.69.34-1.2.27-1.86-.29-2.35-1.32-.54-1.12-.86-2.33-1.55-3.4-.45-.7-.14-1.2.67-1.49,4.8-1.71,9.73-2.44,14.74-1.45,4.45.87,7.03,3.99,7.26,8.67.22,4.49.07,9,.1,13.49,0,.87-.23,1.42-1.23,1.48-1.33.08-2.65.32-3.97.37-2.46.1-2.46.06-3.41-2.41Zm-3.1-6.9v-.02c-.25,0-.5-.02-.74,0-.61.05-1.42-.21-1.53.78-.1.91.44,1.41,1.26,1.53.81.12,1.64.12,2.46.13.59,0,1.2-.03,1.18-.87-.02-.79-.12-1.52-1.15-1.55-.49-.01-.99,0-1.48,0Z"/>
    <path class="cls-1" d="m393.71,260.15c-.88.58-1.54,1.06-2.24,1.48-3.06,1.86-6.03,1.43-8.85-.51-2.86-1.96-3.75-4.81-3.13-8.11.24-1.27.94-2.33,2.15-3.14,2.29-1.52,4.65-2.47,7.44-2.25.91.07,1.83.01,2.75-.01.57-.02,1.3.05,1.42-.69.13-.79-.48-1.21-1.15-1.42-1.61-.52-3.35-.77-4.92-.29-1.05.32-2.18.15-3.11.66-1.12.62-1.77.03-2.31-.73-.87-1.23-1.35-2.64-1.64-4.12-.19-.99.26-1.59,1.18-1.9,4.58-1.57,9.32-2.14,14-1.01,2.28.55,4.72,1.48,6.03,3.91.86,1.6,1.15,3.33,1.2,5.05.11,4.41.01,8.83.07,13.25.02,1.22-.51,1.65-1.62,1.65-1,0-2.01-.05-3,.09-1.83.26-3.48.23-4.28-1.92Zm-2.62-7.36s0,.01,0,.02c-.49,0-.98-.03-1.47,0-.5.03-1.01.14-1.12.74-.1.56.26.91.68,1.21,1.08.75,2.28.91,3.52.62.76-.18.98-.81.97-1.52-.02-.7-.44-1.03-1.1-1.06-.49-.03-.98,0-1.47,0Z"/>
    <path class="cls-1" d="m438.86,253.52c0,2.17.02,4.33,0,6.5-.02,1.64-.19,1.84-1.84,1.95-1.33.09-2.66.08-4,.1-1.03.01-1.98,0-2.18-1.43-.14-.95-.88-.53-1.34-.21-1.08.77-2.11,1.57-3.41,2-2.51.82-6.97-.38-8.69-2.43-2.06-2.45-2.45-5.89-.8-8.64,1.01-1.69,2.56-2.84,4.56-3.21,1.88-.35,3.76-.7,5.7-.59.41.02.83,0,1.25-.03.43-.02.89-.12,1.02-.56.12-.44-.19-.79-.56-1.02-1.08-.67-2.25-1.1-3.55-.96-1.48.16-3.01.2-4.39.81-.67.3-1.28.39-1.9.12-.97-.43-2.65-4.94-2.17-5.85.41-.77,1.23-1.12,2.02-1.35,3.97-1.16,8.05-1.41,12.12-.9,4.36.55,7.78,3.83,8.08,8.45.16,2.4.03,4.83.03,7.24.02,0,.04,0,.05,0Zm-11.34-.8c-.88.17-2.27-.34-2.81,1.04-.28.71,1.66,1.71,3.21,1.7.25,0,.5,0,.74-.04.56-.07.84-.45,1.03-.94.48-1.26-.06-1.74-2.17-1.75Z"/>
    <path class="cls-2" d="m477.35,302.39c-.6-1.74-1.79-2.32-3.31-2.37-2-.07-3.99.04-5.95.55-1.71.45-2.12.34-2.78-1.19-2.11-4.91-2.36-4.55,2.66-5.92,2.9-.79,5.93-.92,8.93-.77,5.4.28,8.4,3.01,9.28,8.33.52,3.15.15,6.32.25,9.48.03.92,0,1.83,0,2.75q0,3.38-3.44,3.76c-.58.06-1.16.08-1.75.1q-2.47.06-3.33-2.35c-1,.08-1.47.96-2.14,1.49-2.47,1.95-6.64,1.89-9.56-.17-2.73-1.94-3.86-5.55-2.72-8.65.68-1.85,2.01-3.01,3.76-3.78,2.35-1.04,4.86-1.06,7.36-1.12.82-.02,1.65.25,2.71-.15Zm-2.45,5.37h0c-.49,0-.99-.02-1.48,0-.64.02-1.15.26-1.19.97-.04.67.41,1.09.99,1.26,1.04.3,2.11.33,3.19.26.69-.05,1.01-.41,1.01-1.12,0-.74-.13-1.33-1.03-1.35-.49-.01-.99,0-1.48,0Z"/>
    <path class="cls-2" d="m655.06,305.39c0,3.25-.04,6.49.02,9.73.02,1.12-.25,1.7-1.5,1.69-1.41,0-2.82.19-4.23.25-1.07.04-2.21.23-2.45-1.38-.09-.64-.73-.59-1.19-.31-.5.3-.96.66-1.41,1.02-3.67,3-10,.68-11.91-3.7-.74-1.7-1.09-3.49-1.15-5.34-.12-3.66-.23-7.32-.33-10.98-.05-1.86-.04-1.88,1.79-2.33,2.02-.5,4.05-.89,6.15-.91,1.18-.01,1.64.37,1.62,1.57-.05,3.24-.01,6.49,0,9.74,0,1-.03,2,.38,2.95.41.95.92,1.73,2.04,1.99,2.55.6,3.17.17,3.09-2.43-.11-3.49-.33-6.98-.46-10.47-.07-1.95-.03-1.92,1.88-2.4,1.7-.42,3.39-.84,5.14-.96,2.21-.15,2.52.11,2.55,2.27.04,3.33.01,6.66.01,9.98h-.04Z"/>
    <path class="cls-1" d="m503.86,246.27c-1.12-1.53-2.39-2.89-2.75-4.91-.23-1.31.18-1.85,1.23-2.2,2.78-.91,5.61-1.54,8.55-1.57,3.1-.04,6.14.1,8.84,1.99,2.52,1.76,3.8,4.16,3.85,7.17.07,4.41,0,8.82.06,13.23.02,1.22-.27,1.88-1.61,1.89-1.25,0-2.49.16-3.73.22-1.57.07-3.02-.08-3.41-2.12-1.23.61-1.98,1.55-3.04,2.05-2.72,1.28-6.65.59-9.24-1.72-2.19-1.96-3.01-5.09-1.86-7.99.96-2.42,2.94-3.76,5.45-4.25,2.29-.44,4.62-.56,6.96-.45.4.02.88.08,1.07-.4.23-.58-.2-.92-.59-1.23-.6-.47-1.25-.86-2.03-.87-2.65-.04-5.33-.24-7.75,1.17Zm8.88,6.47c-.89,0-1.39-.03-1.88,0-.58.04-1.19.11-1.27.87-.08.76.26,1.2,1,1.46.96.34,1.91.49,2.89.26.89-.21,1.4-1.81.75-2.36-.55-.46-1.26-.21-1.5-.24Z"/>
    <path class="cls-2" d="m307.14,295.49c.21-.11.51-.17.62-.35,2.9-4.42,10.34-3.01,12.92,2.43.77,1.61,1.13,3.33,1.16,5.08.06,4,.05,8,0,12-.02,1.78-.21,2.01-1.88,2.36-2.06.44-4.15.26-6.22.13-1.04-.07-1.06-.86-1.06-1.64-.02-2.75-.03-5.5-.08-8.25-.02-1.17-.04-2.34-.16-3.49-.23-2.18-1.34-3.07-3.48-3.01-.93.03-1.38.36-1.38,1.32.01,2-.02,4-.03,6,0,2.25-.03,4.5.03,6.75.03,1.16-.28,1.78-1.54,2.06-2.24.5-4.46.36-6.71.24-.65-.03-.82-.45-.83-1-.01-.75-.03-1.5-.03-2.25,0-5.66-.13-11.32-.42-16.98-.13-2.54.18-2.81,2.67-3.22.82-.14,1.66-.18,2.48-.28q2.77-.34,3.93,2.11Z"/>
    <path class="cls-2" d="m251.55,295.24c.57.08.92-.32,1.22-.69,2.88-3.55,10.27-2.17,12.31,2.75.74,1.79,1.28,3.62,1.3,5.56.06,4-.01,8,.08,11.99.03,1.37-.53,1.98-1.79,2.17-1.99.29-3.98.24-5.98.19-.96-.02-1.28-.51-1.29-1.42,0-2.66-.03-5.33-.11-7.99-.04-1.41-.11-2.84-.35-4.22-.18-1.06-.61-2.05-1.8-2.51-2.2-.86-3.07-.34-3.08,2.02-.02,3.91,0,7.83-.02,11.74-.01,2-.14,2.17-2.07,2.28-1.83.11-3.66.1-5.49.15-1.04.03-1.52-.43-1.49-1.49.03-1.25-.04-2.5-.02-3.75.11-5.17-.29-10.32-.51-15.48-.08-2.02-.07-2.09,1.86-2.53,1.62-.37,3.27-.56,4.92-.82,1.16-.18,1.98.06,1.85,1.5-.02.23.12.49.43.54Z"/>
    <path class="cls-2" d="m285.04,314.81c-.86.04-1.23.79-1.74,1.27-2.87,2.73-6.91,1.61-9.53.1-2.46-1.42-3.85-4.67-3.24-7.55.46-2.17,1.83-3.69,3.76-4.73,1.66-.89,3.46-1.16,5.31-1.22,1.08-.03,2.17-.01,3.25-.04.47-.01,1.05.1,1.12-.63.05-.53-.14-.96-.61-1.27-.95-.62-1.99-.88-3.09-.77-1.66.15-3.31.26-4.95.61-1.64.34-2.28-.02-3.03-1.48-.3-.59-.49-1.24-.71-1.87-.78-2.28-.41-2.91,1.94-3.5,3.32-.84,6.68-1.19,10.1-1.06,1.36.05,2.61.37,3.89.79,3.99,1.31,5.88,4.19,6.01,8.21.15,4.41.02,8.83.05,13.24,0,1.22-.37,1.85-1.69,1.87-1.08.01-2.15.27-3.23.33-2.55.14-2.67.04-3.61-2.3Zm-2.47-7.07c-.92,0-1.25-.01-1.58,0-.64.03-1.39-.11-1.49.86-.11,1.07.48,1.52,1.45,1.55.91.03,1.82.03,2.72-.02.58-.03.88-.4.83-.99-.04-.58-.05-1.22-.8-1.34-.57-.09-1.15-.07-1.14-.07Z"/>
    <path class="cls-2" d="m365.71,292.67c7.7.01,12.16,4.58,12.27,12.3.11,7.7-5.84,12.77-12.46,12.71-8.2-.08-12.73-4.65-12.63-13,.08-6.8,5.17-12.15,12.83-12.01Zm-3.22,11.81s-.04,0-.07,0c.04.83.02,1.66.12,2.48.3,2.52,1.89,3.66,4.32,3.15.53-.11.99-.32,1.1-.85.57-2.7.93-5.41-.43-8.01-.52-.99-2.29-1.43-3.76-1.12-1.23.26-1.19,1.24-1.27,2.12-.07.74-.01,1.49-.01,2.23Z"/>
    <path class="cls-2" d="m540.43,304.86c-.27-3.49,1.33-6.4,3.66-9.05.92-1.05,2.13-1.61,3.37-2.05,3.69-1.32,7.39-1.68,11.16-.14,3.44,1.4,5.54,3.89,6.43,7.4.99,3.93.73,7.73-1.56,11.25-1.42,2.19-3.37,3.66-5.8,4.48-5.16,1.74-10.05,1.39-14.12-2.55-2.52-2.44-3.29-5.69-3.14-9.33Zm15.52,1.15c.04-1.18-.17-2.31-.45-3.44-.19-.75-.57-1.37-1.18-1.85-1.28-1-3.86-.74-4.07.49-.39,2.28-.73,4.6.13,6.87.54,1.41,2.16,2.27,3.81,2.1,1.56-.17,1.32-1.47,1.57-2.44.15-.55.13-1.15.19-1.72Z"/>
    <path class="cls-2" d="m744.42,317.65c-8.19.56-12.22-8.1-11.26-14.49,1.21-8.02,8.63-11.54,15.57-10.28,3.55.65,6.55,2.27,8,5.67,1.66,3.89,2.2,7.95.42,12.05-2.07,4.75-7.68,7.44-12.73,7.04Zm4.16-11.28h-.05c0-.75.01-1.5,0-2.25,0-.33-.05-.67-.13-.99-.27-1.08-.73-2.04-1.73-2.64-1.41-.85-3.21-.52-3.57.76-.65,2.27-.9,4.58.02,6.86.75,1.84,1.75,2.27,4.03,1.98,1.86-.24,1.11-1.72,1.35-2.72.08-.32.06-.66.08-.99Z"/>
    <path class="cls-2" d="m687.65,302.67c-.92-2-2.22-2.47-3.66-2.56-1.82-.12-3.68-.18-5.43.48-1.33.5-2.24.12-2.87-1.13-2.25-4.49-2.46-4.41,2.24-5.96,3.08-1.02,6.28-1.05,9.39-.71,2.42.26,4.9,1.29,6.59,3.03,1.69,1.74,2.71,4.08,2.67,6.74-.07,3.83.04,7.66.01,11.49-.02,2.33-.38,2.7-2.69,2.93-1.07.11-2.16.08-3.24.13-1.25.05-2.36,0-2.27-1.77.04-.7-.6-.64-1.1-.44-.13.05-.2.24-.3.37-2.45,2.93-5.47,2.94-8.72,1.69-.62-.24-1.23-.51-1.83-.78-1.72-.76-2.68-2.02-2.89-3.95-.3-2.74-.34-5.33,2.05-7.31,1.26-1.04,2.73-1.51,4.29-1.87,2.44-.55,4.91-.48,7.76-.38Zm-2.72,5.07c-.33,0-.66-.02-.99,0-.65.04-1.41-.02-1.48.92-.06.82.36,1.39,1.14,1.63.54.16,1.24.05,1.64.36.93.71,1.33-.06,1.85-.49.6-.49.55-1.2.33-1.82-.24-.69-.93-.56-1.49-.59-.33-.02-.66,0-.99,0Z"/>
    <path class="cls-1" d="m263.33,252.35c1.03,2.17,2.68,2.67,4.46,2.75,1.82.09,3.65.02,5.47-.33,2.56-.49,3.01-.14,3.68,2.38.06.24.09.49.14.73.66,3.3.59,3.23-2.76,4.01-3.71.86-7.41,1.06-11.12.31-5.25-1.06-8.82-5.3-9.02-10.99-.07-1.92.1-3.82.69-5.67,1.54-4.86,5.2-7.13,9.94-7.8,3.16-.44,6.31-.15,9.08,1.78.68.48,1.48.83,1.85,1.63,1.32,2.84,2.87,5.61,2.71,8.9-.08,1.65-.19,1.86-1.89,1.91-2.66.07-5.33.03-7.99.03-1.64,0-3.29-.05-5.24.36Zm5.98-5.58c-1.42-2.57-3.26-3.3-5.15-2.43-.64.29-1.16.71-1,1.51.14.69.71.9,1.32.91,1.48.03,2.96.01,4.84.01Z"/>
    <path class="cls-1" d="m572.88,252.04c-2.88-.08-4.96-.07-7.03.15-.47.05-1.09-.12-1.26.51-.18.67.28,1.1.81,1.39,1.19.63,2.43,1.11,3.81,1.05,1.58-.07,3.15-.07,4.72-.38,2.29-.46,2.28-.4,3.16,1.82.4.99,1.04,1.88.96,3.03-.07,1.1-.41,1.96-1.64,2.15-4.11.66-8.2,1.46-12.38.49-2.7-.63-4.84-2.12-6.76-4.03-.82-.81-1.05-1.89-1.38-2.89-1.26-3.76-1.33-7.49.41-11.17,1.96-4.15,5.31-6.15,9.78-6.48,2.51-.19,4.93.1,7.24,1.2,1.54.73,2.8,1.66,3.74,3.15,1.74,2.74,2.06,5.75,2.03,8.86,0,.85-.46,1.17-1.25,1.17-1.91,0-3.83,0-4.95,0Zm-6.48-5.27s0,.03,0,.04c.83-.04,1.66-.04,2.49-.12.43-.04.75-.34.83-.8.06-.37-.18-.61-.44-.83-1.44-1.19-3.12-.99-4.75-.71-.77.13-.91.93-.89,1.61.02.83.68.8,1.27.8.5,0,1,0,1.5,0Z"/>
    <path class="cls-1" d="m614.51,252.28c.85,1.61,1.94,2.34,3.39,2.61,2.24.42,4.48.24,6.7-.14,2.58-.44,2.76-.35,3.62,2.12.14.39.25.79.34,1.2.67,2.86.62,2.78-2.21,3.69-4.35,1.38-8.83,1.26-13.07.21-3.58-.89-6.14-3.72-7.01-7.46-.75-3.27-.64-6.62.43-9.87,1.01-3.1,3.28-4.95,6.22-6.02,2.37-.86,4.85-1.17,7.38-.97,4.04.32,7.27,3.11,8.52,7.18.41,1.34.94,2.64,1.05,4.06.22,2.66-.16,3.13-2.79,3.16-3.08.04-6.16,0-9.25.02-1.04,0-2.08.13-3.33.21Zm2.88-5.5h0c.58-.01,1.16,0,1.74-.02.47-.02,1.06.08,1.2-.58.09-.43-.19-.8-.47-1.1-.97-1.04-3.76-1.27-4.89-.42-.47.35-.43.85-.38,1.34.05.48.37.74.82.77.66.04,1.32.01,1.99.01Z"/>
    <path class="cls-2" d="m406.05,307.02c-2.17,0-4.33,0-6.5,0-.4,0-.87.02-1.01.53-.12.44.1.79.42,1.09,1.03.96,2.3,1.29,3.65,1.41,2.18.19,4.34,0,6.46-.45,1.38-.3,2.02.16,2.32,1.44.28,1.21.67,2.4.94,3.62.18.81-.05,1.56-.95,1.78-5.73,1.36-11.45,2.38-16.96-.87-1.86-1.1-3.22-2.61-4.03-4.61-1.73-4.27-1.5-8.48.59-12.54,1.14-2.22,3.03-3.73,5.35-4.66,2.69-1.08,5.52-1.41,8.34-.97,3.57.56,5.95,2.85,7.47,6.02,1.02,2.14,1.24,4.47,1.31,6.82.04,1.27-.54,1.53-1.67,1.49-1.91-.08-3.83-.02-5.74-.02v-.07Zm-5.06-5.22s0-.02,0-.03c.74,0,1.48.02,2.22,0,.34-.01.63-.14.72-.53.07-.35.01-.67-.22-.92-.89-.96-3.7-1.49-4.88-.95-.79.36-1.1,1.05-.99,1.81.11.73.86.6,1.41.63.58.03,1.15,0,1.73,0Z"/>
    <path class="cls-2" d="m147.36,307.05c-2,0-3.99,0-5.99,0-.4,0-.88-.06-1.1.37-.28.55.17.93.44,1.33.51.76,1.34.95,2.16,1.1,2.06.37,4.14.34,6.21.06.66-.09,1.31-.19,1.97-.28,1.18-.16,1.91.36,2.24,1.48.02.08.04.16.06.24,1.39,4.58,1.21,4.86-3.45,5.84-2.72.57-5.5.79-8.19.42-5.04-.71-9.81-3.63-10.49-9.64-.54-4.72,0-9.08,3.89-12.52,4.17-3.69,12.58-3.82,16.56.07,2.93,2.87,3.68,6.59,3.43,10.56-.06.92-.83.91-1.5.91-2.08.02-4.16,0-6.24,0,0,.02,0,.03,0,.05Zm-4.76-5.24s0,0,0,.01c.58,0,1.15.01,1.73,0,.48-.02,1.05.05,1.19-.59.12-.54-.2-.92-.61-1.24-1.38-1.08-2.92-.96-4.47-.57-.78.2-.89.91-.85,1.6.06.82.72.76,1.28.79.58.02,1.15,0,1.73,0Z"/>
    <path class="cls-2" d="m598.64,307.01c-2,0-4-.01-6,0-.47,0-1.09-.14-1.34.39-.3.64.27,1.06.64,1.49.77.89,1.8,1.12,2.92,1.18,2.34.11,4.67.13,6.95-.45,1.33-.34,1.96.13,2.41,1.39,1.58,4.46,1.2,5.25-3.41,6.17-3.38.67-6.78.75-10.16-.03-4.52-1.05-7.15-3.97-8.23-8.42-.63-2.58-.58-5.14.15-7.65.81-2.8,2.26-5.2,4.98-6.58,4.78-2.41,9.57-2.8,14.15.38,2.25,1.56,3.63,3.81,3.92,6.64.15,1.47.55,2.9.45,4.41-.05.83-.33,1.18-1.2,1.16-2.08-.04-4.16-.01-6.24-.01v-.05Zm-2.03-5.53c-.03-1.26-.72-1.94-1.76-2.2-1.33-.33-2.64-.07-3.87.49-.52.24-.46.82-.42,1.32.05.59.41.94.97.9,1.7-.12,3.46.27,5.07-.52Z"/>
    <path class="cls-1" d="m316.91,252.41c1.25,1.89,2.77,2.64,4.6,2.69,2.08.07,4.15.06,6.22-.33,1.83-.35,1.82-.26,2.43,1.62.38,1.16,1.09,2.2,1.06,3.5-.02.72-.12,1.34-.94,1.54-5.41,1.36-10.82,2.06-16.13-.4-3.36-1.56-5.37-4.16-5.73-7.88-.3-3.08-.26-6.11,1.16-9.04,1.15-2.37,2.77-4.11,5.14-5.16,3.82-1.69,7.68-2,11.58-.25,2.23,1,3.77,2.64,4.68,4.92.8,2,1.62,3.96,1.48,6.2-.12,2.01-.15,2.17-2.11,2.18-3.25.03-6.49,0-9.74-.02-1.15-.01-2.28-.03-3.7.41Zm2.91-5.45v.04c.58,0,1.15,0,1.73,0,.5,0,1.07,0,1.27-.55.23-.64-.23-1.06-.66-1.47-1.18-1.11-2.61-.77-4-.71-1.15.05-1.27.94-1.27,1.77,0,.93.76.92,1.44.92.49,0,.99,0,1.48,0Z"/>
    <path class="cls-1" d="m595.17,234.23c0,4.13,0,4.08,4.02,4.21,4.91.16,4.14-.39,4.34,4.34.01.25,0,.5,0,.75-.01,2.38-.13,2.5-2.56,2.55-1.25.02-2.5.06-3.74.02-1.28-.05-1.8.6-1.86,1.79-.01.25-.05.5-.05.75-.02,4.05.17,5.14,4.55,5.34,2.88.13,2.96.28,3.12,3.1.29,5.35,1.06,4.4-4.26,5.15-2.92.41-5.81.16-8.37-1.64-1.7-1.2-2.84-2.74-3.38-4.77-.7-2.6-.92-5.24-.86-7.91.03-1.29-.46-1.85-1.74-1.74-.16.01-.33-.01-.5-.02q-3.38-.17-3.4-3.64c0-.42,0-.83.02-1.25q.09-2.82,2.85-2.89c2.17-.05,2.44-.32,2.4-2.46q-.08-4.21,4.04-5.41c.08-.02.16-.05.24-.07,5.02-1.42,5.15-1.33,5.14,3.8Z"/>
    <path class="cls-2" d="m722.56,289.04c0,1,.03,2,0,3-.04,1.06.41,1.49,1.48,1.46,1.66-.05,3.33-.04,5,.01,1.72.06,1.78.11,1.91,1.89.08,1.16.08,2.33,0,3.49-.14,2.13-.3,2.25-2.37,2.26-1.5,0-3,.04-4.5-.01-1.23-.05-1.61.52-1.53,1.66.09,1.24-.04,2.48.33,3.71.49,1.64,1.49,2.55,3.22,2.6.92.02,1.83.07,2.75.03,1.06-.05,1.53.47,1.58,1.46.07,1.33.14,2.66.2,3.99.1,1.97-.08,2.24-2.1,2.48-2.15.26-4.31.37-6.48.07-4.43-.6-7.27-3.32-7.92-7.72-.32-2.14-.58-4.28-.54-6.46.03-1.75-.06-1.75-1.87-1.77q-3.61-.05-3.68-3.58c0-.33,0-.67,0-1,.07-3.02.11-3.06,3.08-3.08q2.32-.02,2.33-2.33c0-.58-.02-1.17-.05-1.75-.15-2.54-.06-2.73,2.39-3.6,1.8-.64,3.62-1.23,5.58-1.22.86,0,1.21.29,1.19,1.14-.03,1.08,0,2.17,0,3.25h.01Z"/>
    <path class="cls-1" d="m556.64,3.89c1.28-1.45,2.84-2.34,4.3-3.36.9-.63,1.67-.62,2.37.32.69.94,1.45,1.82,2.12,2.78,1.45,2.06,1.44,2.25-.36,3.87-.68.61-1.47,1.09-2.22,1.62-2.14,1.5-2.3,1.47-3.97-.64-.46-.58-.8-1.28-1.7-1.7-.47,1.04-1.4,1.32-2.5,1.44-1.33.15-2.55.73-3.69,1.46-.65.42-1.14.95-1.35,1.72-.3,1.12-.06,1.5,1.11,1.61.17.02.34-.01.5,0,1.27.17,3-.49,3.63.95.65,1.5.37,3.27.06,4.92-.13.71-.72.82-1.34.83-1.32.01-2.94-.51-3.85.47-1.03,1.11-.49,2.85-.54,4.32-.08,2.5,0,5,0,7.5,0,1.93-.01,1.94-1.87,1.99-1.5.04-3,.05-4.49.06-1.21,0-1.78-.51-1.75-1.82.07-2.5.01-5,0-7.5,0-.75,0-1.51-.09-2.25-.28-2.15-.48-2.32-2.6-2.52-2.04-.19-2.05-.19-2.21-2.15-.05-.58-.06-1.16-.07-1.75-.04-2.63.06-3.25,2.79-3.1,1.88.11,1.95-.06,2.2-1.9.82-6.21,6.4-9.76,11.62-10.53.9-.13,1.48.15,2.1.91.58.71.86,1.61,1.8,2.44Z"/>
    <path class="cls-1" d="m250.81,128.52c2.23-2.46,4.9-2.77,7.71-2.64,1.12.05,1.8.4,2.11,1.64.64,2.53-.14,4.96-.32,7.43-.05.75-.8.73-1.38.72-1.75-.03-3.5-.14-5.24-.1-2.08.05-2.26.26-2.27,2.33-.02,4.91,0,9.83-.03,14.74,0,1.79-.19,2.01-1.85,2.34-2.64.52-5.31.23-7.98.2-1.07-.01-1.12-.75-1.14-1.55-.08-3.08-.2-6.16-.27-9.24-.11-4.75-.22-9.49-.29-14.24-.03-2.28,0-2.27,2.12-2.88,2.17-.63,4.39-.89,6.64-1.09,1.15-.1,1.76.12,1.71,1.37,0,.2.2.41.48.96Z"/>
    <path class="cls-2" d="m391.2,65.57c.4.08.6-.21.81-.45,2.01-2.39,4.68-2.59,7.52-2.33,1.11.1,1.66.75,1.72,1.78.13,2.33.01,4.66-.37,6.96-.14.85-.6,1.26-1.56,1.2-1.66-.11-3.33-.17-4.99-.12-2.07.06-2.43.47-2.44,2.51-.03,4.83-.03,9.66-.08,14.49-.02,1.98-.28,2.3-2.22,2.49-2.32.23-4.64.33-6.97,0-1.24-.18-1.72-.64-1.73-1.9-.02-3.16-.18-6.32-.25-9.48-.11-4.58-.2-9.16-.28-13.73-.04-2.14.06-2.3,2.04-2.73,2.03-.44,4.06-.9,6.15-1.02,1.95-.1,1.95-.11,2.3,1.79.04.24.09.48.38.56Z"/>
    <path class="cls-2" d="m773.05,298.49c1.02-1.54,1.91-2.83,2.75-4.15.6-.95,1.39-1.34,2.52-1.19,1.89.25,3.81.38,5.65.93,1.31.39,1.39.54.56,1.7-1.79,2.5-3.63,4.97-5.47,7.43-1.18,1.58-1.2,1.57-.08,3.21,1.84,2.67,3.7,5.33,5.54,8.01.82,1.2.76,1.37-.66,1.88-2.23.81-4.57.8-6.89,1.01-1.04.09-1.43-.67-1.89-1.36-.95-1.43-1.62-3.06-3.14-4.28-.88,1.41-1.68,2.75-2.54,4.05-.4.6-.42,1.61-1.26,1.74-.95.15-2.09.3-2.9-.08-1.35-.64-2.69-.72-4.1-.8-1.33-.07-1.6-.6-.81-1.7,1.89-2.64,3.84-5.23,5.78-7.83,1.14-1.53,1.14-1.52.02-3.12-1.85-2.66-3.71-5.33-5.54-8-.92-1.34-.85-1.52.79-1.94,1.86-.47,3.76-.69,5.66-.91,1.34-.16,2.21.34,2.97,1.36.94,1.25,1.6,2.72,3.02,4.05Z"/>
    <path class="cls-2" d="m532.41,66.02c1.29-1.07,2.31-1.99,3.59-2.6,1.84-.88,3.72-.71,5.62-.54.92.08.96.8,1.01,1.46.19,2.58,0,5.15-.18,7.72-.07.99-.71.95-1.42.83-1.73-.31-3.48-.27-5.22-.27-2.36,0-2.39.03-2.41,2.32-.03,4.91-.03,9.81-.03,14.72,0,2.09,0,2.06-2.17,2.37-2.32.33-4.65.23-6.97.18-1.73-.04-1.81-.09-1.79-1.9.1-6.82-.34-13.63-.5-20.44-.02-.83-.07-1.66-.11-2.49-.11-2.22.09-2.55,2.27-3.13,1.93-.51,3.9-.83,5.89-.99,1.84-.15,1.84-.14,2.13,1.7.04.24.12.47.29,1.09Z"/>
    <path class="cls-1" d="m77.41,129.25c2.19-3.26,5.16-3.63,8.35-3.51.91.03,1.2.38,1.52,1.21.39,1,.22,1.96.23,2.93.01,1.5-.07,3-.07,4.5,0,1.1-.55,1.48-1.58,1.34-2.07-.28-4.16-.13-6.24-.17-1.2-.02-1.6.41-1.59,1.59.03,4.83,0,9.66,0,14.49,0,3.23-.07,3.31-3.27,3.63-1.91.2-3.83.1-5.74-.08-1.75-.16-1.95-.34-1.99-2.17-.09-3.83-.07-7.66-.16-11.49-.09-3.99-.22-7.99-.41-11.98-.06-1.29.36-1.73,1.65-2.18,2.1-.72,4.21-.89,6.36-1.02,1.92-.11,1.92-.1,2.55,1.85.07.21.16.42.4,1.04Z"/>
    <path class="cls-1" d="m567.89,128.73c.71-.02,1.25-.46,1.68-.91,1.96-2.04,4.4-2.08,6.95-1.86,1.09.09,1.7.58,1.67,1.72-.04,2.08-.01,4.17-.14,6.24-.1,1.51-.47,1.76-2.11,1.76-1.67,0-3.33-.09-5-.06-2.19.05-2.24.11-2.26,2.25-.04,4.83-.03,9.66-.06,14.5-.01,2.32-.22,2.48-2.51,2.7-2.16.2-4.32.28-6.48.06-1.89-.2-1.9-.17-1.92-2.01-.04-4.16-.02-8.33-.11-12.49-.07-3.41-.32-6.82-.4-10.23-.06-2.5.02-2.44,2.35-3.08,2.01-.55,4.05-.79,6.11-1,1.93-.2,1.94-.18,2.05,1.97,0,.14.12.27.2.45Z"/>
    <path class="cls-1" d="m293.86,250.53c1.57-2.23,1.37-4.77,2.14-7.03.52-1.52,1.53-2.92,1.55-4.63,0-.65.59-.7,1.1-.74,2.46-.2,4.78.54,7.13,1.03.89.19.9,1.02.63,1.62-1.38,3.02-1.96,6.32-3.47,9.31-1.06,2.11-1.66,4.46-2.36,6.74-1.51,4.88-1.48,4.89-6.43,4.89-1.5,0-3-.01-4.5-.01-2,0-2.35-.11-2.85-2.16-.53-2.19-1.19-4.32-2.01-6.41-1.26-3.21-2.53-6.42-3.73-9.66-.28-.75-.63-1.5-.68-2.36-.1-1.82-.11-1.87,1.75-2.18,1.72-.29,3.45-.61,5.18-.82,1.81-.22,2.19.25,2.76,2.03.95,2.96,1.78,5.95,2.6,8.94.14.5.71.88,1.18,1.44Z"/>
    <path class="cls-1" d="m645.44,237.7c1.45.06,3.11-.11,4.77.19.95.17,1.52.54,1.46,1.61-.08,1.41-.09,2.81-.58,4.18-.4,1.11-.84,1.66-2.16,1.3-2.03-.55-4.13-.21-6.2-.23-.5,0-1.11.19-1.16.73-.06.66.49,1.01,1.12,1.09,2.64.37,5.14,1.12,7.52,2.38,2.01,1.07,2.81,2.95,2.87,4.83.15,4.38-2.76,7.41-6.18,8.25-4.31,1.06-8.58.69-12.83-.44-1-.27-1.39-.76-1.12-1.8.33-1.28.12-2.65.73-3.9.52-1.06,1.18-1.48,2.37-1.21,1.62.36,3.26.61,4.9.87.49.08,1,.04,1.49,0,.72-.06,1.74,0,1.81-.87.07-.93-.99-.91-1.68-1.09-1.21-.31-2.43-.57-3.62-.9-.86-.24-1.8-.42-2.52-.91-1.28-.87-2.96-1.66-3.3-3.22-.45-2.09-.53-4.38.42-6.38.63-1.32,1.89-2.27,3.24-2.97,2.51-1.3,3.61-1.51,8.64-1.5Z"/>
    <path class="cls-2" d="m433.66,300.61c-2.95-1.04-5.92-1.2-9.12-.55.71,1.23,1.71,1.4,2.65,1.65,1.45.38,2.96.6,4.33,1.15,2.26.91,4.5,2.02,4.97,4.77.52,3.06-.21,5.7-2.72,7.83-1.48,1.25-3.1,1.67-4.9,1.9-3.38.42-6.76.64-10.08-.23-2.36-.62-2.61-1.21-2.17-3.57q.75-4.01,4.7-3.41c1.98.31,3.98.34,5.97.38.45.01.9-.08.96-.56.06-.45-.28-.74-.72-.87-.96-.28-1.91-.59-2.87-.84-1.61-.42-3.21-.9-4.71-1.62-3.61-1.74-4.79-6.13-2.62-9.52,1.82-2.86,4.66-4.02,7.79-4.35,2.96-.31,5.96-.29,8.95.28,1.25.24,1.48.79,1.35,1.83-.23,1.99-.86,3.85-1.75,5.73Z"/>
    <path class="cls-2" d="m441.26,309.4c7.89,1.54,8.5,1.56,10.59.28-.65-.79-1.57-.85-2.44-1.07-2.26-.55-4.42-1.28-6.56-2.28-4.05-1.9-3.71-9.26-.29-11.28,1.44-.85,2.89-1.67,4.54-2.01,3.21-.67,6.46-.49,9.67-.1,1.87.23,2.03.64,1.89,2.49-.03.41-.04.83-.12,1.24-.7,3.79-.75,3.81-4.24,3.21-1.46-.25-2.98-.17-4.48-.21-.56-.01-1.23-.1-1.29.77-.04.76.48.98,1.09,1.1.79.16,1.52.48,2.37.57,2.07.22,4.08.78,5.77,2.12,3.11,2.49,3.23,7.64.3,10.36-1.91,1.78-4.17,2.65-6.71,2.97-3.43.43-6.79-.28-10.18-.52-.92-.06-1.17-.8-1.21-1.62-.08-1.53.37-2.96.83-4.39.17-.55.32-1.1.47-1.65Z"/>
    <path class="cls-1" d="m636.94,31.65c-2.5,3.3-5.65,3.2-8.81,2.34-1.86-.5-3.32-1.75-3.79-3.84-.54-2.45-.65-4.79,1.26-6.78.7-.73,1.5-1.06,2.51-1.36,2.42-.71,4.83-1.13,7.34-1,.2,0,.49-.15.59-.32.22-.34-.04-.66-.28-.87-.51-.46-1.15-.64-1.82-.76-1.75-.33-3.55-.36-5.17.26-1.34.51-2.03.14-2.7-.88-.36-.55-.86-1-1.07-1.67-.73-2.29-.59-2.68,1.72-3.35,4.39-1.28,8.75-1.71,13.19.05,3.09,1.23,4.37,3.56,4.53,6.53.22,3.99.09,8,.15,12,.02,1.12-.35,1.71-1.56,1.7-1,0-1.99.15-2.99.2-1.49.07-2.92-.01-3.1-2.25Zm-2.76-6c-.38.05-.96.08-1.51.21-.42.1-.76.42-.61.89.36,1.17,1.33,1.28,2.37,1.3,1,.01,1.8-.21,1.97-1.36.07-.45-.07-.84-.56-.93-.48-.08-.98-.07-1.66-.11Z"/>
    <path class="cls-1" d="m474.97,23.77c-.3-6.69,4.24-11.53,11.2-11.45,6.75.08,10.97,3.17,11.01,11.09.03,7.28-5.49,11.1-11.15,11.13-7.03.04-11.44-5-11.05-10.77Zm8.59-.54c.07.83-.21,2.16.5,3.4.73,1.27,1.89,1.12,3.04,1.04,1.18-.09,1.44-.93,1.43-1.93-.01-1.4.06-2.81-.07-4.21-.16-1.69-1.45-2.56-3.34-2.43-1.44.1-1.49.18-1.56,2.42-.01.41,0,.83,0,1.71Z"/>
    <path class="cls-1" d="m403.22,25.6c.81,1.69,2.11,2.06,3.44,2.08,2.06.03,4.16.23,6.17-.51.8-.3,1.09-.14,1.37.76.34,1.05,1.2,1.89,1.34,3.09.14,1.24-.16,2.01-1.43,2.49-1.35.51-2.73.71-4.13.86-2.47.26-5.04.5-7.39-.17-4.36-1.24-6.87-4.42-7.39-8.91-.51-4.43.48-8.34,4.38-11.17,1.88-1.37,3.95-1.57,6.1-1.78,3.72-.37,6.66.97,8.91,3.92,1.84,2.42,1.92,5.24,1.83,8.08-.02.8-.76.75-1.33.75-2,0-3.99-.02-5.99,0-1.89.02-3.8-.16-5.89.51Zm5.01-5.08c-.28-1.36-.7-2.08-1.71-2.35-1-.27-1.98-.17-2.9.23-.57.25-.81.86-.77,1.45.04.66.63.66,1.12.66,1.31.01,2.63,0,4.26,0Z"/>
    <path class="cls-2" d="m669.46,298.24c0,5.33,0,10.66,0,15.99,0,2.47-.14,2.63-2.68,2.85-1.41.12-2.83.15-4.24.14-2.06,0-2.07-.04-2.12-2.05-.18-7.24-.33-14.48-.52-21.73-.09-3.33-.22-6.66-.37-9.98-.04-.79-.08-1.43.89-1.77,2.36-.83,4.71-1.65,7.21-1.93,1.66-.19,1.82-.06,1.82,1.74.02,5.58,0,11.16,0,16.74h0Z"/>
    <path class="cls-2" d="m168.45,298.14c0,5.5,0,11,0,16.5,0,2.04-.03,2.05-2,2.39-1.65.28-3.33.22-4.99.16-1.93-.07-2.05-.22-2.09-2.25-.14-6.41-.3-12.82-.39-19.24-.06-4-.54-7.97-.51-11.98,0-1.28.31-1.86,1.58-2.3,2.19-.76,4.38-1.43,6.68-1.65,1.61-.15,1.69-.06,1.7,1.62.03,5.58.01,11.17.01,16.75h.02Z"/>
    <path class="cls-2" d="m578.46,298.28c0,5.41,0,10.82,0,16.24,0,2.15-.02,2.17-2.12,2.53-1.73.3-3.49.13-5.23.16-1.34.02-1.7-.59-1.7-1.82,0-3.08-.05-6.16-.14-9.24-.21-7.24-.48-14.47-.67-21.71-.07-2.75-.56-2.31,2.27-3.29,1.72-.6,3.51-1.06,5.31-1.37,2.05-.36,2.28-.09,2.29,2.01.01,5.5,0,10.99,0,16.49Z"/>
    <path class="cls-2" d="m621.59,292.68c1.54-.12,3.34.05,5.09.73.61.24.93.54.94,1.25.06,2.08-1.01,3.81-1.7,5.65-.23.61-1.02.39-1.57.32-1.74-.22-3.48-.27-5.23-.12-1.23.11-1.84.65-1.74,1.89.13,1.55-.26,3.17.59,4.64.94,1.64,2.28,2.62,4.22,2.64.33,0,.67-.04,1,0,1.21.2,2.87-.83,3.55.21,1.02,1.56,1.47,3.52,1.65,5.44.09.93-.68,1.23-1.43,1.46-3.51,1.09-7,1.19-10.54.06-7.99-2.53-8.95-10.47-7.16-16.06,1.82-5.7,5.4-8.08,12.34-8.13Z"/>
    <path class="cls-2" d="m482.77,77.34c0,4.16-.04,8.33.02,12.49.02,1.3-.29,1.91-1.74,2.06-2.41.26-4.79.51-7.21.36-1.33-.09-1.97-.69-2-2.01-.03-1.25-.11-2.5-.13-3.74-.08-6.49-.07-12.99-.39-19.48-.1-2.01-.08-2.03,1.85-2.58,2.41-.68,4.85-1.2,7.36-1.24,2.23-.04,2.25,0,2.27,2.15.02,4,0,7.99,0,11.99-.01,0-.02,0-.03,0Z"/>
    <path class="cls-2" d="m813.96,317.61c-2.42.1-4.7-.02-6.56-.98-3.34-1.73-5.7-4.52-6.32-8.41-.4-2.49-.27-4.96.49-7.4,1.15-3.68,3.56-6.12,7.16-7.36,3.33-1.15,6.68-1.08,10.03.03.96.32,1.37.78,1.08,1.83-.37,1.36-.43,2.79-.94,4.12-.43,1.13-.95,1.77-2.4,1.31-1.59-.5-3.3-.34-4.96-.2-1.86.15-1.98.3-2.05,2.07-.03.66-.04,1.33,0,2,.21,3.08,2.27,5.02,5.36,5.09.42,0,.83-.02,1.25-.02.96.01,2.31-.54,2.78.32.93,1.69,2,3.47,1.64,5.58-.11.64-.6.92-1.18,1.14-1.82.69-3.68,1.01-5.38.9Z"/>
    <path class="cls-1" d="m234.43,140.73c0,3.99-.04,7.99.02,11.98.02,1.17-.31,1.89-1.5,2.15-2.79.59-5.61.52-8.43.3-1.11-.08-1.14-1.03-1.16-1.89-.09-3.49-.16-6.98-.26-10.47-.11-4.07-.23-8.15-.34-12.22-.07-2.41,0-2.29,2.08-3.23,2.63-1.2,5.4-.7,8.11-1.01.8-.09,1.22.42,1.32,1.18.06.49.08.99.08,1.49,0,3.91,0,7.82,0,11.73.02,0,.05,0,.07,0Z"/>
    <path class="cls-2" d="m782.69,140.43c0,3.91.02,7.82,0,11.73-.01,2.44-.19,2.62-2.65,2.94-2.15.28-4.32.26-6.48.1-1.72-.12-1.79-.19-1.83-1.95-.07-3.41-.06-6.82-.12-10.23-.07-4.24-.19-8.48-.28-12.72-.05-2.4-.05-2.41,2.26-3.05,2.33-.64,4.71-1.04,7.13-1.05,1.83,0,1.98.16,1.99,2,.02,4.08,0,8.15,0,12.23h-.03Z"/>
    <path class="cls-1" d="m467.56,12.34c1.16.12,2.32.22,3.48.35,1.18.13,1.82.72,1.65,1.99-.1.74-.1,1.5-.24,2.24-.46,2.45-.98,2.77-3.54,2.46-.99-.12-1.99-.2-2.99-.18-1.99.04-2.23.33-2.26,2.39,0,.5,0,1,.05,1.5.32,3.06,2.08,4.58,5.15,4.47q3.38-.13,4.23,3.14c.11.4.21.81.3,1.21.2.97-.1,1.58-1.13,1.85-4.69,1.21-9.18,1.05-13.3-1.82-.82-.57-1.39-1.45-1.74-2.36-.73-1.86-1.17-3.79-1.27-5.82-.35-7.15,4.6-11.86,11.62-11.42Z"/>
    <path class="cls-1" d="m496.46,250.32c0,3.16.01,6.32,0,9.48-.01,2.1-.03,2.09-2.22,2.27-1.83.14-3.65.21-5.48.14-1.1-.04-1.63-.38-1.64-1.61-.03-6.4-.1-12.81-.23-19.21-.03-1.44.56-2.1,1.85-2.49,1.85-.56,3.74-.78,5.66-.75,1.93.03,2,.06,2.03,1.94.05,3.41.01,6.82.01,10.23h.03Z"/>
    <path class="cls-2" d="m182.45,305.12c0,3.24.02,6.48,0,9.72-.01,1.82-.12,1.97-1.94,2.17-1.65.18-3.31.27-4.97.27-2.04,0-2.12-.06-2.19-2.03-.18-4.9-.27-9.79-.4-14.69-.04-1.41-.08-2.82-.19-4.23-.09-1.15.24-1.9,1.45-2.22,2.1-.55,4.24-.78,6.39-.97,1.24-.11,1.79.49,1.78,1.77-.04,3.41-.01,6.81-.01,10.22.03,0,.06,0,.1,0Z"/>
    <path class="cls-1" d="m706.14,250.06c0,3.41-.03,6.82.02,10.22.02,1.16-.44,1.66-1.56,1.75-2.16.18-4.31.12-6.47.06-.91-.02-1.09-.53-1.1-1.28,0-1-.04-1.99-.06-2.99-.14-5.4-.21-10.8-.47-16.19-.07-1.46.43-2.07,1.71-2.53,2-.7,4.03-.9,6.12-.96,1.26-.04,1.77.34,1.73,1.69-.09,3.4-.03,6.81-.03,10.22.03,0,.07,0,.1,0Z"/>
    <path class="cls-2" d="m788.26,305.41c-.16-3.24-.3-6.47-.49-9.7-.05-.79.17-1.3.96-1.46,2.11-.41,4.15-1.2,6.36-1.09,2.13.1,2.31.14,2.33,2.26.05,5.99.04,11.97.05,17.96,0,.58-.05,1.17,0,1.74.12,1.29-.57,1.82-1.72,1.94-1.9.2-3.81.24-5.73.21-1.15-.01-1.62-.45-1.6-1.64.05-3.41.02-6.81.02-10.22-.06,0-.12,0-.19,0Z"/>
    <path class="cls-1" d="m577.88,15.04c1.43-2.56,3.75-2.52,6.11-2.42.78.03,1.19.35,1.33,1.15.33,1.86,0,3.61-.76,5.3-.27.58-.76.57-1.24.57-1,.01-1.99-.03-2.99,0-1.76.05-1.84.13-1.89,1.83-.1,3.49-.18,6.97-.27,10.46-.05,1.88-.09,1.96-1.95,2.09-1.32.09-2.66.12-3.98.04-1.72-.1-1.95-.35-2-2.13-.1-4.15-.15-8.31-.22-12.46-.02-1.41,0-2.83-.09-4.24-.06-1.01.27-1.55,1.33-1.68,1.23-.16,2.45-.46,3.68-.64,2.13-.31,2.2-.24,2.95,2.12Z"/>
    <path class="cls-2" d="m238.08,305.14c0,3.16,0,6.33,0,9.49,0,1.97-.09,2.12-2.02,2.39-1.73.25-3.48.27-5.23.21-1.25-.04-1.76-.51-1.76-1.8-.02-4.49-.11-8.99-.21-13.48-.05-1.91-.17-3.82-.33-5.73-.1-1.2.32-1.89,1.56-2.09,2.13-.35,4.22-.96,6.4-1.04,1.15-.04,1.66.35,1.64,1.57-.05,3.5-.02,6.99-.02,10.49h-.01Z"/>
    <path class="cls-1" d="m732.23,59.19c-1.35.02-2.61-.27-3.85-.88-1.46-.72-2.99-1.33-4.51-1.92-1.84-.72-2.85-.02-3.87,1.12-1.4,1.55-1.37,1.58-3.14.56-.29-.17-.59-.31-.88-.47-1.11-.61-1.46-1.34-.85-2.64.93-1.97,1.88-3.83,3.62-5.26,2.59-2.13,5.28-2.11,8.14-.76,1.2.57,2.37,1.24,3.6,1.71,1.77.67,3.44.5,4.76-1.04,1.6-1.87,2.12-1.14,4.32.04,1.17.62,1.12,1.66.25,3.48-.79,1.64-1.46,3.28-3.01,4.45-1.4,1.06-2.85,1.67-4.59,1.62Z"/>
    <path class="cls-1" d="m836.58,59.23c-1.14-.13-2.26-.1-3.24-.99-.71-.64-1.73-.95-2.63-1.39-2.54-1.24-3.47-1.1-5.56.83-1.41,1.3-4.83.61-5.38-1.24-.28-.96-.04-2.25.61-3,1.17-1.36,2.13-2.9,3.68-3.98,2.46-1.72,5.31-1.93,7.89-.46,1.49.85,3.1,1.54,4.74,2.02,1.3.38,2.56,0,3.52-1.19,1.19-1.49,2.03-1.5,4.06-.31,1.44.85,1.6,1.33,1.03,3.09-1.31,3.99-4.88,6.71-8.71,6.62Z"/>
    <path class="cls-1" d="m565.91,23.1c0,2.83.02,5.65,0,8.48-.02,2.15-.18,2.24-2.43,2.47-1.5.15-2.97.11-4.47,0-1.11-.09-1.38-.57-1.39-1.56-.07-5.57-.2-11.14-.25-16.7-.02-1.96.07-1.97,2.06-2.3,1.55-.26,3.09-.57,4.69-.59,1.29-.01,1.79.41,1.75,1.73-.07,2.82-.02,5.65-.02,8.48.02,0,.04,0,.06,0Z"/>
    <path class="cls-2" d="m98.84,48.31c-.3,5.48-.6,10.87-.9,16.26-.09,1.71-.2,1.9-1.84,2.01-1.58.11-3.16.04-4.74.09-1.29.04-1.77-.66-1.82-1.84-.06-1.41-.15-2.83-.25-4.24-.27-3.73-.32-7.48-.79-11.21-.2-1.6-.06-1.74,1.57-1.76,2.95-.04,5.96-.58,8.77.69Z"/>
    <path class="cls-2" d="m84.21,56.78c-.12,2.49-.22,4.99-.37,7.48-.14,2.2-.27,2.32-2.53,2.41-1.33.05-2.66-.03-3.99.04-1.3.06-1.75-.56-1.82-1.77-.3-5.15-.61-10.3-1-15.44-.1-1.29.26-1.76,1.58-1.86,2.58-.21,5.15-.09,7.73,0,.81.03,1.2.29,1.11,1.21-.26,2.65-.44,5.3-.65,7.95-.02,0-.03,0-.05,0Z"/>
    <path class="cls-2" d="m1016.5,110.42c1.11.07,2.27.2,3.44.2,1.18,0,1.62.43,1.5,1.65-.49,5.13-.79,10.28-.97,15.43-.06,1.83-.17,1.93-2.04,1.98-1.58.04-3.16-.02-4.74.02-.97.02-1.57-.22-1.59-1.36-.1-5.33-.59-10.63-1.09-15.93-.11-1.16.26-1.72,1.45-1.75,1.33-.04,2.66-.15,4.04-.23Z"/>
    <path class="cls-2" d="m1006.82,120.13c-.11,2.5-.21,4.99-.34,7.49-.09,1.79-.28,1.99-2.06,2.05-1.41.05-2.83.05-4.25,0-1.78-.07-1.91-.17-2.06-2.07-.24-3.07-.43-6.15-.58-9.22-.09-1.91-.12-3.82-.35-5.73-.21-1.72,0-1.93,1.64-1.99,2.33-.09,4.66-.17,6.99,0,1.2.09,1.59.61,1.51,1.75-.18,2.58-.3,5.16-.45,7.73-.01,0-.03,0-.04,0Z"/>
    <path class="cls-1" d="m444.27,23.95c0-2.58.02-5.15,0-7.73-.02-1.97.22-2.38,2.08-2.74,1.3-.25,2.63-.46,3.95-.52,2.02-.1,2.15.04,2.28,2,.1,1.57.09,3.16.1,4.74.03,4.07.06,8.15.05,12.22,0,1.85-.12,1.94-1.96,2.08-1.49.12-2.99.1-4.49.02-1.24-.07-1.76-.54-1.72-1.83.07-2.74.02-5.49.02-8.23-.1,0-.21,0-.31,0Z"/>
    <path class="cls-2" d="m983.91,156.07c-2.87-1.72-5.17-3.76-7.57-5.65-.75-.59-.83-1.12-.34-1.89,1.43-2.25,3.15-4.28,4.94-6.25.8-.87,1.75-.98,2.67-.27,1.97,1.53,3.89,3.12,5.81,4.7.71.59,1.09,1.27.39,2.14-1.95,2.42-4.37,4.45-5.9,7.22Z"/>
    <path class="cls-2" d="m778.03,108.6c.65.06.91.49,1.21.89,1.52,2.07,3,4.18,4.59,6.19.68.86.65,1.51-.15,2.1-2.34,1.71-4.72,3.37-7.09,5.04-.73.51-1.19.21-1.6-.48-1.28-2.15-2.92-4.03-4.57-5.89-.69-.77-.82-1.46-.06-2.14,2.23-1.98,4.47-3.97,7.06-5.49.21-.12.46-.17.62-.23Z"/>
    <path class="cls-1" d="m229.24,108.68c.55-.06.81.28,1.14.53,1.16.87,1.78,2.18,2.67,3.27.62.76,1.04,1.63,1.76,2.36,1.24,1.26,1,2.42-.46,3.48-1.68,1.22-3.33,2.49-5.05,3.64-1.65,1.1-2.33.98-3.57-.61-1.32-1.7-2.52-3.51-3.8-5.24-.46-.62-.57-1.22-.03-1.79,1.99-2.11,4.26-3.87,6.74-5.37.21-.13.45-.2.6-.27Z"/>
    <path class="cls-2" d="m484.15,53.88c-.06.5-.44.85-.85,1.12-2.09,1.43-4.18,2.86-6.31,4.24-.95.62-1.86.55-2.59-.47-1.45-2.02-2.93-4.02-4.39-6.04-.31-.42-.56-.9-.01-1.3,2.48-1.81,4.56-4.15,7.4-5.49.81-.38,1.24-.39,1.8.47,1.37,2.08,2.92,4.04,4.38,6.06.29.4.56.83.57,1.41Z"/>
    <path class="cls-2" d="m740.51,291.16c-.63-.55-1.16-1.23-1.57-2.03-.32-.62-.53-1.22.13-1.79,2.88-2.49,5.76-4.99,8.64-7.48.69-.6,1.34-.5,1.98.11,1.33,1.27,2.47,2.69,3.24,4.36.35.76.33,1.42-.62,1.81-3.75,1.55-7.48,3.13-11.21,4.7-.15.06-.28.15-.58.32Z"/>
    <path class="cls-2" d="m589.5,290.79c-1.17.05-1.57-.95-2.13-1.76-.59-.85-.07-1.36.54-1.88,2.76-2.4,5.53-4.8,8.26-7.24.67-.6,1.22-.78,1.89-.06,1.2,1.28,2.27,2.66,3.15,4.18.43.74.43,1.53-.42,1.92-3.56,1.61-7.15,3.16-10.73,4.73-.15.07-.32.07-.56.12Z"/>
    <path class="cls-2" d="m798.49,285.02c-.02.63-.42,1.01-.75,1.3-1.55,1.37-3.17,2.65-4.92,3.77-.8.51-1.34.36-1.91-.31-1.39-1.62-2.76-3.25-3.92-5.06-.47-.74-.45-1.33.18-1.99,1.59-1.68,3.61-2.76,5.55-3.93.64-.38,1.37-.3,1.9.53,1.07,1.67,2.26,3.26,3.4,4.89.19.27.34.56.48.78Z"/>
    <path class="cls-2" d="m183.54,285.27c-.04.65-.37,1.03-.82,1.28-1.76.97-3.29,2.25-4.87,3.47-.72.55-1.31.58-1.92-.15-1.4-1.65-2.73-3.34-3.94-5.14-.49-.73-.58-1.27.26-1.87,1.76-1.25,3.46-2.58,5.16-3.91.66-.51,1.23-.47,1.72.16,1.43,1.83,2.84,3.68,4.24,5.53.14.18.13.47.17.62Z"/>
    <path class="cls-2" d="m862.36,311.22c-.11.19-.23.5-.44.75-1.38,1.65-2.78,3.29-4.16,4.94-.58.68-1.17.82-1.91.21-1.6-1.31-3.23-2.59-4.84-3.88-.61-.49-.79-1.09-.29-1.72,1.32-1.7,2.66-3.38,4.02-5.04.7-.85,1.45-.93,2.33-.16,1.43,1.25,2.93,2.43,4.39,3.66.37.31.82.58.9,1.26Z"/>
    <path class="cls-1" d="m492.5,223.7c.38-.01.67.25.79.51.77,1.68,2.33,2.79,3.18,4.41.87,1.66.84,2.24-.6,3.41-1.15.94-2.38,1.8-3.63,2.62-1.26.82-2.4.68-3.25-.46-1.09-1.45-1.81-3.16-3.18-4.42-.36-.33-.24-.77,0-1.14,1.61-2.33,4.04-3.6,6.44-4.89.07-.04.16-.03.24-.04Z"/>
    <path class="cls-2" d="m887.18,317.46c-.11-.07-.54-.32-.93-.62-1.58-1.22-3.11-2.5-4.72-3.68-.63-.47-.65-1-.28-1.48,1.37-1.78,2.8-3.51,4.22-5.25.55-.68,1.21-.84,1.96-.29,1.82,1.32,3.55,2.75,5.15,4.34.48.48.61.95.13,1.52-1.52,1.77-3.02,3.55-4.54,5.32-.16.19-.36.35-.99.16Z"/>
    <path class="cls-2" d="m871.12,306.13c.52-.03.98.1,1.39.44,1.47,1.23,2.95,2.45,4.44,3.65.83.67.87,1.26.13,2.06-1.41,1.53-2.74,3.13-4.1,4.71-.48.56-.95.93-1.67.33-1.67-1.37-3.36-2.73-5.05-4.08-.59-.48-.88-1.01-.34-1.7,1.28-1.64,2.58-3.27,3.86-4.91.35-.44.81-.55,1.33-.51Z"/>
    <path class="cls-2" d="m238.98,285.02c.05.86-.33,1.19-.73,1.49-1.6,1.2-3.22,2.37-4.79,3.6-.8.63-1.35.36-1.88-.32-1.22-1.58-2.43-3.17-3.67-4.74-.74-.93-.48-1.59.36-2.32,1.64-1.44,3.48-2.57,5.24-3.83.43-.31.91-.53,1.3,0,1.33,1.81,2.65,3.63,3.94,5.47.18.26.22.61.24.66Z"/>
    <path class="cls-1" d="m707.07,229.82c.07.77-.18,1.21-.6,1.51-1.67,1.22-3.25,2.55-5.15,3.45-1.07.51-1.62.29-2.24-.63-.93-1.38-1.94-2.7-3-3.98-.72-.88-.81-1.63.16-2.3,1.61-1.11,2.57-2.95,4.51-3.71,1.17-.46,1.85-.66,2.57.72.59,1.14,1.73,1.99,2.61,2.98.55.63.93,1.37,1.14,1.95Z"/>
    <path class="cls-1" d="m408.49.51c.21.09.45.16.64.29.2.14.36.34.53.52,1.19,1.26,2.9,2.6,2.66,4.26-.22,1.48-2.43,1.68-3.77,2.39-1.82.96-3.78,1.66-5.71,2.39-1.52.58-2.82-.09-3.27-1.61-.12-.39-.07-.81.3-1.12,2.66-2.23,5.31-4.47,7.97-6.69.18-.15.4-.27.65-.43Z"/>
    <path class="cls-1" d="m447.89,10.24c-.53-.09-.85-.35-1.11-.69-1.05-1.39-2.1-2.78-3.15-4.17-.48-.64-.39-1.22.19-1.76,1.4-1.31,3.08-2.25,4.63-3.36.62-.44,1.25-.34,1.73.33.93,1.27,1.88,2.53,2.81,3.8.78,1.06.68,2-.41,2.77-1.29.91-2.59,1.8-3.89,2.69-.27.18-.59.29-.81.39Z"/>
    <path class="cls-1" d="m653.12,34.56c-1.98-.98-3.29-2.67-5.05-3.75-.54-.33-.48-.68-.18-1.22.92-1.7,2.43-2.87,3.67-4.28.41-.47,1.02-.57,1.56-.09,1.3,1.14,2.57,2.31,3.9,3.42.64.53.4.97.05,1.49-1.11,1.67-2.54,3.04-3.94,4.42Z"/>
    <path class="cls-1" d="m653.26,21.95c-1.57-.87-2.92-1.96-4.21-3.12-.93-.83-1.26-1.62-.36-2.76.81-1.02,1.51-2.08,2.57-2.92,1.03-.82,1.73-.63,2.59.13,1.11.97,1.89,2.27,3.3,2.95.78.37.2,1.03-.15,1.44-1.21,1.43-2.46,2.83-3.73,4.28Z"/>
  </g>
</svg>